%TF.GenerationSoftware,KiCad,Pcbnew,7.0.9*%
%TF.CreationDate,2023-11-19T18:12:56+00:00*%
%TF.ProjectId,12v-jelly,3132762d-6a65-46c6-9c79-2e6b69636164,rev?*%
%TF.SameCoordinates,Original*%
%TF.FileFunction,Copper,L2,Inr*%
%TF.FilePolarity,Positive*%
%FSLAX46Y46*%
G04 Gerber Fmt 4.6, Leading zero omitted, Abs format (unit mm)*
G04 Created by KiCad (PCBNEW 7.0.9) date 2023-11-19 18:12:56*
%MOMM*%
%LPD*%
G01*
G04 APERTURE LIST*
G04 Aperture macros list*
%AMRoundRect*
0 Rectangle with rounded corners*
0 $1 Rounding radius*
0 $2 $3 $4 $5 $6 $7 $8 $9 X,Y pos of 4 corners*
0 Add a 4 corners polygon primitive as box body*
4,1,4,$2,$3,$4,$5,$6,$7,$8,$9,$2,$3,0*
0 Add four circle primitives for the rounded corners*
1,1,$1+$1,$2,$3*
1,1,$1+$1,$4,$5*
1,1,$1+$1,$6,$7*
1,1,$1+$1,$8,$9*
0 Add four rect primitives between the rounded corners*
20,1,$1+$1,$2,$3,$4,$5,0*
20,1,$1+$1,$4,$5,$6,$7,0*
20,1,$1+$1,$6,$7,$8,$9,0*
20,1,$1+$1,$8,$9,$2,$3,0*%
G04 Aperture macros list end*
%TA.AperFunction,ComponentPad*%
%ADD10RoundRect,0.250000X-0.845000X0.620000X-0.845000X-0.620000X0.845000X-0.620000X0.845000X0.620000X0*%
%TD*%
%TA.AperFunction,ComponentPad*%
%ADD11O,2.190000X1.740000*%
%TD*%
%TA.AperFunction,ComponentPad*%
%ADD12C,1.700000*%
%TD*%
%TA.AperFunction,ComponentPad*%
%ADD13RoundRect,0.250000X0.845000X-0.620000X0.845000X0.620000X-0.845000X0.620000X-0.845000X-0.620000X0*%
%TD*%
%TA.AperFunction,ComponentPad*%
%ADD14C,2.000000*%
%TD*%
%TA.AperFunction,ComponentPad*%
%ADD15RoundRect,0.248400X-0.651600X-0.651600X0.651600X-0.651600X0.651600X0.651600X-0.651600X0.651600X0*%
%TD*%
%TA.AperFunction,ComponentPad*%
%ADD16C,1.800000*%
%TD*%
%TA.AperFunction,ComponentPad*%
%ADD17C,2.340000*%
%TD*%
%TA.AperFunction,ComponentPad*%
%ADD18C,1.400000*%
%TD*%
%TA.AperFunction,ComponentPad*%
%ADD19R,3.500000X3.500000*%
%TD*%
%TA.AperFunction,ComponentPad*%
%ADD20C,3.500000*%
%TD*%
%TA.AperFunction,ViaPad*%
%ADD21C,0.600000*%
%TD*%
%TA.AperFunction,Conductor*%
%ADD22C,1.750000*%
%TD*%
G04 APERTURE END LIST*
D10*
%TO.N,GND*%
%TO.C,J6*%
X99000000Y-30460000D03*
D11*
%TO.N,Net-(J6-Pin_2)*%
X99000000Y-33000000D03*
%TO.N,+5V*%
X99000000Y-35540000D03*
%TD*%
D12*
%TO.N,Net-(J1-Pin_2)*%
%TO.C,U3*%
X73015000Y-52400000D03*
X75555000Y-52400000D03*
%TO.N,Net-(J1-Pin_1)*%
X84445000Y-52400000D03*
X86985000Y-52400000D03*
%TO.N,+5V*%
X73015000Y-27000000D03*
X75555000Y-27000000D03*
%TO.N,GND*%
X84445000Y-27000000D03*
X86985000Y-27000000D03*
%TD*%
D13*
%TO.N,GND*%
%TO.C,J8*%
X61000000Y-45540000D03*
D11*
%TO.N,Net-(J8-Pin_2)*%
X61000000Y-43000000D03*
%TO.N,+5V*%
X61000000Y-40460000D03*
%TD*%
D14*
%TO.N,GND*%
%TO.C,SW2*%
X68250000Y-84250000D03*
X61750000Y-84250000D03*
%TO.N,/SW0*%
X68250000Y-79750000D03*
X61750000Y-79750000D03*
%TD*%
D10*
%TO.N,GND*%
%TO.C,J5*%
X99000000Y-40460000D03*
D11*
%TO.N,Net-(J5-Pin_2)*%
X99000000Y-43000000D03*
%TO.N,+5V*%
X99000000Y-45540000D03*
%TD*%
D13*
%TO.N,GND*%
%TO.C,J9*%
X61000000Y-55540000D03*
D11*
%TO.N,Net-(J9-Pin_2)*%
X61000000Y-53000000D03*
%TO.N,+5V*%
X61000000Y-50460000D03*
%TD*%
D13*
%TO.N,GND*%
%TO.C,J7*%
X61000000Y-35540000D03*
D11*
%TO.N,Net-(J7-Pin_2)*%
X61000000Y-33000000D03*
%TO.N,+5V*%
X61000000Y-30460000D03*
%TD*%
D13*
%TO.N,GND*%
%TO.C,J10*%
X61000000Y-65540000D03*
D11*
%TO.N,Net-(J10-Pin_2)*%
X61000000Y-63000000D03*
%TO.N,+5V*%
X61000000Y-60460000D03*
%TD*%
D10*
%TO.N,GND*%
%TO.C,J4*%
X98980000Y-50460000D03*
D11*
%TO.N,Net-(J4-Pin_2)*%
X98980000Y-53000000D03*
%TO.N,+5V*%
X98980000Y-55540000D03*
%TD*%
D10*
%TO.N,GND*%
%TO.C,J3*%
X99000000Y-60460000D03*
D11*
%TO.N,Net-(J3-Pin_2)*%
X99000000Y-63000000D03*
%TO.N,+5V*%
X99000000Y-65540000D03*
%TD*%
D15*
%TO.N,/IR*%
%TO.C,U4*%
X77460000Y-84500000D03*
D16*
%TO.N,GND*%
X80000000Y-84500000D03*
%TO.N,Net-(U4-Vs)*%
X82540000Y-84500000D03*
%TD*%
D17*
%TO.N,+3V3*%
%TO.C,RV1*%
X100000000Y-79350000D03*
%TO.N,/POT*%
X90000000Y-81850000D03*
%TO.N,GND*%
X100000000Y-84350000D03*
%TD*%
D18*
%TO.N,*%
%TO.C,J1*%
X74500000Y-85325000D03*
X85500000Y-85325000D03*
D19*
%TO.N,Net-(J1-Pin_1)*%
X82500000Y-75325000D03*
D20*
%TO.N,Net-(J1-Pin_2)*%
X77500000Y-75325000D03*
%TD*%
D21*
%TO.N,+5V*%
X81750000Y-80250000D03*
X84500000Y-67500000D03*
%TO.N,GND*%
X80600000Y-63200000D03*
X70200000Y-27000000D03*
X89800000Y-65000000D03*
X70200000Y-52400000D03*
X89800000Y-27000000D03*
X86000000Y-67500000D03*
X89800000Y-39600000D03*
X70200000Y-65000000D03*
X80000000Y-70800000D03*
X89800000Y-52300000D03*
X75500000Y-58250000D03*
%TO.N,Net-(D1-K)*%
X67450000Y-23850000D03*
%TO.N,+3V3*%
X93500000Y-67500000D03*
%TO.N,/SW0*%
X90160000Y-67590000D03*
%TO.N,/CLOCK*%
X69840000Y-67590000D03*
%TO.N,/LATCH*%
X69840000Y-62510000D03*
%TO.N,/DATA*%
X69840000Y-70130000D03*
%TO.N,/IR*%
X90160000Y-70130000D03*
%TD*%
D22*
%TO.N,Net-(J1-Pin_1)*%
X82500000Y-75325000D02*
X82500000Y-54345000D01*
X82500000Y-54345000D02*
X84445000Y-52400000D01*
%TO.N,Net-(J1-Pin_2)*%
X77500000Y-54345000D02*
X75555000Y-52400000D01*
X77500000Y-75325000D02*
X77500000Y-54345000D01*
%TD*%
%TA.AperFunction,Conductor*%
%TO.N,+5V*%
G36*
X99001423Y-20000566D02*
G01*
X99040986Y-20002394D01*
X99172950Y-20008495D01*
X99372549Y-20018302D01*
X99378048Y-20018819D01*
X99563357Y-20044668D01*
X99749828Y-20072329D01*
X99754871Y-20073294D01*
X99939341Y-20116681D01*
X100120221Y-20161989D01*
X100124797Y-20163327D01*
X100305568Y-20223916D01*
X100480339Y-20286450D01*
X100484471Y-20288100D01*
X100542986Y-20313936D01*
X100659474Y-20365370D01*
X100826973Y-20444592D01*
X100830601Y-20446457D01*
X100998128Y-20539770D01*
X100998142Y-20539778D01*
X101156964Y-20634972D01*
X101160119Y-20636996D01*
X101318603Y-20745559D01*
X101467377Y-20855897D01*
X101470001Y-20857957D01*
X101618027Y-20980876D01*
X101755321Y-21105314D01*
X101757514Y-21107402D01*
X101892596Y-21242484D01*
X101894687Y-21244680D01*
X101925051Y-21278181D01*
X102019129Y-21381980D01*
X102142034Y-21529989D01*
X102144109Y-21532632D01*
X102254443Y-21681400D01*
X102363002Y-21839879D01*
X102365032Y-21843044D01*
X102460221Y-22001857D01*
X102553527Y-22169371D01*
X102555410Y-22173034D01*
X102634638Y-22340547D01*
X102711899Y-22515527D01*
X102713558Y-22519685D01*
X102776093Y-22694459D01*
X102836662Y-22875173D01*
X102838018Y-22879812D01*
X102883317Y-23060654D01*
X102926696Y-23245090D01*
X102927672Y-23250189D01*
X102955337Y-23436689D01*
X102981177Y-23621933D01*
X102981697Y-23627459D01*
X102991512Y-23827238D01*
X102999434Y-23998575D01*
X102999500Y-24001439D01*
X102999500Y-83998560D01*
X102999434Y-84001424D01*
X102991512Y-84172761D01*
X102981697Y-84372539D01*
X102981177Y-84378065D01*
X102955337Y-84563310D01*
X102927672Y-84749809D01*
X102926696Y-84754908D01*
X102883317Y-84939345D01*
X102838018Y-85120186D01*
X102836662Y-85124825D01*
X102776093Y-85305540D01*
X102713557Y-85480314D01*
X102711899Y-85484470D01*
X102634638Y-85659452D01*
X102555410Y-85826964D01*
X102553527Y-85830627D01*
X102460221Y-85998142D01*
X102365032Y-86156954D01*
X102363002Y-86160118D01*
X102254437Y-86318608D01*
X102144121Y-86467350D01*
X102142021Y-86470025D01*
X102019132Y-86618016D01*
X101894695Y-86755310D01*
X101892596Y-86757514D01*
X101757514Y-86892596D01*
X101755310Y-86894695D01*
X101618016Y-87019132D01*
X101470025Y-87142021D01*
X101467350Y-87144121D01*
X101318608Y-87254437D01*
X101160118Y-87363002D01*
X101156954Y-87365032D01*
X100998142Y-87460221D01*
X100830627Y-87553527D01*
X100826964Y-87555410D01*
X100659452Y-87634638D01*
X100484470Y-87711899D01*
X100480314Y-87713557D01*
X100305540Y-87776093D01*
X100124825Y-87836662D01*
X100120186Y-87838018D01*
X99939345Y-87883317D01*
X99754908Y-87926696D01*
X99749809Y-87927672D01*
X99563310Y-87955337D01*
X99378065Y-87981177D01*
X99372539Y-87981697D01*
X99172761Y-87991512D01*
X99001424Y-87999434D01*
X98998560Y-87999500D01*
X61001440Y-87999500D01*
X60998576Y-87999434D01*
X60827238Y-87991512D01*
X60627459Y-87981697D01*
X60621933Y-87981177D01*
X60436689Y-87955337D01*
X60250189Y-87927672D01*
X60245090Y-87926696D01*
X60060654Y-87883317D01*
X59879812Y-87838018D01*
X59875173Y-87836662D01*
X59694459Y-87776093D01*
X59519685Y-87713558D01*
X59515527Y-87711899D01*
X59340547Y-87634638D01*
X59173034Y-87555410D01*
X59169371Y-87553527D01*
X59001857Y-87460221D01*
X58843044Y-87365032D01*
X58839879Y-87363002D01*
X58730371Y-87287989D01*
X58681392Y-87254437D01*
X58532632Y-87144109D01*
X58529989Y-87142034D01*
X58381980Y-87019129D01*
X58244688Y-86894695D01*
X58242484Y-86892596D01*
X58107402Y-86757514D01*
X58105314Y-86755321D01*
X57980867Y-86618016D01*
X57857957Y-86470001D01*
X57855897Y-86467377D01*
X57745559Y-86318603D01*
X57636995Y-86160118D01*
X57634966Y-86156954D01*
X57539778Y-85998142D01*
X57518361Y-85959691D01*
X57446457Y-85830601D01*
X57444588Y-85826964D01*
X57408423Y-85750500D01*
X57365370Y-85659474D01*
X57309930Y-85533913D01*
X57288100Y-85484471D01*
X57286450Y-85480339D01*
X57223906Y-85305540D01*
X57163327Y-85124797D01*
X57161989Y-85120221D01*
X57116675Y-84939315D01*
X57104952Y-84889472D01*
X57073294Y-84754871D01*
X57072329Y-84749828D01*
X57044662Y-84563310D01*
X57018819Y-84378048D01*
X57018302Y-84372549D01*
X57012282Y-84250005D01*
X60244357Y-84250005D01*
X60264890Y-84497812D01*
X60264892Y-84497824D01*
X60325936Y-84738881D01*
X60425826Y-84966606D01*
X60561833Y-85174782D01*
X60561836Y-85174785D01*
X60730256Y-85357738D01*
X60926491Y-85510474D01*
X61145190Y-85628828D01*
X61380386Y-85709571D01*
X61625665Y-85750500D01*
X61874335Y-85750500D01*
X62119614Y-85709571D01*
X62354810Y-85628828D01*
X62573509Y-85510474D01*
X62769744Y-85357738D01*
X62938164Y-85174785D01*
X63074173Y-84966607D01*
X63174063Y-84738881D01*
X63235108Y-84497821D01*
X63235109Y-84497812D01*
X63255643Y-84250005D01*
X66744357Y-84250005D01*
X66764890Y-84497812D01*
X66764892Y-84497824D01*
X66825936Y-84738881D01*
X66925826Y-84966606D01*
X67061833Y-85174782D01*
X67061836Y-85174785D01*
X67230256Y-85357738D01*
X67426491Y-85510474D01*
X67645190Y-85628828D01*
X67880386Y-85709571D01*
X68125665Y-85750500D01*
X68374335Y-85750500D01*
X68619614Y-85709571D01*
X68854810Y-85628828D01*
X69073509Y-85510474D01*
X69269744Y-85357738D01*
X69299881Y-85325000D01*
X73294357Y-85325000D01*
X73314884Y-85546535D01*
X73314885Y-85546537D01*
X73375769Y-85760523D01*
X73375775Y-85760538D01*
X73474938Y-85959683D01*
X73474943Y-85959691D01*
X73609020Y-86137238D01*
X73773437Y-86287123D01*
X73773439Y-86287125D01*
X73962595Y-86404245D01*
X73962596Y-86404245D01*
X73962599Y-86404247D01*
X74170060Y-86484618D01*
X74388757Y-86525500D01*
X74388759Y-86525500D01*
X74611241Y-86525500D01*
X74611243Y-86525500D01*
X74829940Y-86484618D01*
X75037401Y-86404247D01*
X75226562Y-86287124D01*
X75390981Y-86137236D01*
X75525058Y-85959689D01*
X75624229Y-85760528D01*
X75685115Y-85546536D01*
X75705643Y-85325000D01*
X75702739Y-85293665D01*
X75694198Y-85201493D01*
X76059500Y-85201493D01*
X76059501Y-85201509D01*
X76069979Y-85304073D01*
X76125045Y-85470250D01*
X76125047Y-85470255D01*
X76136867Y-85489418D01*
X76216952Y-85619256D01*
X76340744Y-85743048D01*
X76489747Y-85834954D01*
X76655928Y-85890021D01*
X76758499Y-85900500D01*
X78161500Y-85900499D01*
X78264072Y-85890021D01*
X78430253Y-85834954D01*
X78579256Y-85743048D01*
X78703048Y-85619256D01*
X78787134Y-85482931D01*
X78839080Y-85436209D01*
X78908043Y-85424986D01*
X78972125Y-85452830D01*
X78983893Y-85464039D01*
X79048216Y-85533913D01*
X79048219Y-85533915D01*
X79048222Y-85533918D01*
X79231365Y-85676464D01*
X79231371Y-85676468D01*
X79231374Y-85676470D01*
X79435497Y-85786936D01*
X79549487Y-85826068D01*
X79655015Y-85862297D01*
X79655017Y-85862297D01*
X79655019Y-85862298D01*
X79883951Y-85900500D01*
X79883952Y-85900500D01*
X80116048Y-85900500D01*
X80116049Y-85900500D01*
X80344981Y-85862298D01*
X80564503Y-85786936D01*
X80768626Y-85676470D01*
X80951784Y-85533913D01*
X81108979Y-85363153D01*
X81166191Y-85275582D01*
X81219337Y-85230226D01*
X81288568Y-85220802D01*
X81351904Y-85250304D01*
X81373809Y-85275583D01*
X81431016Y-85363147D01*
X81431019Y-85363151D01*
X81431021Y-85363153D01*
X81588216Y-85533913D01*
X81588219Y-85533915D01*
X81588222Y-85533918D01*
X81771365Y-85676464D01*
X81771371Y-85676468D01*
X81771374Y-85676470D01*
X81975497Y-85786936D01*
X82089487Y-85826068D01*
X82195015Y-85862297D01*
X82195017Y-85862297D01*
X82195019Y-85862298D01*
X82423951Y-85900500D01*
X82423952Y-85900500D01*
X82656048Y-85900500D01*
X82656049Y-85900500D01*
X82884981Y-85862298D01*
X83104503Y-85786936D01*
X83308626Y-85676470D01*
X83491784Y-85533913D01*
X83648979Y-85363153D01*
X83673906Y-85325000D01*
X84294357Y-85325000D01*
X84314884Y-85546535D01*
X84314885Y-85546537D01*
X84375769Y-85760523D01*
X84375775Y-85760538D01*
X84474938Y-85959683D01*
X84474943Y-85959691D01*
X84609020Y-86137238D01*
X84773437Y-86287123D01*
X84773439Y-86287125D01*
X84962595Y-86404245D01*
X84962596Y-86404245D01*
X84962599Y-86404247D01*
X85170060Y-86484618D01*
X85388757Y-86525500D01*
X85388759Y-86525500D01*
X85611241Y-86525500D01*
X85611243Y-86525500D01*
X85829940Y-86484618D01*
X86037401Y-86404247D01*
X86226562Y-86287124D01*
X86390981Y-86137236D01*
X86525058Y-85959689D01*
X86624229Y-85760528D01*
X86685115Y-85546536D01*
X86705643Y-85325000D01*
X86702739Y-85293665D01*
X86685115Y-85103464D01*
X86685114Y-85103462D01*
X86682568Y-85094515D01*
X86624229Y-84889472D01*
X86601474Y-84843774D01*
X86525061Y-84690316D01*
X86525056Y-84690308D01*
X86390979Y-84512761D01*
X86226562Y-84362876D01*
X86226560Y-84362874D01*
X86205774Y-84350004D01*
X98324816Y-84350004D01*
X98343524Y-84599663D01*
X98343525Y-84599668D01*
X98399236Y-84843755D01*
X98399238Y-84843764D01*
X98399240Y-84843769D01*
X98490711Y-85076835D01*
X98615898Y-85293665D01*
X98671313Y-85363153D01*
X98772006Y-85489418D01*
X98910167Y-85617612D01*
X98955540Y-85659712D01*
X99162408Y-85800752D01*
X99162413Y-85800754D01*
X99162414Y-85800755D01*
X99162415Y-85800756D01*
X99224444Y-85830627D01*
X99387983Y-85909383D01*
X99387984Y-85909383D01*
X99387987Y-85909385D01*
X99627236Y-85983184D01*
X99627237Y-85983184D01*
X99627240Y-85983185D01*
X99874805Y-86020499D01*
X99874810Y-86020499D01*
X99874813Y-86020500D01*
X99874814Y-86020500D01*
X100125186Y-86020500D01*
X100125187Y-86020500D01*
X100125194Y-86020499D01*
X100372759Y-85983185D01*
X100372760Y-85983184D01*
X100372764Y-85983184D01*
X100612013Y-85909385D01*
X100837592Y-85800752D01*
X101044460Y-85659712D01*
X101227997Y-85489414D01*
X101384102Y-85293665D01*
X101509289Y-85076835D01*
X101600760Y-84843769D01*
X101656474Y-84599673D01*
X101663943Y-84500006D01*
X101675184Y-84350004D01*
X101675184Y-84349995D01*
X101656475Y-84100336D01*
X101656474Y-84100331D01*
X101656474Y-84100327D01*
X101600760Y-83856231D01*
X101509289Y-83623165D01*
X101384102Y-83406335D01*
X101227997Y-83210586D01*
X101227996Y-83210585D01*
X101227993Y-83210581D01*
X101044460Y-83040288D01*
X100837592Y-82899248D01*
X100837588Y-82899246D01*
X100837585Y-82899244D01*
X100837584Y-82899243D01*
X100612015Y-82790616D01*
X100612017Y-82790616D01*
X100372765Y-82716816D01*
X100372759Y-82716814D01*
X100125194Y-82679500D01*
X100125187Y-82679500D01*
X99874813Y-82679500D01*
X99874805Y-82679500D01*
X99627240Y-82716814D01*
X99627234Y-82716816D01*
X99387983Y-82790616D01*
X99162415Y-82899243D01*
X99162414Y-82899244D01*
X98955539Y-83040288D01*
X98772006Y-83210581D01*
X98615898Y-83406335D01*
X98490711Y-83623164D01*
X98399242Y-83856225D01*
X98399236Y-83856244D01*
X98343525Y-84100331D01*
X98343524Y-84100336D01*
X98324816Y-84349995D01*
X98324816Y-84350004D01*
X86205774Y-84350004D01*
X86037404Y-84245754D01*
X86037398Y-84245752D01*
X85829940Y-84165382D01*
X85611243Y-84124500D01*
X85388757Y-84124500D01*
X85170060Y-84165382D01*
X85054013Y-84210339D01*
X84962601Y-84245752D01*
X84962595Y-84245754D01*
X84773439Y-84362874D01*
X84773437Y-84362876D01*
X84609020Y-84512761D01*
X84474943Y-84690308D01*
X84474938Y-84690316D01*
X84375775Y-84889461D01*
X84375769Y-84889476D01*
X84314885Y-85103462D01*
X84314884Y-85103464D01*
X84294357Y-85324999D01*
X84294357Y-85325000D01*
X83673906Y-85325000D01*
X83775924Y-85168849D01*
X83869157Y-84956300D01*
X83926134Y-84731305D01*
X83926135Y-84731297D01*
X83945300Y-84500006D01*
X83945300Y-84499993D01*
X83926135Y-84268702D01*
X83926133Y-84268691D01*
X83869157Y-84043699D01*
X83775924Y-83831151D01*
X83648983Y-83636852D01*
X83648980Y-83636849D01*
X83648979Y-83636847D01*
X83491784Y-83466087D01*
X83491779Y-83466083D01*
X83491777Y-83466081D01*
X83308634Y-83323535D01*
X83308628Y-83323531D01*
X83104504Y-83213064D01*
X83104495Y-83213061D01*
X82884984Y-83137702D01*
X82713282Y-83109050D01*
X82656049Y-83099500D01*
X82423951Y-83099500D01*
X82378164Y-83107140D01*
X82195015Y-83137702D01*
X81975504Y-83213061D01*
X81975495Y-83213064D01*
X81771371Y-83323531D01*
X81771365Y-83323535D01*
X81588222Y-83466081D01*
X81588219Y-83466084D01*
X81431016Y-83636852D01*
X81373809Y-83724416D01*
X81320662Y-83769773D01*
X81251431Y-83779197D01*
X81188095Y-83749695D01*
X81166191Y-83724416D01*
X81108983Y-83636852D01*
X81108980Y-83636849D01*
X81108979Y-83636847D01*
X80951784Y-83466087D01*
X80951779Y-83466083D01*
X80951777Y-83466081D01*
X80768634Y-83323535D01*
X80768628Y-83323531D01*
X80564504Y-83213064D01*
X80564495Y-83213061D01*
X80344984Y-83137702D01*
X80173282Y-83109050D01*
X80116049Y-83099500D01*
X79883951Y-83099500D01*
X79838164Y-83107140D01*
X79655015Y-83137702D01*
X79435504Y-83213061D01*
X79435495Y-83213064D01*
X79231371Y-83323531D01*
X79231365Y-83323535D01*
X79048222Y-83466081D01*
X79048212Y-83466090D01*
X78983900Y-83535952D01*
X78924013Y-83571943D01*
X78854175Y-83569842D01*
X78796559Y-83530318D01*
X78787132Y-83517066D01*
X78766234Y-83483185D01*
X78703048Y-83380744D01*
X78579256Y-83256952D01*
X78430253Y-83165046D01*
X78361493Y-83142261D01*
X78264073Y-83109979D01*
X78264066Y-83109978D01*
X78161502Y-83099500D01*
X76758506Y-83099500D01*
X76758490Y-83099501D01*
X76655926Y-83109979D01*
X76489749Y-83165045D01*
X76489744Y-83165047D01*
X76340742Y-83256953D01*
X76216953Y-83380742D01*
X76125047Y-83529744D01*
X76125045Y-83529749D01*
X76069979Y-83695926D01*
X76069978Y-83695933D01*
X76059500Y-83798491D01*
X76059500Y-85201493D01*
X75694198Y-85201493D01*
X75685115Y-85103464D01*
X75685114Y-85103462D01*
X75682568Y-85094515D01*
X75624229Y-84889472D01*
X75601474Y-84843774D01*
X75525061Y-84690316D01*
X75525056Y-84690308D01*
X75390979Y-84512761D01*
X75226562Y-84362876D01*
X75226560Y-84362874D01*
X75037404Y-84245754D01*
X75037398Y-84245752D01*
X74829940Y-84165382D01*
X74611243Y-84124500D01*
X74388757Y-84124500D01*
X74170060Y-84165382D01*
X74054013Y-84210339D01*
X73962601Y-84245752D01*
X73962595Y-84245754D01*
X73773439Y-84362874D01*
X73773437Y-84362876D01*
X73609020Y-84512761D01*
X73474943Y-84690308D01*
X73474938Y-84690316D01*
X73375775Y-84889461D01*
X73375769Y-84889476D01*
X73314885Y-85103462D01*
X73314884Y-85103464D01*
X73294357Y-85324999D01*
X73294357Y-85325000D01*
X69299881Y-85325000D01*
X69438164Y-85174785D01*
X69574173Y-84966607D01*
X69674063Y-84738881D01*
X69735108Y-84497821D01*
X69735109Y-84497812D01*
X69755643Y-84250005D01*
X69755643Y-84249994D01*
X69735109Y-84002187D01*
X69735107Y-84002175D01*
X69674063Y-83761118D01*
X69574173Y-83533393D01*
X69438166Y-83325217D01*
X69375324Y-83256953D01*
X69269744Y-83142262D01*
X69073509Y-82989526D01*
X69073507Y-82989525D01*
X69073506Y-82989524D01*
X68854811Y-82871172D01*
X68854802Y-82871169D01*
X68619616Y-82790429D01*
X68374335Y-82749500D01*
X68125665Y-82749500D01*
X67880383Y-82790429D01*
X67645197Y-82871169D01*
X67645188Y-82871172D01*
X67426493Y-82989524D01*
X67230257Y-83142261D01*
X67061833Y-83325217D01*
X66925826Y-83533393D01*
X66825936Y-83761118D01*
X66764892Y-84002175D01*
X66764890Y-84002187D01*
X66744357Y-84249994D01*
X66744357Y-84250005D01*
X63255643Y-84250005D01*
X63255643Y-84249994D01*
X63235109Y-84002187D01*
X63235107Y-84002175D01*
X63174063Y-83761118D01*
X63074173Y-83533393D01*
X62938166Y-83325217D01*
X62875324Y-83256953D01*
X62769744Y-83142262D01*
X62573509Y-82989526D01*
X62573507Y-82989525D01*
X62573506Y-82989524D01*
X62354811Y-82871172D01*
X62354802Y-82871169D01*
X62119616Y-82790429D01*
X61874335Y-82749500D01*
X61625665Y-82749500D01*
X61380383Y-82790429D01*
X61145197Y-82871169D01*
X61145188Y-82871172D01*
X60926493Y-82989524D01*
X60730257Y-83142261D01*
X60561833Y-83325217D01*
X60425826Y-83533393D01*
X60325936Y-83761118D01*
X60264892Y-84002175D01*
X60264890Y-84002187D01*
X60244357Y-84249994D01*
X60244357Y-84250005D01*
X57012282Y-84250005D01*
X57008487Y-84172761D01*
X57000566Y-84001423D01*
X57000500Y-83998560D01*
X57000500Y-81850004D01*
X88324816Y-81850004D01*
X88343524Y-82099663D01*
X88343525Y-82099668D01*
X88399236Y-82343755D01*
X88399238Y-82343764D01*
X88399240Y-82343769D01*
X88490711Y-82576835D01*
X88615898Y-82793665D01*
X88677706Y-82871169D01*
X88772006Y-82989418D01*
X88931819Y-83137702D01*
X88955540Y-83159712D01*
X89162408Y-83300752D01*
X89162413Y-83300754D01*
X89162414Y-83300755D01*
X89162415Y-83300756D01*
X89282218Y-83358449D01*
X89387983Y-83409383D01*
X89387984Y-83409383D01*
X89387987Y-83409385D01*
X89627236Y-83483184D01*
X89627237Y-83483184D01*
X89627240Y-83483185D01*
X89874805Y-83520499D01*
X89874810Y-83520499D01*
X89874813Y-83520500D01*
X89874814Y-83520500D01*
X90125186Y-83520500D01*
X90125187Y-83520500D01*
X90125194Y-83520499D01*
X90372759Y-83483185D01*
X90372760Y-83483184D01*
X90372764Y-83483184D01*
X90612013Y-83409385D01*
X90837592Y-83300752D01*
X91044460Y-83159712D01*
X91186895Y-83027550D01*
X91227993Y-82989418D01*
X91227993Y-82989416D01*
X91227997Y-82989414D01*
X91384102Y-82793665D01*
X91509289Y-82576835D01*
X91600760Y-82343769D01*
X91656474Y-82099673D01*
X91658295Y-82075373D01*
X92745723Y-82075373D01*
X92775881Y-82375160D01*
X92775882Y-82375162D01*
X92845728Y-82668252D01*
X92845733Y-82668266D01*
X92954020Y-82949427D01*
X92954024Y-82949436D01*
X93098825Y-83213665D01*
X93098829Y-83213671D01*
X93240785Y-83406335D01*
X93277554Y-83456238D01*
X93487020Y-83672824D01*
X93520300Y-83699105D01*
X93723478Y-83859553D01*
X93723480Y-83859554D01*
X93723485Y-83859558D01*
X93982730Y-84013109D01*
X94260128Y-84130736D01*
X94550729Y-84210340D01*
X94849347Y-84250500D01*
X94849351Y-84250500D01*
X95075252Y-84250500D01*
X95239164Y-84239526D01*
X95300634Y-84235412D01*
X95595903Y-84175396D01*
X95880537Y-84076560D01*
X96149459Y-83940668D01*
X96397869Y-83770144D01*
X96621333Y-83568032D01*
X96815865Y-83337939D01*
X96977993Y-83083970D01*
X97104823Y-82810658D01*
X97194093Y-82522879D01*
X97244209Y-82225770D01*
X97254277Y-81924631D01*
X97224118Y-81624838D01*
X97154269Y-81331739D01*
X97045977Y-81050566D01*
X96901175Y-80786335D01*
X96722446Y-80543762D01*
X96512980Y-80327176D01*
X96276521Y-80140446D01*
X96276517Y-80140443D01*
X96276515Y-80140442D01*
X96017270Y-79986891D01*
X95739872Y-79869264D01*
X95739863Y-79869261D01*
X95449272Y-79789660D01*
X95374616Y-79779620D01*
X95150653Y-79749500D01*
X94924756Y-79749500D01*
X94924748Y-79749500D01*
X94699368Y-79764587D01*
X94699359Y-79764589D01*
X94404094Y-79824604D01*
X94119464Y-79923439D01*
X94119459Y-79923441D01*
X93850546Y-80059328D01*
X93602125Y-80229860D01*
X93378665Y-80431969D01*
X93184132Y-80662064D01*
X93022006Y-80916030D01*
X93022005Y-80916032D01*
X92925886Y-81123165D01*
X92895177Y-81189342D01*
X92895176Y-81189346D01*
X92805907Y-81477118D01*
X92755791Y-81774230D01*
X92745723Y-82075373D01*
X91658295Y-82075373D01*
X91675184Y-81850004D01*
X91675184Y-81849995D01*
X91656475Y-81600336D01*
X91656474Y-81600331D01*
X91656474Y-81600327D01*
X91600760Y-81356231D01*
X91509289Y-81123165D01*
X91384102Y-80906335D01*
X91227997Y-80710586D01*
X91227996Y-80710585D01*
X91227993Y-80710581D01*
X91044460Y-80540288D01*
X90969841Y-80489414D01*
X90837592Y-80399248D01*
X90837588Y-80399246D01*
X90837585Y-80399244D01*
X90837584Y-80399243D01*
X90612015Y-80290616D01*
X90612017Y-80290616D01*
X90372765Y-80216816D01*
X90372759Y-80216814D01*
X90125194Y-80179500D01*
X90125187Y-80179500D01*
X89874813Y-80179500D01*
X89874805Y-80179500D01*
X89627240Y-80216814D01*
X89627234Y-80216816D01*
X89387983Y-80290616D01*
X89162415Y-80399243D01*
X89162414Y-80399244D01*
X88955539Y-80540288D01*
X88772006Y-80710581D01*
X88615898Y-80906335D01*
X88490711Y-81123164D01*
X88399242Y-81356225D01*
X88399236Y-81356244D01*
X88343525Y-81600331D01*
X88343524Y-81600336D01*
X88324816Y-81849995D01*
X88324816Y-81850004D01*
X57000500Y-81850004D01*
X57000500Y-79750005D01*
X60244357Y-79750005D01*
X60264890Y-79997812D01*
X60264892Y-79997824D01*
X60325936Y-80238881D01*
X60425826Y-80466606D01*
X60561833Y-80674782D01*
X60561836Y-80674785D01*
X60730256Y-80857738D01*
X60926491Y-81010474D01*
X61145190Y-81128828D01*
X61380386Y-81209571D01*
X61625665Y-81250500D01*
X61874335Y-81250500D01*
X62119614Y-81209571D01*
X62354810Y-81128828D01*
X62573509Y-81010474D01*
X62769744Y-80857738D01*
X62938164Y-80674785D01*
X63074173Y-80466607D01*
X63174063Y-80238881D01*
X63235108Y-79997821D01*
X63236014Y-79986891D01*
X63255643Y-79750005D01*
X66744357Y-79750005D01*
X66764890Y-79997812D01*
X66764892Y-79997824D01*
X66825936Y-80238881D01*
X66925826Y-80466606D01*
X67061833Y-80674782D01*
X67061836Y-80674785D01*
X67230256Y-80857738D01*
X67426491Y-81010474D01*
X67645190Y-81128828D01*
X67880386Y-81209571D01*
X68125665Y-81250500D01*
X68374335Y-81250500D01*
X68619614Y-81209571D01*
X68854810Y-81128828D01*
X69073509Y-81010474D01*
X69269744Y-80857738D01*
X69438164Y-80674785D01*
X69574173Y-80466607D01*
X69674063Y-80238881D01*
X69735108Y-79997821D01*
X69736014Y-79986891D01*
X69755643Y-79750005D01*
X69755643Y-79749994D01*
X69735109Y-79502187D01*
X69735107Y-79502175D01*
X69696572Y-79350004D01*
X98324816Y-79350004D01*
X98343524Y-79599663D01*
X98343525Y-79599668D01*
X98399236Y-79843755D01*
X98399238Y-79843764D01*
X98399240Y-79843769D01*
X98490711Y-80076835D01*
X98615898Y-80293665D01*
X98700094Y-80399243D01*
X98772006Y-80489418D01*
X98945264Y-80650177D01*
X98955540Y-80659712D01*
X99162408Y-80800752D01*
X99162413Y-80800754D01*
X99162414Y-80800755D01*
X99162415Y-80800756D01*
X99280741Y-80857738D01*
X99387983Y-80909383D01*
X99387984Y-80909383D01*
X99387987Y-80909385D01*
X99627236Y-80983184D01*
X99627237Y-80983184D01*
X99627240Y-80983185D01*
X99874805Y-81020499D01*
X99874810Y-81020499D01*
X99874813Y-81020500D01*
X99874814Y-81020500D01*
X100125186Y-81020500D01*
X100125187Y-81020500D01*
X100125194Y-81020499D01*
X100372759Y-80983185D01*
X100372760Y-80983184D01*
X100372764Y-80983184D01*
X100612013Y-80909385D01*
X100837592Y-80800752D01*
X101044460Y-80659712D01*
X101227997Y-80489414D01*
X101384102Y-80293665D01*
X101509289Y-80076835D01*
X101600760Y-79843769D01*
X101656474Y-79599673D01*
X101656475Y-79599663D01*
X101675184Y-79350004D01*
X101675184Y-79349995D01*
X101656475Y-79100336D01*
X101656474Y-79100331D01*
X101656474Y-79100327D01*
X101600760Y-78856231D01*
X101509289Y-78623165D01*
X101384102Y-78406335D01*
X101227997Y-78210586D01*
X101227996Y-78210585D01*
X101227993Y-78210581D01*
X101044460Y-78040288D01*
X100837592Y-77899248D01*
X100837588Y-77899246D01*
X100837585Y-77899244D01*
X100837584Y-77899243D01*
X100612015Y-77790616D01*
X100612017Y-77790616D01*
X100372765Y-77716816D01*
X100372759Y-77716814D01*
X100125194Y-77679500D01*
X100125187Y-77679500D01*
X99874813Y-77679500D01*
X99874805Y-77679500D01*
X99627240Y-77716814D01*
X99627234Y-77716816D01*
X99387983Y-77790616D01*
X99162415Y-77899243D01*
X99162414Y-77899244D01*
X98955539Y-78040288D01*
X98772006Y-78210581D01*
X98615898Y-78406335D01*
X98490711Y-78623164D01*
X98399242Y-78856225D01*
X98399236Y-78856244D01*
X98343525Y-79100331D01*
X98343524Y-79100336D01*
X98324816Y-79349995D01*
X98324816Y-79350004D01*
X69696572Y-79350004D01*
X69674063Y-79261118D01*
X69574173Y-79033393D01*
X69438166Y-78825217D01*
X69416557Y-78801744D01*
X69269744Y-78642262D01*
X69073509Y-78489526D01*
X69073507Y-78489525D01*
X69073506Y-78489524D01*
X68854811Y-78371172D01*
X68854802Y-78371169D01*
X68619616Y-78290429D01*
X68374335Y-78249500D01*
X68125665Y-78249500D01*
X67880383Y-78290429D01*
X67645197Y-78371169D01*
X67645188Y-78371172D01*
X67426493Y-78489524D01*
X67230257Y-78642261D01*
X67061833Y-78825217D01*
X66925826Y-79033393D01*
X66825936Y-79261118D01*
X66764892Y-79502175D01*
X66764890Y-79502187D01*
X66744357Y-79749994D01*
X66744357Y-79750005D01*
X63255643Y-79750005D01*
X63255643Y-79749994D01*
X63235109Y-79502187D01*
X63235107Y-79502175D01*
X63174063Y-79261118D01*
X63074173Y-79033393D01*
X62938166Y-78825217D01*
X62916557Y-78801744D01*
X62769744Y-78642262D01*
X62573509Y-78489526D01*
X62573507Y-78489525D01*
X62573506Y-78489524D01*
X62354811Y-78371172D01*
X62354802Y-78371169D01*
X62119616Y-78290429D01*
X61874335Y-78249500D01*
X61625665Y-78249500D01*
X61380383Y-78290429D01*
X61145197Y-78371169D01*
X61145188Y-78371172D01*
X60926493Y-78489524D01*
X60730257Y-78642261D01*
X60561833Y-78825217D01*
X60425826Y-79033393D01*
X60325936Y-79261118D01*
X60264892Y-79502175D01*
X60264890Y-79502187D01*
X60244357Y-79749994D01*
X60244357Y-79750005D01*
X57000500Y-79750005D01*
X57000500Y-72067763D01*
X59145787Y-72067763D01*
X59175413Y-72337013D01*
X59175415Y-72337024D01*
X59243926Y-72599082D01*
X59243928Y-72599088D01*
X59349870Y-72848390D01*
X59412187Y-72950500D01*
X59490979Y-73079605D01*
X59490986Y-73079615D01*
X59664253Y-73287819D01*
X59664259Y-73287824D01*
X59714312Y-73332671D01*
X59865998Y-73468582D01*
X60091910Y-73618044D01*
X60337176Y-73733020D01*
X60337183Y-73733022D01*
X60337185Y-73733023D01*
X60596557Y-73811057D01*
X60596564Y-73811058D01*
X60596569Y-73811060D01*
X60864561Y-73850500D01*
X60864566Y-73850500D01*
X61067636Y-73850500D01*
X61119133Y-73846730D01*
X61270156Y-73835677D01*
X61382758Y-73810593D01*
X61534546Y-73776782D01*
X61534548Y-73776781D01*
X61534553Y-73776780D01*
X61787558Y-73680014D01*
X62023777Y-73547441D01*
X62238177Y-73381888D01*
X62426186Y-73186881D01*
X62583799Y-72966579D01*
X62657787Y-72822669D01*
X62707649Y-72725690D01*
X62707651Y-72725684D01*
X62707656Y-72725675D01*
X62795118Y-72469305D01*
X62844319Y-72202933D01*
X62854212Y-71932235D01*
X62824586Y-71662982D01*
X62756072Y-71400912D01*
X62650130Y-71151610D01*
X62509018Y-70920390D01*
X62419747Y-70813119D01*
X62335746Y-70712180D01*
X62335740Y-70712175D01*
X62134002Y-70531418D01*
X61908092Y-70381957D01*
X61908090Y-70381956D01*
X61662824Y-70266980D01*
X61662819Y-70266978D01*
X61662814Y-70266976D01*
X61403442Y-70188942D01*
X61403428Y-70188939D01*
X61287791Y-70171921D01*
X61135439Y-70149500D01*
X60932369Y-70149500D01*
X60932364Y-70149500D01*
X60729844Y-70164323D01*
X60729831Y-70164325D01*
X60465453Y-70223217D01*
X60465446Y-70223220D01*
X60212439Y-70319987D01*
X59976226Y-70452557D01*
X59976224Y-70452558D01*
X59976223Y-70452559D01*
X59941303Y-70479523D01*
X59761822Y-70618112D01*
X59573822Y-70813109D01*
X59573816Y-70813116D01*
X59416202Y-71033419D01*
X59416199Y-71033424D01*
X59292350Y-71274309D01*
X59292343Y-71274327D01*
X59204884Y-71530685D01*
X59204881Y-71530699D01*
X59155681Y-71797068D01*
X59155680Y-71797075D01*
X59145787Y-72067763D01*
X57000500Y-72067763D01*
X57000500Y-70130003D01*
X69034435Y-70130003D01*
X69054630Y-70309249D01*
X69054631Y-70309254D01*
X69114211Y-70479523D01*
X69196047Y-70609763D01*
X69210184Y-70632262D01*
X69337738Y-70759816D01*
X69490478Y-70855789D01*
X69660745Y-70915368D01*
X69660750Y-70915369D01*
X69839996Y-70935565D01*
X69840000Y-70935565D01*
X69840004Y-70935565D01*
X70019249Y-70915369D01*
X70019252Y-70915368D01*
X70019255Y-70915368D01*
X70189522Y-70855789D01*
X70342262Y-70759816D01*
X70469816Y-70632262D01*
X70483416Y-70610616D01*
X70535746Y-70564327D01*
X70604800Y-70553677D01*
X70668649Y-70582050D01*
X70673292Y-70586197D01*
X70726371Y-70636040D01*
X70735864Y-70644955D01*
X70735865Y-70644955D01*
X70735868Y-70644958D01*
X70875678Y-70721818D01*
X70875682Y-70721820D01*
X71030223Y-70761500D01*
X71030226Y-70761500D01*
X71149728Y-70761500D01*
X71149730Y-70761500D01*
X71149735Y-70761499D01*
X71149739Y-70761499D01*
X71163068Y-70759815D01*
X71268296Y-70746522D01*
X71416645Y-70687786D01*
X71545727Y-70594002D01*
X71647431Y-70471064D01*
X71715366Y-70326695D01*
X71745263Y-70169967D01*
X71735244Y-70010728D01*
X71685940Y-69858983D01*
X71685938Y-69858980D01*
X71685938Y-69858979D01*
X71600446Y-69724267D01*
X71484135Y-69615044D01*
X71484131Y-69615041D01*
X71344321Y-69538181D01*
X71344313Y-69538178D01*
X71189779Y-69498500D01*
X71189777Y-69498500D01*
X71070270Y-69498500D01*
X71070260Y-69498500D01*
X70951704Y-69513478D01*
X70951702Y-69513478D01*
X70803356Y-69572213D01*
X70803351Y-69572216D01*
X70674270Y-69666000D01*
X70670568Y-69669477D01*
X70608221Y-69701016D01*
X70538721Y-69693841D01*
X70484133Y-69650230D01*
X70480696Y-69645053D01*
X70469817Y-69627739D01*
X70342262Y-69500184D01*
X70189523Y-69404211D01*
X70019254Y-69344631D01*
X70019249Y-69344630D01*
X69840004Y-69324435D01*
X69839996Y-69324435D01*
X69660750Y-69344630D01*
X69660745Y-69344631D01*
X69490476Y-69404211D01*
X69337737Y-69500184D01*
X69210184Y-69627737D01*
X69114211Y-69780476D01*
X69054631Y-69950745D01*
X69054630Y-69950750D01*
X69034435Y-70129996D01*
X69034435Y-70130003D01*
X57000500Y-70130003D01*
X57000500Y-67590003D01*
X69034435Y-67590003D01*
X69054630Y-67769249D01*
X69054631Y-67769254D01*
X69114211Y-67939523D01*
X69153633Y-68002262D01*
X69210184Y-68092262D01*
X69337738Y-68219816D01*
X69347244Y-68225789D01*
X69474206Y-68305565D01*
X69490478Y-68315789D01*
X69660745Y-68375368D01*
X69660750Y-68375369D01*
X69839996Y-68395565D01*
X69840000Y-68395565D01*
X69840004Y-68395565D01*
X70019249Y-68375369D01*
X70019252Y-68375368D01*
X70019255Y-68375368D01*
X70189522Y-68315789D01*
X70342262Y-68219816D01*
X70469816Y-68092262D01*
X70565789Y-67939522D01*
X70625368Y-67769255D01*
X70625369Y-67769249D01*
X70645565Y-67590003D01*
X70645565Y-67589996D01*
X70625369Y-67410750D01*
X70625368Y-67410745D01*
X70593877Y-67320750D01*
X70565789Y-67240478D01*
X70469816Y-67087738D01*
X70342262Y-66960184D01*
X70189523Y-66864211D01*
X70019254Y-66804631D01*
X70019249Y-66804630D01*
X69840004Y-66784435D01*
X69839996Y-66784435D01*
X69660750Y-66804630D01*
X69660745Y-66804631D01*
X69490476Y-66864211D01*
X69337737Y-66960184D01*
X69210184Y-67087737D01*
X69114211Y-67240476D01*
X69054631Y-67410745D01*
X69054630Y-67410750D01*
X69034435Y-67589996D01*
X69034435Y-67590003D01*
X57000500Y-67590003D01*
X57000500Y-62941624D01*
X59400784Y-62941624D01*
X59410685Y-63174700D01*
X59410686Y-63174709D01*
X59459836Y-63402766D01*
X59459837Y-63402769D01*
X59546819Y-63619231D01*
X59546821Y-63619235D01*
X59669138Y-63817891D01*
X59823269Y-63993018D01*
X59863291Y-64025334D01*
X59903084Y-64082764D01*
X59905511Y-64152592D01*
X59869800Y-64212646D01*
X59837800Y-64234191D01*
X59835668Y-64235185D01*
X59686342Y-64327289D01*
X59562289Y-64451342D01*
X59470187Y-64600663D01*
X59470185Y-64600668D01*
X59453680Y-64650478D01*
X59415001Y-64767203D01*
X59415001Y-64767204D01*
X59415000Y-64767204D01*
X59404500Y-64869983D01*
X59404500Y-66210001D01*
X59404501Y-66210018D01*
X59415000Y-66312796D01*
X59415001Y-66312799D01*
X59459934Y-66448395D01*
X59470186Y-66479334D01*
X59562288Y-66628656D01*
X59686344Y-66752712D01*
X59835666Y-66844814D01*
X60002203Y-66899999D01*
X60104991Y-66910500D01*
X61895008Y-66910499D01*
X61997797Y-66899999D01*
X62164334Y-66844814D01*
X62313656Y-66752712D01*
X62437712Y-66628656D01*
X62529814Y-66479334D01*
X62584999Y-66312797D01*
X62595500Y-66210009D01*
X62595499Y-65000003D01*
X69394435Y-65000003D01*
X69414630Y-65179249D01*
X69414631Y-65179254D01*
X69474211Y-65349523D01*
X69496298Y-65384674D01*
X69570184Y-65502262D01*
X69697738Y-65629816D01*
X69850478Y-65725789D01*
X70020745Y-65785368D01*
X70020750Y-65785369D01*
X70199996Y-65805565D01*
X70200000Y-65805565D01*
X70200004Y-65805565D01*
X70379249Y-65785369D01*
X70379252Y-65785368D01*
X70379255Y-65785368D01*
X70549522Y-65725789D01*
X70702262Y-65629816D01*
X70829816Y-65502262D01*
X70925789Y-65349522D01*
X70985368Y-65179255D01*
X71002485Y-65027340D01*
X71005565Y-65000003D01*
X71005565Y-64999996D01*
X70985369Y-64820750D01*
X70985368Y-64820745D01*
X70925788Y-64650476D01*
X70829815Y-64497737D01*
X70702262Y-64370184D01*
X70549523Y-64274211D01*
X70379254Y-64214631D01*
X70379249Y-64214630D01*
X70200004Y-64194435D01*
X70199996Y-64194435D01*
X70020750Y-64214630D01*
X70020745Y-64214631D01*
X69850476Y-64274211D01*
X69697737Y-64370184D01*
X69570184Y-64497737D01*
X69474211Y-64650476D01*
X69414631Y-64820745D01*
X69414630Y-64820750D01*
X69394435Y-64999996D01*
X69394435Y-65000003D01*
X62595499Y-65000003D01*
X62595499Y-64869992D01*
X62584999Y-64767203D01*
X62529814Y-64600666D01*
X62437712Y-64451344D01*
X62313656Y-64327288D01*
X62164334Y-64235186D01*
X62164326Y-64235181D01*
X62162058Y-64234124D01*
X62160763Y-64232984D01*
X62158187Y-64231395D01*
X62158458Y-64230954D01*
X62109619Y-64187951D01*
X62090468Y-64120757D01*
X62110685Y-64053876D01*
X62128653Y-64032232D01*
X62257516Y-63908728D01*
X62396240Y-63721161D01*
X62501270Y-63512847D01*
X62569583Y-63289780D01*
X62599216Y-63058376D01*
X62589314Y-62825293D01*
X62540164Y-62597235D01*
X62505111Y-62510003D01*
X69034435Y-62510003D01*
X69054630Y-62689245D01*
X69054631Y-62689254D01*
X69114211Y-62859523D01*
X69165799Y-62941624D01*
X69210184Y-63012262D01*
X69337738Y-63139816D01*
X69490478Y-63235789D01*
X69644764Y-63289776D01*
X69660745Y-63295368D01*
X69660750Y-63295369D01*
X69839996Y-63315565D01*
X69840000Y-63315565D01*
X69840004Y-63315565D01*
X70019249Y-63295369D01*
X70019252Y-63295368D01*
X70019255Y-63295368D01*
X70189522Y-63235789D01*
X70342262Y-63139816D01*
X70469816Y-63012262D01*
X70565789Y-62859522D01*
X70625368Y-62689255D01*
X70625368Y-62689252D01*
X70625370Y-62689245D01*
X70645565Y-62510003D01*
X70645565Y-62509996D01*
X70625369Y-62330750D01*
X70625368Y-62330745D01*
X70607205Y-62278839D01*
X70565789Y-62160478D01*
X70469816Y-62007738D01*
X70342262Y-61880184D01*
X70340741Y-61879228D01*
X70189523Y-61784211D01*
X70019254Y-61724631D01*
X70019249Y-61724630D01*
X69840004Y-61704435D01*
X69839996Y-61704435D01*
X69660750Y-61724630D01*
X69660745Y-61724631D01*
X69490476Y-61784211D01*
X69337737Y-61880184D01*
X69210184Y-62007737D01*
X69114211Y-62160476D01*
X69054631Y-62330745D01*
X69054630Y-62330750D01*
X69034435Y-62509996D01*
X69034435Y-62510003D01*
X62505111Y-62510003D01*
X62453179Y-62380765D01*
X62330862Y-62182109D01*
X62176731Y-62006982D01*
X62176729Y-62006980D01*
X62176726Y-62006977D01*
X61995226Y-61860426D01*
X61995216Y-61860419D01*
X61954408Y-61837622D01*
X61905482Y-61787742D01*
X61891290Y-61719329D01*
X61916338Y-61654104D01*
X61945447Y-61626633D01*
X62088772Y-61529763D01*
X62257139Y-61368396D01*
X62257140Y-61368395D01*
X62395810Y-61180902D01*
X62500800Y-60972665D01*
X62500803Y-60972659D01*
X62504680Y-60960000D01*
X61325781Y-60960000D01*
X61424359Y-60884359D01*
X61519731Y-60760067D01*
X61579685Y-60615326D01*
X61600134Y-60460000D01*
X61579685Y-60304674D01*
X61519731Y-60159933D01*
X61424359Y-60035641D01*
X61300067Y-59940269D01*
X61155326Y-59880315D01*
X61038997Y-59865000D01*
X60961003Y-59865000D01*
X60844674Y-59880315D01*
X60699933Y-59940269D01*
X60575641Y-60035641D01*
X60480269Y-60159933D01*
X60420315Y-60304674D01*
X60399866Y-60460000D01*
X60420315Y-60615326D01*
X60480269Y-60760067D01*
X60575641Y-60884359D01*
X60674219Y-60960000D01*
X59499447Y-60960000D01*
X59547267Y-61079005D01*
X59669541Y-61277592D01*
X59823617Y-61452656D01*
X59823621Y-61452660D01*
X60005054Y-61599157D01*
X60005060Y-61599162D01*
X60045565Y-61621789D01*
X60094491Y-61671669D01*
X60108684Y-61740082D01*
X60083637Y-61805308D01*
X60054529Y-61832778D01*
X59910907Y-61929850D01*
X59742483Y-62091272D01*
X59742482Y-62091273D01*
X59603762Y-62278834D01*
X59498733Y-62487147D01*
X59498730Y-62487153D01*
X59430416Y-62710223D01*
X59400784Y-62941624D01*
X57000500Y-62941624D01*
X57000500Y-59960000D01*
X59495320Y-59960000D01*
X60500000Y-59960000D01*
X60500000Y-59117159D01*
X61500000Y-59117159D01*
X61500000Y-59960000D01*
X62500552Y-59960000D01*
X62452732Y-59840994D01*
X62330458Y-59642407D01*
X62176382Y-59467343D01*
X62176378Y-59467339D01*
X61994945Y-59320842D01*
X61994939Y-59320838D01*
X61791346Y-59207104D01*
X61571461Y-59129414D01*
X61571451Y-59129411D01*
X61500000Y-59117159D01*
X60500000Y-59117159D01*
X60500000Y-59115924D01*
X60316945Y-59163589D01*
X60316939Y-59163591D01*
X60104447Y-59259643D01*
X60104439Y-59259648D01*
X59911228Y-59390235D01*
X59742860Y-59551603D01*
X59742859Y-59551604D01*
X59604189Y-59739097D01*
X59499199Y-59947334D01*
X59499196Y-59947340D01*
X59495320Y-59960000D01*
X57000500Y-59960000D01*
X57000500Y-52941624D01*
X59400784Y-52941624D01*
X59410685Y-53174700D01*
X59410686Y-53174709D01*
X59459836Y-53402766D01*
X59459837Y-53402769D01*
X59528658Y-53574035D01*
X59546821Y-53619235D01*
X59669138Y-53817891D01*
X59823269Y-53993018D01*
X59863291Y-54025334D01*
X59903084Y-54082764D01*
X59905511Y-54152592D01*
X59869800Y-54212646D01*
X59837800Y-54234191D01*
X59835668Y-54235185D01*
X59686342Y-54327289D01*
X59562289Y-54451342D01*
X59470187Y-54600663D01*
X59470186Y-54600666D01*
X59415001Y-54767203D01*
X59415001Y-54767204D01*
X59415000Y-54767204D01*
X59404500Y-54869983D01*
X59404500Y-56210001D01*
X59404501Y-56210018D01*
X59415000Y-56312796D01*
X59415001Y-56312799D01*
X59459934Y-56448395D01*
X59470186Y-56479334D01*
X59562288Y-56628656D01*
X59686344Y-56752712D01*
X59835666Y-56844814D01*
X60002203Y-56899999D01*
X60104991Y-56910500D01*
X61895008Y-56910499D01*
X61997797Y-56899999D01*
X62164334Y-56844814D01*
X62313656Y-56752712D01*
X62437712Y-56628656D01*
X62529814Y-56479334D01*
X62584999Y-56312797D01*
X62595500Y-56210009D01*
X62595499Y-54869992D01*
X62584999Y-54767203D01*
X62529814Y-54600666D01*
X62437712Y-54451344D01*
X62313656Y-54327288D01*
X62164334Y-54235186D01*
X62164326Y-54235181D01*
X62162058Y-54234124D01*
X62160763Y-54232984D01*
X62158187Y-54231395D01*
X62158458Y-54230954D01*
X62109619Y-54187951D01*
X62090468Y-54120757D01*
X62110685Y-54053876D01*
X62128653Y-54032232D01*
X62257516Y-53908728D01*
X62396240Y-53721161D01*
X62501270Y-53512847D01*
X62569583Y-53289780D01*
X62599216Y-53058376D01*
X62589314Y-52825293D01*
X62540164Y-52597235D01*
X62460909Y-52400003D01*
X69394435Y-52400003D01*
X69414630Y-52579249D01*
X69414631Y-52579254D01*
X69474211Y-52749523D01*
X69545931Y-52863664D01*
X69570184Y-52902262D01*
X69697738Y-53029816D01*
X69754241Y-53065319D01*
X69830404Y-53113176D01*
X69850478Y-53125789D01*
X69990258Y-53174700D01*
X70020745Y-53185368D01*
X70020750Y-53185369D01*
X70199996Y-53205565D01*
X70200000Y-53205565D01*
X70200004Y-53205565D01*
X70379249Y-53185369D01*
X70379252Y-53185368D01*
X70379255Y-53185368D01*
X70549522Y-53125789D01*
X70702262Y-53029816D01*
X70829816Y-52902262D01*
X70925789Y-52749522D01*
X70985368Y-52579255D01*
X70985369Y-52579249D01*
X71005565Y-52400003D01*
X71005565Y-52400000D01*
X71659341Y-52400000D01*
X71679936Y-52635403D01*
X71679938Y-52635413D01*
X71741094Y-52863655D01*
X71741096Y-52863659D01*
X71741097Y-52863663D01*
X71771945Y-52929816D01*
X71840965Y-53077830D01*
X71840967Y-53077834D01*
X71924501Y-53197132D01*
X71976505Y-53271401D01*
X72143599Y-53438495D01*
X72240384Y-53506265D01*
X72337165Y-53574032D01*
X72337167Y-53574033D01*
X72337170Y-53574035D01*
X72551337Y-53673903D01*
X72779592Y-53735063D01*
X72948136Y-53749809D01*
X73014999Y-53755659D01*
X73015000Y-53755659D01*
X73015001Y-53755659D01*
X73081864Y-53749809D01*
X73250408Y-53735063D01*
X73478663Y-53673903D01*
X73692830Y-53574035D01*
X73886401Y-53438495D01*
X74053495Y-53271401D01*
X74167871Y-53108055D01*
X74222447Y-53064431D01*
X74291945Y-53057237D01*
X74354300Y-53088760D01*
X74370682Y-53107576D01*
X74397702Y-53145779D01*
X74499593Y-53289845D01*
X76088181Y-54878432D01*
X76121666Y-54939755D01*
X76124500Y-54966113D01*
X76124500Y-57472629D01*
X76104815Y-57539668D01*
X76052011Y-57585423D01*
X75982853Y-57595367D01*
X75934528Y-57577623D01*
X75849523Y-57524211D01*
X75679254Y-57464631D01*
X75679249Y-57464630D01*
X75500004Y-57444435D01*
X75499996Y-57444435D01*
X75320750Y-57464630D01*
X75320745Y-57464631D01*
X75150476Y-57524211D01*
X74997737Y-57620184D01*
X74870184Y-57747737D01*
X74774211Y-57900476D01*
X74714631Y-58070745D01*
X74714630Y-58070750D01*
X74694435Y-58249996D01*
X74694435Y-58250003D01*
X74714630Y-58429249D01*
X74714631Y-58429254D01*
X74774211Y-58599523D01*
X74870184Y-58752262D01*
X74997738Y-58879816D01*
X75150478Y-58975789D01*
X75297888Y-59027370D01*
X75320745Y-59035368D01*
X75320750Y-59035369D01*
X75499996Y-59055565D01*
X75500000Y-59055565D01*
X75500004Y-59055565D01*
X75679249Y-59035369D01*
X75679252Y-59035368D01*
X75679255Y-59035368D01*
X75849522Y-58975789D01*
X75934528Y-58922375D01*
X76001764Y-58903376D01*
X76068600Y-58923744D01*
X76113814Y-58977011D01*
X76124500Y-59027370D01*
X76124500Y-73481773D01*
X76104815Y-73548812D01*
X76082259Y-73575001D01*
X75905241Y-73730241D01*
X75710728Y-73952041D01*
X75546828Y-74197334D01*
X75416349Y-74461919D01*
X75321521Y-74741269D01*
X75321518Y-74741283D01*
X75263968Y-75030609D01*
X75263964Y-75030636D01*
X75244671Y-75324992D01*
X75244671Y-75325007D01*
X75263964Y-75619363D01*
X75263965Y-75619373D01*
X75263966Y-75619380D01*
X75263968Y-75619390D01*
X75321518Y-75908716D01*
X75321521Y-75908730D01*
X75416349Y-76188080D01*
X75546825Y-76452660D01*
X75546829Y-76452667D01*
X75710725Y-76697955D01*
X75905241Y-76919758D01*
X76127044Y-77114274D01*
X76229125Y-77182482D01*
X76372335Y-77278172D01*
X76636923Y-77408652D01*
X76916278Y-77503481D01*
X77205620Y-77561034D01*
X77233888Y-77562886D01*
X77499993Y-77580329D01*
X77500000Y-77580329D01*
X77500007Y-77580329D01*
X77735675Y-77564881D01*
X77794380Y-77561034D01*
X77936795Y-77532706D01*
X78087703Y-77502690D01*
X78087828Y-77503320D01*
X78113039Y-77500000D01*
X80441597Y-77500000D01*
X80501025Y-77515168D01*
X80507671Y-77518797D01*
X80642517Y-77569091D01*
X80642516Y-77569091D01*
X80649444Y-77569835D01*
X80702127Y-77575500D01*
X84297872Y-77575499D01*
X84357483Y-77569091D01*
X84492331Y-77518796D01*
X84607546Y-77432546D01*
X84693796Y-77317331D01*
X84744091Y-77182483D01*
X84750500Y-77122873D01*
X84750499Y-73527128D01*
X84745299Y-73478757D01*
X84744091Y-73467516D01*
X84693797Y-73332671D01*
X84693793Y-73332664D01*
X84607547Y-73217455D01*
X84607544Y-73217452D01*
X84492335Y-73131206D01*
X84492328Y-73131202D01*
X84357482Y-73080908D01*
X84357483Y-73080908D01*
X84297883Y-73074501D01*
X84297881Y-73074500D01*
X84297873Y-73074500D01*
X84297865Y-73074500D01*
X83999500Y-73074500D01*
X83932461Y-73054815D01*
X83886706Y-73002011D01*
X83875500Y-72950500D01*
X83875500Y-72067763D01*
X97145787Y-72067763D01*
X97175413Y-72337013D01*
X97175415Y-72337024D01*
X97243926Y-72599082D01*
X97243928Y-72599088D01*
X97349870Y-72848390D01*
X97412187Y-72950500D01*
X97490979Y-73079605D01*
X97490986Y-73079615D01*
X97664253Y-73287819D01*
X97664259Y-73287824D01*
X97714312Y-73332671D01*
X97865998Y-73468582D01*
X98091910Y-73618044D01*
X98337176Y-73733020D01*
X98337183Y-73733022D01*
X98337185Y-73733023D01*
X98596557Y-73811057D01*
X98596564Y-73811058D01*
X98596569Y-73811060D01*
X98864561Y-73850500D01*
X98864566Y-73850500D01*
X99067636Y-73850500D01*
X99119133Y-73846730D01*
X99270156Y-73835677D01*
X99382758Y-73810593D01*
X99534546Y-73776782D01*
X99534548Y-73776781D01*
X99534553Y-73776780D01*
X99787558Y-73680014D01*
X100023777Y-73547441D01*
X100238177Y-73381888D01*
X100426186Y-73186881D01*
X100583799Y-72966579D01*
X100657787Y-72822669D01*
X100707649Y-72725690D01*
X100707651Y-72725684D01*
X100707656Y-72725675D01*
X100795118Y-72469305D01*
X100844319Y-72202933D01*
X100854212Y-71932235D01*
X100824586Y-71662982D01*
X100756072Y-71400912D01*
X100650130Y-71151610D01*
X100509018Y-70920390D01*
X100419747Y-70813119D01*
X100335746Y-70712180D01*
X100335740Y-70712175D01*
X100134002Y-70531418D01*
X99908092Y-70381957D01*
X99908090Y-70381956D01*
X99662824Y-70266980D01*
X99662819Y-70266978D01*
X99662814Y-70266976D01*
X99403442Y-70188942D01*
X99403428Y-70188939D01*
X99287791Y-70171921D01*
X99135439Y-70149500D01*
X98932369Y-70149500D01*
X98932364Y-70149500D01*
X98729844Y-70164323D01*
X98729831Y-70164325D01*
X98465453Y-70223217D01*
X98465446Y-70223220D01*
X98212439Y-70319987D01*
X97976226Y-70452557D01*
X97976224Y-70452558D01*
X97976223Y-70452559D01*
X97941303Y-70479523D01*
X97761822Y-70618112D01*
X97573822Y-70813109D01*
X97573816Y-70813116D01*
X97416202Y-71033419D01*
X97416199Y-71033424D01*
X97292350Y-71274309D01*
X97292343Y-71274327D01*
X97204884Y-71530685D01*
X97204881Y-71530699D01*
X97155681Y-71797068D01*
X97155680Y-71797075D01*
X97145787Y-72067763D01*
X83875500Y-72067763D01*
X83875500Y-70090033D01*
X88254737Y-70090033D01*
X88264756Y-70249273D01*
X88314061Y-70401020D01*
X88399553Y-70535732D01*
X88515864Y-70644955D01*
X88515868Y-70644958D01*
X88655678Y-70721818D01*
X88655682Y-70721820D01*
X88810223Y-70761500D01*
X88810226Y-70761500D01*
X88929728Y-70761500D01*
X88929730Y-70761500D01*
X88929735Y-70761499D01*
X88929739Y-70761499D01*
X88943068Y-70759815D01*
X89048296Y-70746522D01*
X89196645Y-70687786D01*
X89325727Y-70594002D01*
X89325730Y-70593997D01*
X89329427Y-70590527D01*
X89391772Y-70558985D01*
X89461272Y-70566156D01*
X89515863Y-70609763D01*
X89519285Y-70614916D01*
X89530184Y-70632262D01*
X89657738Y-70759816D01*
X89810478Y-70855789D01*
X89980745Y-70915368D01*
X89980750Y-70915369D01*
X90159996Y-70935565D01*
X90160000Y-70935565D01*
X90160004Y-70935565D01*
X90339249Y-70915369D01*
X90339252Y-70915368D01*
X90339255Y-70915368D01*
X90509522Y-70855789D01*
X90662262Y-70759816D01*
X90789816Y-70632262D01*
X90885789Y-70479522D01*
X90945368Y-70309255D01*
X90945369Y-70309249D01*
X90965565Y-70130003D01*
X90965565Y-70129996D01*
X90945369Y-69950750D01*
X90945368Y-69950745D01*
X90888749Y-69788938D01*
X90885789Y-69780478D01*
X90789816Y-69627738D01*
X90662262Y-69500184D01*
X90659582Y-69498500D01*
X90509523Y-69404211D01*
X90339254Y-69344631D01*
X90339249Y-69344630D01*
X90160004Y-69324435D01*
X90159996Y-69324435D01*
X89980750Y-69344630D01*
X89980745Y-69344631D01*
X89810476Y-69404211D01*
X89657737Y-69500184D01*
X89530184Y-69627737D01*
X89530182Y-69627740D01*
X89516583Y-69649383D01*
X89464248Y-69695674D01*
X89395194Y-69706321D01*
X89331346Y-69677945D01*
X89326707Y-69673802D01*
X89264139Y-69615048D01*
X89264131Y-69615041D01*
X89124321Y-69538181D01*
X89124313Y-69538178D01*
X88969779Y-69498500D01*
X88969777Y-69498500D01*
X88850270Y-69498500D01*
X88850260Y-69498500D01*
X88731704Y-69513478D01*
X88731702Y-69513478D01*
X88583356Y-69572213D01*
X88583351Y-69572216D01*
X88506930Y-69627740D01*
X88477142Y-69649383D01*
X88454272Y-69665999D01*
X88352567Y-69788938D01*
X88284634Y-69933304D01*
X88284634Y-69933305D01*
X88254737Y-70090030D01*
X88254737Y-70090033D01*
X83875500Y-70090033D01*
X83875500Y-67500003D01*
X85194435Y-67500003D01*
X85214630Y-67679249D01*
X85214631Y-67679254D01*
X85274211Y-67849523D01*
X85330762Y-67939522D01*
X85370184Y-68002262D01*
X85497738Y-68129816D01*
X85650478Y-68225789D01*
X85820745Y-68285368D01*
X85820750Y-68285369D01*
X85999996Y-68305565D01*
X86000000Y-68305565D01*
X86000004Y-68305565D01*
X86179249Y-68285369D01*
X86179252Y-68285368D01*
X86179255Y-68285368D01*
X86349522Y-68225789D01*
X86502262Y-68129816D01*
X86629816Y-68002262D01*
X86725789Y-67849522D01*
X86785368Y-67679255D01*
X86785369Y-67679249D01*
X86795425Y-67590003D01*
X89354435Y-67590003D01*
X89374630Y-67769249D01*
X89374631Y-67769254D01*
X89434211Y-67939523D01*
X89473633Y-68002262D01*
X89530184Y-68092262D01*
X89657738Y-68219816D01*
X89667244Y-68225789D01*
X89794206Y-68305565D01*
X89810478Y-68315789D01*
X89980745Y-68375368D01*
X89980750Y-68375369D01*
X90159996Y-68395565D01*
X90160000Y-68395565D01*
X90160004Y-68395565D01*
X90339249Y-68375369D01*
X90339252Y-68375368D01*
X90339255Y-68375368D01*
X90509522Y-68315789D01*
X90662262Y-68219816D01*
X90789816Y-68092262D01*
X90885789Y-67939522D01*
X90945368Y-67769255D01*
X90945369Y-67769249D01*
X90965565Y-67590003D01*
X90965565Y-67589996D01*
X90955425Y-67500003D01*
X92694435Y-67500003D01*
X92714630Y-67679249D01*
X92714631Y-67679254D01*
X92774211Y-67849523D01*
X92830762Y-67939522D01*
X92870184Y-68002262D01*
X92997738Y-68129816D01*
X93150478Y-68225789D01*
X93320745Y-68285368D01*
X93320750Y-68285369D01*
X93499996Y-68305565D01*
X93500000Y-68305565D01*
X93500004Y-68305565D01*
X93679249Y-68285369D01*
X93679252Y-68285368D01*
X93679255Y-68285368D01*
X93849522Y-68225789D01*
X94002262Y-68129816D01*
X94129816Y-68002262D01*
X94225789Y-67849522D01*
X94285368Y-67679255D01*
X94285369Y-67679249D01*
X94305565Y-67500003D01*
X94305565Y-67499996D01*
X94285369Y-67320750D01*
X94285368Y-67320745D01*
X94225788Y-67150476D01*
X94129815Y-66997737D01*
X94002262Y-66870184D01*
X93849523Y-66774211D01*
X93679254Y-66714631D01*
X93679249Y-66714630D01*
X93500004Y-66694435D01*
X93499996Y-66694435D01*
X93320750Y-66714630D01*
X93320745Y-66714631D01*
X93150476Y-66774211D01*
X92997737Y-66870184D01*
X92870184Y-66997737D01*
X92774211Y-67150476D01*
X92714631Y-67320745D01*
X92714630Y-67320750D01*
X92694435Y-67499996D01*
X92694435Y-67500003D01*
X90955425Y-67500003D01*
X90945369Y-67410750D01*
X90945368Y-67410745D01*
X90913877Y-67320750D01*
X90885789Y-67240478D01*
X90789816Y-67087738D01*
X90662262Y-66960184D01*
X90509523Y-66864211D01*
X90339254Y-66804631D01*
X90339249Y-66804630D01*
X90160004Y-66784435D01*
X90159996Y-66784435D01*
X89980750Y-66804630D01*
X89980745Y-66804631D01*
X89810476Y-66864211D01*
X89657737Y-66960184D01*
X89530184Y-67087737D01*
X89434211Y-67240476D01*
X89374631Y-67410745D01*
X89374630Y-67410750D01*
X89354435Y-67589996D01*
X89354435Y-67590003D01*
X86795425Y-67590003D01*
X86805565Y-67500003D01*
X86805565Y-67499996D01*
X86785369Y-67320750D01*
X86785368Y-67320745D01*
X86725788Y-67150476D01*
X86629815Y-66997737D01*
X86502262Y-66870184D01*
X86349523Y-66774211D01*
X86179254Y-66714631D01*
X86179249Y-66714630D01*
X86000004Y-66694435D01*
X85999996Y-66694435D01*
X85820750Y-66714630D01*
X85820745Y-66714631D01*
X85650476Y-66774211D01*
X85497737Y-66870184D01*
X85370184Y-66997737D01*
X85274211Y-67150476D01*
X85214631Y-67320745D01*
X85214630Y-67320750D01*
X85194435Y-67499996D01*
X85194435Y-67500003D01*
X83875500Y-67500003D01*
X83875500Y-66040000D01*
X97499447Y-66040000D01*
X97547267Y-66159005D01*
X97669541Y-66357592D01*
X97823617Y-66532656D01*
X97823621Y-66532660D01*
X98005054Y-66679157D01*
X98005060Y-66679161D01*
X98208655Y-66792896D01*
X98428535Y-66870584D01*
X98428539Y-66870585D01*
X98500000Y-66882838D01*
X98500000Y-66040000D01*
X97499447Y-66040000D01*
X83875500Y-66040000D01*
X83875500Y-65000003D01*
X88994435Y-65000003D01*
X89014630Y-65179249D01*
X89014631Y-65179254D01*
X89074211Y-65349523D01*
X89096298Y-65384674D01*
X89170184Y-65502262D01*
X89297738Y-65629816D01*
X89450478Y-65725789D01*
X89620745Y-65785368D01*
X89620750Y-65785369D01*
X89799996Y-65805565D01*
X89800000Y-65805565D01*
X89800004Y-65805565D01*
X89979249Y-65785369D01*
X89979252Y-65785368D01*
X89979255Y-65785368D01*
X90149522Y-65725789D01*
X90302262Y-65629816D01*
X90429816Y-65502262D01*
X90525789Y-65349522D01*
X90585368Y-65179255D01*
X90602485Y-65027340D01*
X90605565Y-65000003D01*
X90605565Y-64999996D01*
X90585369Y-64820750D01*
X90585368Y-64820745D01*
X90525788Y-64650476D01*
X90429815Y-64497737D01*
X90302262Y-64370184D01*
X90149523Y-64274211D01*
X89979254Y-64214631D01*
X89979249Y-64214630D01*
X89800004Y-64194435D01*
X89799996Y-64194435D01*
X89620750Y-64214630D01*
X89620745Y-64214631D01*
X89450476Y-64274211D01*
X89297737Y-64370184D01*
X89170184Y-64497737D01*
X89074211Y-64650476D01*
X89014631Y-64820745D01*
X89014630Y-64820750D01*
X88994435Y-64999996D01*
X88994435Y-65000003D01*
X83875500Y-65000003D01*
X83875500Y-62941624D01*
X97400784Y-62941624D01*
X97410685Y-63174700D01*
X97410686Y-63174709D01*
X97459836Y-63402766D01*
X97459837Y-63402769D01*
X97546819Y-63619231D01*
X97546821Y-63619235D01*
X97669138Y-63817891D01*
X97749083Y-63908726D01*
X97823270Y-63993019D01*
X97823273Y-63993022D01*
X98004773Y-64139573D01*
X98004779Y-64139578D01*
X98045590Y-64162376D01*
X98094517Y-64212256D01*
X98108709Y-64280669D01*
X98083661Y-64345895D01*
X98054553Y-64373365D01*
X97911228Y-64470235D01*
X97742860Y-64631603D01*
X97742859Y-64631604D01*
X97604189Y-64819097D01*
X97499199Y-65027334D01*
X97499196Y-65027340D01*
X97495320Y-65040000D01*
X98674219Y-65040000D01*
X98575641Y-65115641D01*
X98480269Y-65239933D01*
X98420315Y-65384674D01*
X98399866Y-65540000D01*
X98420315Y-65695326D01*
X98480269Y-65840067D01*
X98575641Y-65964359D01*
X98699933Y-66059731D01*
X98844674Y-66119685D01*
X98961003Y-66135000D01*
X99038997Y-66135000D01*
X99155326Y-66119685D01*
X99300067Y-66059731D01*
X99325781Y-66040000D01*
X99500000Y-66040000D01*
X99500000Y-66884074D01*
X99683051Y-66836412D01*
X99895552Y-66740356D01*
X99895560Y-66740351D01*
X100088771Y-66609764D01*
X100257139Y-66448396D01*
X100257140Y-66448395D01*
X100395810Y-66260902D01*
X100500800Y-66052665D01*
X100500803Y-66052659D01*
X100504680Y-66040000D01*
X99500000Y-66040000D01*
X99325781Y-66040000D01*
X99424359Y-65964359D01*
X99519731Y-65840067D01*
X99579685Y-65695326D01*
X99600134Y-65540000D01*
X99579685Y-65384674D01*
X99519731Y-65239933D01*
X99424359Y-65115641D01*
X99325781Y-65040000D01*
X100500552Y-65040000D01*
X100452732Y-64920994D01*
X100330458Y-64722407D01*
X100176382Y-64547343D01*
X100176378Y-64547339D01*
X99994945Y-64400842D01*
X99994935Y-64400835D01*
X99954433Y-64378209D01*
X99905507Y-64328329D01*
X99891315Y-64259916D01*
X99916363Y-64194691D01*
X99945469Y-64167222D01*
X100089088Y-64070153D01*
X100257516Y-63908728D01*
X100396240Y-63721161D01*
X100501270Y-63512847D01*
X100569583Y-63289780D01*
X100599216Y-63058376D01*
X100589314Y-62825293D01*
X100540164Y-62597235D01*
X100453179Y-62380765D01*
X100330862Y-62182109D01*
X100176731Y-62006982D01*
X100176729Y-62006980D01*
X100176726Y-62006977D01*
X100136708Y-61974665D01*
X100096915Y-61917235D01*
X100094488Y-61847407D01*
X100130199Y-61787353D01*
X100162215Y-61765801D01*
X100164326Y-61764816D01*
X100164334Y-61764814D01*
X100313656Y-61672712D01*
X100437712Y-61548656D01*
X100529814Y-61399334D01*
X100584999Y-61232797D01*
X100595500Y-61130009D01*
X100595499Y-59789992D01*
X100584999Y-59687203D01*
X100529814Y-59520666D01*
X100437712Y-59371344D01*
X100313656Y-59247288D01*
X100164334Y-59155186D01*
X99997797Y-59100001D01*
X99997795Y-59100000D01*
X99895010Y-59089500D01*
X98104998Y-59089500D01*
X98104981Y-59089501D01*
X98002203Y-59100000D01*
X98002200Y-59100001D01*
X97835668Y-59155185D01*
X97835663Y-59155187D01*
X97686342Y-59247289D01*
X97562289Y-59371342D01*
X97470187Y-59520663D01*
X97470186Y-59520666D01*
X97415001Y-59687203D01*
X97415001Y-59687204D01*
X97415000Y-59687204D01*
X97404500Y-59789983D01*
X97404500Y-61130001D01*
X97404501Y-61130018D01*
X97415000Y-61232796D01*
X97415001Y-61232799D01*
X97459934Y-61368395D01*
X97470186Y-61399334D01*
X97562288Y-61548656D01*
X97686344Y-61672712D01*
X97835666Y-61764814D01*
X97835674Y-61764816D01*
X97837929Y-61765868D01*
X97839224Y-61767008D01*
X97841813Y-61768605D01*
X97841540Y-61769047D01*
X97890372Y-61812036D01*
X97909530Y-61879228D01*
X97889320Y-61946111D01*
X97871335Y-61967777D01*
X97742483Y-62091272D01*
X97742482Y-62091273D01*
X97603762Y-62278834D01*
X97498733Y-62487147D01*
X97498730Y-62487153D01*
X97430416Y-62710223D01*
X97400784Y-62941624D01*
X83875500Y-62941624D01*
X83875500Y-56040000D01*
X97479447Y-56040000D01*
X97527267Y-56159005D01*
X97649541Y-56357592D01*
X97803617Y-56532656D01*
X97803621Y-56532660D01*
X97985054Y-56679157D01*
X97985060Y-56679161D01*
X98188655Y-56792896D01*
X98408535Y-56870584D01*
X98408539Y-56870585D01*
X98480000Y-56882838D01*
X98480000Y-56040000D01*
X97479447Y-56040000D01*
X83875500Y-56040000D01*
X83875500Y-54966113D01*
X83895185Y-54899074D01*
X83911819Y-54878432D01*
X85458941Y-53331311D01*
X85520319Y-53258510D01*
X85572069Y-53197132D01*
X85621337Y-53113175D01*
X85672243Y-53065319D01*
X85740942Y-53052582D01*
X85805621Y-53079008D01*
X85829857Y-53104811D01*
X85844546Y-53125789D01*
X85946505Y-53271401D01*
X86113599Y-53438495D01*
X86210384Y-53506265D01*
X86307165Y-53574032D01*
X86307167Y-53574033D01*
X86307170Y-53574035D01*
X86521337Y-53673903D01*
X86749592Y-53735063D01*
X86918136Y-53749809D01*
X86984999Y-53755659D01*
X86985000Y-53755659D01*
X86985001Y-53755659D01*
X87051864Y-53749809D01*
X87220408Y-53735063D01*
X87448663Y-53673903D01*
X87662830Y-53574035D01*
X87856401Y-53438495D01*
X88023495Y-53271401D01*
X88159035Y-53077830D01*
X88258903Y-52863663D01*
X88320063Y-52635408D01*
X88340659Y-52400000D01*
X88331910Y-52300003D01*
X88994435Y-52300003D01*
X89014630Y-52479249D01*
X89014631Y-52479254D01*
X89074211Y-52649523D01*
X89112350Y-52710220D01*
X89170184Y-52802262D01*
X89297738Y-52929816D01*
X89450478Y-53025789D01*
X89599203Y-53077830D01*
X89620745Y-53085368D01*
X89620750Y-53085369D01*
X89799996Y-53105565D01*
X89800000Y-53105565D01*
X89800004Y-53105565D01*
X89979249Y-53085369D01*
X89979252Y-53085368D01*
X89979255Y-53085368D01*
X90149522Y-53025789D01*
X90283470Y-52941624D01*
X97380784Y-52941624D01*
X97390685Y-53174700D01*
X97390686Y-53174709D01*
X97439836Y-53402766D01*
X97439837Y-53402769D01*
X97508658Y-53574035D01*
X97526821Y-53619235D01*
X97649138Y-53817891D01*
X97729083Y-53908726D01*
X97803270Y-53993019D01*
X97803273Y-53993022D01*
X97984773Y-54139573D01*
X97984779Y-54139578D01*
X98025590Y-54162376D01*
X98074517Y-54212256D01*
X98088709Y-54280669D01*
X98063661Y-54345895D01*
X98034553Y-54373365D01*
X97891228Y-54470235D01*
X97722860Y-54631603D01*
X97722859Y-54631604D01*
X97584189Y-54819097D01*
X97479199Y-55027334D01*
X97479196Y-55027340D01*
X97475320Y-55040000D01*
X98654219Y-55040000D01*
X98555641Y-55115641D01*
X98460269Y-55239933D01*
X98400315Y-55384674D01*
X98379866Y-55540000D01*
X98400315Y-55695326D01*
X98460269Y-55840067D01*
X98555641Y-55964359D01*
X98679933Y-56059731D01*
X98824674Y-56119685D01*
X98941003Y-56135000D01*
X99018997Y-56135000D01*
X99135326Y-56119685D01*
X99280067Y-56059731D01*
X99305781Y-56040000D01*
X99480000Y-56040000D01*
X99480000Y-56884074D01*
X99663051Y-56836412D01*
X99875552Y-56740356D01*
X99875560Y-56740351D01*
X100068771Y-56609764D01*
X100237139Y-56448396D01*
X100237140Y-56448395D01*
X100375810Y-56260902D01*
X100480800Y-56052665D01*
X100480803Y-56052659D01*
X100484680Y-56040000D01*
X99480000Y-56040000D01*
X99305781Y-56040000D01*
X99404359Y-55964359D01*
X99499731Y-55840067D01*
X99559685Y-55695326D01*
X99580134Y-55540000D01*
X99559685Y-55384674D01*
X99499731Y-55239933D01*
X99404359Y-55115641D01*
X99305781Y-55040000D01*
X100480552Y-55040000D01*
X100432732Y-54920994D01*
X100310458Y-54722407D01*
X100156382Y-54547343D01*
X100156378Y-54547339D01*
X99974945Y-54400842D01*
X99974935Y-54400835D01*
X99934433Y-54378209D01*
X99885507Y-54328329D01*
X99871315Y-54259916D01*
X99896363Y-54194691D01*
X99925469Y-54167222D01*
X100069088Y-54070153D01*
X100237516Y-53908728D01*
X100376240Y-53721161D01*
X100481270Y-53512847D01*
X100549583Y-53289780D01*
X100579216Y-53058376D01*
X100569314Y-52825293D01*
X100520164Y-52597235D01*
X100433179Y-52380765D01*
X100310862Y-52182109D01*
X100156731Y-52006982D01*
X100156729Y-52006980D01*
X100156726Y-52006977D01*
X100116708Y-51974665D01*
X100076915Y-51917235D01*
X100074488Y-51847407D01*
X100110199Y-51787353D01*
X100142215Y-51765801D01*
X100144326Y-51764816D01*
X100144334Y-51764814D01*
X100293656Y-51672712D01*
X100417712Y-51548656D01*
X100509814Y-51399334D01*
X100564999Y-51232797D01*
X100575500Y-51130009D01*
X100575499Y-49789992D01*
X100564999Y-49687203D01*
X100509814Y-49520666D01*
X100417712Y-49371344D01*
X100293656Y-49247288D01*
X100144334Y-49155186D01*
X99977797Y-49100001D01*
X99977795Y-49100000D01*
X99875010Y-49089500D01*
X98084998Y-49089500D01*
X98084981Y-49089501D01*
X97982203Y-49100000D01*
X97982200Y-49100001D01*
X97815668Y-49155185D01*
X97815663Y-49155187D01*
X97666342Y-49247289D01*
X97542289Y-49371342D01*
X97450187Y-49520663D01*
X97450186Y-49520666D01*
X97395001Y-49687203D01*
X97395001Y-49687204D01*
X97395000Y-49687204D01*
X97384500Y-49789983D01*
X97384500Y-51130001D01*
X97384501Y-51130018D01*
X97395000Y-51232796D01*
X97395001Y-51232799D01*
X97444875Y-51383307D01*
X97450186Y-51399334D01*
X97542288Y-51548656D01*
X97666344Y-51672712D01*
X97815666Y-51764814D01*
X97815674Y-51764816D01*
X97817929Y-51765868D01*
X97819224Y-51767008D01*
X97821813Y-51768605D01*
X97821540Y-51769047D01*
X97870372Y-51812036D01*
X97889530Y-51879228D01*
X97869320Y-51946111D01*
X97851335Y-51967777D01*
X97722483Y-52091272D01*
X97722482Y-52091273D01*
X97583762Y-52278834D01*
X97478733Y-52487147D01*
X97478730Y-52487153D01*
X97410416Y-52710223D01*
X97380784Y-52941624D01*
X90283470Y-52941624D01*
X90302262Y-52929816D01*
X90429816Y-52802262D01*
X90525789Y-52649522D01*
X90585368Y-52479255D01*
X90585369Y-52479249D01*
X90605565Y-52300003D01*
X90605565Y-52299996D01*
X90585369Y-52120750D01*
X90585368Y-52120745D01*
X90575055Y-52091272D01*
X90525789Y-51950478D01*
X90516902Y-51936335D01*
X90481020Y-51879228D01*
X90429816Y-51797738D01*
X90302262Y-51670184D01*
X90149523Y-51574211D01*
X89979254Y-51514631D01*
X89979249Y-51514630D01*
X89800004Y-51494435D01*
X89799996Y-51494435D01*
X89620750Y-51514630D01*
X89620745Y-51514631D01*
X89450476Y-51574211D01*
X89297737Y-51670184D01*
X89170184Y-51797737D01*
X89074211Y-51950476D01*
X89014631Y-52120745D01*
X89014630Y-52120750D01*
X88994435Y-52299996D01*
X88994435Y-52300003D01*
X88331910Y-52300003D01*
X88320063Y-52164592D01*
X88262692Y-51950478D01*
X88258905Y-51936344D01*
X88258904Y-51936343D01*
X88258903Y-51936337D01*
X88159035Y-51722171D01*
X88155532Y-51717167D01*
X88023494Y-51528597D01*
X87856402Y-51361506D01*
X87856395Y-51361501D01*
X87662834Y-51225967D01*
X87662830Y-51225965D01*
X87627283Y-51209389D01*
X87448663Y-51126097D01*
X87448659Y-51126096D01*
X87448655Y-51126094D01*
X87220413Y-51064938D01*
X87220403Y-51064936D01*
X86985001Y-51044341D01*
X86984999Y-51044341D01*
X86749596Y-51064936D01*
X86749586Y-51064938D01*
X86521344Y-51126094D01*
X86521337Y-51126096D01*
X86521337Y-51126097D01*
X86512349Y-51130288D01*
X86307171Y-51225964D01*
X86307169Y-51225965D01*
X86113597Y-51361505D01*
X85946508Y-51528594D01*
X85831266Y-51693177D01*
X85776689Y-51736801D01*
X85707190Y-51743994D01*
X85644836Y-51712472D01*
X85620178Y-51680215D01*
X85604888Y-51651425D01*
X85604886Y-51651422D01*
X85604885Y-51651420D01*
X85576448Y-51614630D01*
X85461694Y-51466170D01*
X85461692Y-51466168D01*
X85289256Y-51307783D01*
X85289242Y-51307773D01*
X85092516Y-51180809D01*
X84877160Y-51088915D01*
X84877156Y-51088914D01*
X84805003Y-51071754D01*
X84649374Y-51034740D01*
X84649371Y-51034739D01*
X84649368Y-51034739D01*
X84415699Y-51019838D01*
X84415698Y-51019838D01*
X84415697Y-51019838D01*
X84182874Y-51044642D01*
X84182871Y-51044643D01*
X83957585Y-51108438D01*
X83746322Y-51209388D01*
X83555154Y-51344593D01*
X81559749Y-53339999D01*
X81556870Y-53342700D01*
X81503359Y-53389796D01*
X81438987Y-53469519D01*
X81372930Y-53547867D01*
X81370160Y-53552588D01*
X81359704Y-53567710D01*
X81356266Y-53571968D01*
X81356263Y-53571972D01*
X81306301Y-53661409D01*
X81290252Y-53688758D01*
X81239345Y-53736615D01*
X81183306Y-53750000D01*
X78820572Y-53750000D01*
X78753533Y-53730315D01*
X78707778Y-53677511D01*
X78707579Y-53677074D01*
X78705173Y-53671752D01*
X78702113Y-53667224D01*
X78692962Y-53651242D01*
X78690614Y-53646327D01*
X78690612Y-53646324D01*
X78690611Y-53646322D01*
X78631433Y-53562649D01*
X78574057Y-53477759D01*
X78570279Y-53473818D01*
X78558558Y-53459612D01*
X78555408Y-53455157D01*
X78503016Y-53402765D01*
X78482943Y-53382691D01*
X78412046Y-53308719D01*
X78412045Y-53308718D01*
X78412044Y-53308717D01*
X78407643Y-53305462D01*
X78393704Y-53293453D01*
X76486317Y-51386066D01*
X76486311Y-51386060D01*
X76352132Y-51272930D01*
X76352131Y-51272929D01*
X76150190Y-51154425D01*
X75931125Y-51071754D01*
X75701241Y-51027295D01*
X75467155Y-51022324D01*
X75235584Y-51056989D01*
X75235581Y-51056989D01*
X75013207Y-51130288D01*
X74806421Y-51240113D01*
X74806415Y-51240117D01*
X74621170Y-51383305D01*
X74621168Y-51383307D01*
X74462783Y-51555743D01*
X74462776Y-51555752D01*
X74375584Y-51690852D01*
X74322691Y-51736505D01*
X74253514Y-51746315D01*
X74190014Y-51717167D01*
X74169823Y-51694734D01*
X74155453Y-51674211D01*
X74053495Y-51528599D01*
X73886401Y-51361505D01*
X73809664Y-51307773D01*
X73692834Y-51225967D01*
X73692830Y-51225965D01*
X73657283Y-51209389D01*
X73478663Y-51126097D01*
X73478659Y-51126096D01*
X73478655Y-51126094D01*
X73250413Y-51064938D01*
X73250403Y-51064936D01*
X73015001Y-51044341D01*
X73014999Y-51044341D01*
X72779596Y-51064936D01*
X72779586Y-51064938D01*
X72551344Y-51126094D01*
X72551337Y-51126096D01*
X72551337Y-51126097D01*
X72542349Y-51130288D01*
X72337171Y-51225964D01*
X72337169Y-51225965D01*
X72143597Y-51361505D01*
X71976505Y-51528597D01*
X71840965Y-51722169D01*
X71840964Y-51722171D01*
X71741098Y-51936335D01*
X71741094Y-51936344D01*
X71679938Y-52164586D01*
X71679936Y-52164596D01*
X71659341Y-52399999D01*
X71659341Y-52400000D01*
X71005565Y-52400000D01*
X71005565Y-52399996D01*
X70985369Y-52220750D01*
X70985368Y-52220745D01*
X70925788Y-52050476D01*
X70862955Y-51950478D01*
X70829816Y-51897738D01*
X70702262Y-51770184D01*
X70654355Y-51740082D01*
X70549523Y-51674211D01*
X70379254Y-51614631D01*
X70379249Y-51614630D01*
X70200004Y-51594435D01*
X70199996Y-51594435D01*
X70020750Y-51614630D01*
X70020745Y-51614631D01*
X69850476Y-51674211D01*
X69697737Y-51770184D01*
X69570184Y-51897737D01*
X69474211Y-52050476D01*
X69414631Y-52220745D01*
X69414630Y-52220750D01*
X69394435Y-52399996D01*
X69394435Y-52400003D01*
X62460909Y-52400003D01*
X62453179Y-52380765D01*
X62330862Y-52182109D01*
X62176731Y-52006982D01*
X62176729Y-52006980D01*
X62176726Y-52006977D01*
X61995226Y-51860426D01*
X61995216Y-51860419D01*
X61954408Y-51837622D01*
X61905482Y-51787742D01*
X61891290Y-51719329D01*
X61916338Y-51654104D01*
X61945447Y-51626633D01*
X62088772Y-51529763D01*
X62257139Y-51368396D01*
X62257140Y-51368395D01*
X62395810Y-51180902D01*
X62500800Y-50972665D01*
X62500803Y-50972659D01*
X62504680Y-50960000D01*
X61325781Y-50960000D01*
X61424359Y-50884359D01*
X61519731Y-50760067D01*
X61579685Y-50615326D01*
X61600134Y-50460000D01*
X61579685Y-50304674D01*
X61519731Y-50159933D01*
X61424359Y-50035641D01*
X61300067Y-49940269D01*
X61155326Y-49880315D01*
X61038997Y-49865000D01*
X60961003Y-49865000D01*
X60844674Y-49880315D01*
X60699933Y-49940269D01*
X60575641Y-50035641D01*
X60480269Y-50159933D01*
X60420315Y-50304674D01*
X60399866Y-50460000D01*
X60420315Y-50615326D01*
X60480269Y-50760067D01*
X60575641Y-50884359D01*
X60674219Y-50960000D01*
X59499447Y-50960000D01*
X59547267Y-51079005D01*
X59669541Y-51277592D01*
X59823617Y-51452656D01*
X59823621Y-51452660D01*
X60005054Y-51599157D01*
X60005060Y-51599162D01*
X60045565Y-51621789D01*
X60094491Y-51671669D01*
X60108684Y-51740082D01*
X60083637Y-51805308D01*
X60054529Y-51832778D01*
X59910907Y-51929850D01*
X59742483Y-52091272D01*
X59742482Y-52091273D01*
X59603762Y-52278834D01*
X59498733Y-52487147D01*
X59498730Y-52487153D01*
X59430416Y-52710223D01*
X59400784Y-52941624D01*
X57000500Y-52941624D01*
X57000500Y-49960000D01*
X59495320Y-49960000D01*
X60500000Y-49960000D01*
X60500000Y-49117159D01*
X61500000Y-49117159D01*
X61500000Y-49960000D01*
X62500552Y-49960000D01*
X62452732Y-49840994D01*
X62330458Y-49642407D01*
X62176382Y-49467343D01*
X62176378Y-49467339D01*
X61994945Y-49320842D01*
X61994939Y-49320838D01*
X61791346Y-49207104D01*
X61571461Y-49129414D01*
X61571451Y-49129411D01*
X61500000Y-49117159D01*
X60500000Y-49117159D01*
X60500000Y-49115924D01*
X60316945Y-49163589D01*
X60316939Y-49163591D01*
X60104447Y-49259643D01*
X60104439Y-49259648D01*
X59911228Y-49390235D01*
X59742860Y-49551603D01*
X59742859Y-49551604D01*
X59604189Y-49739097D01*
X59499199Y-49947334D01*
X59499196Y-49947340D01*
X59495320Y-49960000D01*
X57000500Y-49960000D01*
X57000500Y-42941624D01*
X59400784Y-42941624D01*
X59410685Y-43174700D01*
X59410686Y-43174709D01*
X59459836Y-43402766D01*
X59459837Y-43402769D01*
X59546819Y-43619231D01*
X59546821Y-43619235D01*
X59669138Y-43817891D01*
X59823269Y-43993018D01*
X59863291Y-44025334D01*
X59903084Y-44082764D01*
X59905511Y-44152592D01*
X59869800Y-44212646D01*
X59837800Y-44234191D01*
X59835668Y-44235185D01*
X59686342Y-44327289D01*
X59562289Y-44451342D01*
X59470187Y-44600663D01*
X59470186Y-44600666D01*
X59415001Y-44767203D01*
X59415001Y-44767204D01*
X59415000Y-44767204D01*
X59404500Y-44869983D01*
X59404500Y-46210001D01*
X59404501Y-46210018D01*
X59415000Y-46312796D01*
X59415001Y-46312799D01*
X59459934Y-46448395D01*
X59470186Y-46479334D01*
X59562288Y-46628656D01*
X59686344Y-46752712D01*
X59835666Y-46844814D01*
X60002203Y-46899999D01*
X60104991Y-46910500D01*
X61895008Y-46910499D01*
X61997797Y-46899999D01*
X62164334Y-46844814D01*
X62313656Y-46752712D01*
X62437712Y-46628656D01*
X62529814Y-46479334D01*
X62584999Y-46312797D01*
X62595500Y-46210009D01*
X62595500Y-46040000D01*
X97499447Y-46040000D01*
X97547267Y-46159005D01*
X97669541Y-46357592D01*
X97823617Y-46532656D01*
X97823621Y-46532660D01*
X98005054Y-46679157D01*
X98005060Y-46679161D01*
X98208655Y-46792896D01*
X98428535Y-46870584D01*
X98428539Y-46870585D01*
X98500000Y-46882838D01*
X98500000Y-46040000D01*
X97499447Y-46040000D01*
X62595500Y-46040000D01*
X62595499Y-44869992D01*
X62584999Y-44767203D01*
X62529814Y-44600666D01*
X62437712Y-44451344D01*
X62313656Y-44327288D01*
X62164334Y-44235186D01*
X62164326Y-44235181D01*
X62162058Y-44234124D01*
X62160763Y-44232984D01*
X62158187Y-44231395D01*
X62158458Y-44230954D01*
X62109619Y-44187951D01*
X62090468Y-44120757D01*
X62110685Y-44053876D01*
X62128653Y-44032232D01*
X62257516Y-43908728D01*
X62396240Y-43721161D01*
X62501270Y-43512847D01*
X62569583Y-43289780D01*
X62599216Y-43058376D01*
X62594256Y-42941624D01*
X97400784Y-42941624D01*
X97410685Y-43174700D01*
X97410686Y-43174709D01*
X97459836Y-43402766D01*
X97459837Y-43402769D01*
X97546819Y-43619231D01*
X97546821Y-43619235D01*
X97669138Y-43817891D01*
X97749083Y-43908726D01*
X97823270Y-43993019D01*
X97823273Y-43993022D01*
X98004773Y-44139573D01*
X98004779Y-44139578D01*
X98045590Y-44162376D01*
X98094517Y-44212256D01*
X98108709Y-44280669D01*
X98083661Y-44345895D01*
X98054553Y-44373365D01*
X97911228Y-44470235D01*
X97742860Y-44631603D01*
X97742859Y-44631604D01*
X97604189Y-44819097D01*
X97499199Y-45027334D01*
X97499196Y-45027340D01*
X97495320Y-45040000D01*
X98674219Y-45040000D01*
X98575641Y-45115641D01*
X98480269Y-45239933D01*
X98420315Y-45384674D01*
X98399866Y-45540000D01*
X98420315Y-45695326D01*
X98480269Y-45840067D01*
X98575641Y-45964359D01*
X98699933Y-46059731D01*
X98844674Y-46119685D01*
X98961003Y-46135000D01*
X99038997Y-46135000D01*
X99155326Y-46119685D01*
X99300067Y-46059731D01*
X99325781Y-46040000D01*
X99500000Y-46040000D01*
X99500000Y-46884074D01*
X99683051Y-46836412D01*
X99895552Y-46740356D01*
X99895560Y-46740351D01*
X100088771Y-46609764D01*
X100257139Y-46448396D01*
X100257140Y-46448395D01*
X100395810Y-46260902D01*
X100500800Y-46052665D01*
X100500803Y-46052659D01*
X100504680Y-46040000D01*
X99500000Y-46040000D01*
X99325781Y-46040000D01*
X99424359Y-45964359D01*
X99519731Y-45840067D01*
X99579685Y-45695326D01*
X99600134Y-45540000D01*
X99579685Y-45384674D01*
X99519731Y-45239933D01*
X99424359Y-45115641D01*
X99325781Y-45040000D01*
X100500552Y-45040000D01*
X100452732Y-44920994D01*
X100330458Y-44722407D01*
X100176382Y-44547343D01*
X100176378Y-44547339D01*
X99994945Y-44400842D01*
X99994935Y-44400835D01*
X99954433Y-44378209D01*
X99905507Y-44328329D01*
X99891315Y-44259916D01*
X99916363Y-44194691D01*
X99945469Y-44167222D01*
X100089088Y-44070153D01*
X100257516Y-43908728D01*
X100396240Y-43721161D01*
X100501270Y-43512847D01*
X100569583Y-43289780D01*
X100599216Y-43058376D01*
X100589314Y-42825293D01*
X100540164Y-42597235D01*
X100453179Y-42380765D01*
X100330862Y-42182109D01*
X100176731Y-42006982D01*
X100176729Y-42006980D01*
X100176726Y-42006977D01*
X100136708Y-41974665D01*
X100096915Y-41917235D01*
X100094488Y-41847407D01*
X100130199Y-41787353D01*
X100162215Y-41765801D01*
X100164326Y-41764816D01*
X100164334Y-41764814D01*
X100313656Y-41672712D01*
X100437712Y-41548656D01*
X100529814Y-41399334D01*
X100584999Y-41232797D01*
X100595500Y-41130009D01*
X100595499Y-39789992D01*
X100584999Y-39687203D01*
X100529814Y-39520666D01*
X100437712Y-39371344D01*
X100313656Y-39247288D01*
X100164334Y-39155186D01*
X99997797Y-39100001D01*
X99997795Y-39100000D01*
X99895010Y-39089500D01*
X98104998Y-39089500D01*
X98104981Y-39089501D01*
X98002203Y-39100000D01*
X98002200Y-39100001D01*
X97835668Y-39155185D01*
X97835663Y-39155187D01*
X97686342Y-39247289D01*
X97562289Y-39371342D01*
X97470187Y-39520663D01*
X97470186Y-39520666D01*
X97415001Y-39687203D01*
X97415001Y-39687204D01*
X97415000Y-39687204D01*
X97404500Y-39789983D01*
X97404500Y-41130001D01*
X97404501Y-41130018D01*
X97415000Y-41232796D01*
X97415001Y-41232799D01*
X97459934Y-41368395D01*
X97470186Y-41399334D01*
X97562288Y-41548656D01*
X97686344Y-41672712D01*
X97835666Y-41764814D01*
X97835674Y-41764816D01*
X97837929Y-41765868D01*
X97839224Y-41767008D01*
X97841813Y-41768605D01*
X97841540Y-41769047D01*
X97890372Y-41812036D01*
X97909530Y-41879228D01*
X97889320Y-41946111D01*
X97871335Y-41967777D01*
X97742483Y-42091272D01*
X97742482Y-42091273D01*
X97603762Y-42278834D01*
X97498733Y-42487147D01*
X97498730Y-42487153D01*
X97430416Y-42710223D01*
X97400784Y-42941624D01*
X62594256Y-42941624D01*
X62589314Y-42825293D01*
X62540164Y-42597235D01*
X62453179Y-42380765D01*
X62330862Y-42182109D01*
X62176731Y-42006982D01*
X62176729Y-42006980D01*
X62176726Y-42006977D01*
X61995226Y-41860426D01*
X61995216Y-41860419D01*
X61954408Y-41837622D01*
X61905482Y-41787742D01*
X61891290Y-41719329D01*
X61916338Y-41654104D01*
X61945447Y-41626633D01*
X62088772Y-41529763D01*
X62257139Y-41368396D01*
X62257140Y-41368395D01*
X62395810Y-41180902D01*
X62500800Y-40972665D01*
X62500803Y-40972659D01*
X62504680Y-40960000D01*
X61325781Y-40960000D01*
X61424359Y-40884359D01*
X61519731Y-40760067D01*
X61579685Y-40615326D01*
X61600134Y-40460000D01*
X61579685Y-40304674D01*
X61519731Y-40159933D01*
X61424359Y-40035641D01*
X61300067Y-39940269D01*
X61155326Y-39880315D01*
X61038997Y-39865000D01*
X60961003Y-39865000D01*
X60844674Y-39880315D01*
X60699933Y-39940269D01*
X60575641Y-40035641D01*
X60480269Y-40159933D01*
X60420315Y-40304674D01*
X60399866Y-40460000D01*
X60420315Y-40615326D01*
X60480269Y-40760067D01*
X60575641Y-40884359D01*
X60674219Y-40960000D01*
X59499447Y-40960000D01*
X59547267Y-41079005D01*
X59669541Y-41277592D01*
X59823617Y-41452656D01*
X59823621Y-41452660D01*
X60005054Y-41599157D01*
X60005060Y-41599162D01*
X60045565Y-41621789D01*
X60094491Y-41671669D01*
X60108684Y-41740082D01*
X60083637Y-41805308D01*
X60054529Y-41832778D01*
X59910907Y-41929850D01*
X59742483Y-42091272D01*
X59742482Y-42091273D01*
X59603762Y-42278834D01*
X59498733Y-42487147D01*
X59498730Y-42487153D01*
X59430416Y-42710223D01*
X59400784Y-42941624D01*
X57000500Y-42941624D01*
X57000500Y-39960000D01*
X59495320Y-39960000D01*
X60500000Y-39960000D01*
X60500000Y-39117159D01*
X61500000Y-39117159D01*
X61500000Y-39960000D01*
X62500552Y-39960000D01*
X62452732Y-39840994D01*
X62330458Y-39642407D01*
X62293138Y-39600003D01*
X88994435Y-39600003D01*
X89014630Y-39779249D01*
X89014631Y-39779254D01*
X89074211Y-39949523D01*
X89128323Y-40035641D01*
X89170184Y-40102262D01*
X89297738Y-40229816D01*
X89450478Y-40325789D01*
X89620745Y-40385368D01*
X89620750Y-40385369D01*
X89799996Y-40405565D01*
X89800000Y-40405565D01*
X89800004Y-40405565D01*
X89979249Y-40385369D01*
X89979252Y-40385368D01*
X89979255Y-40385368D01*
X90149522Y-40325789D01*
X90302262Y-40229816D01*
X90429816Y-40102262D01*
X90525789Y-39949522D01*
X90585368Y-39779255D01*
X90605565Y-39600000D01*
X90600112Y-39551604D01*
X90585369Y-39420750D01*
X90585368Y-39420745D01*
X90550409Y-39320838D01*
X90525789Y-39250478D01*
X90429816Y-39097738D01*
X90302262Y-38970184D01*
X90149523Y-38874211D01*
X89979254Y-38814631D01*
X89979249Y-38814630D01*
X89800004Y-38794435D01*
X89799996Y-38794435D01*
X89620750Y-38814630D01*
X89620745Y-38814631D01*
X89450476Y-38874211D01*
X89297737Y-38970184D01*
X89170184Y-39097737D01*
X89074211Y-39250476D01*
X89014631Y-39420745D01*
X89014630Y-39420750D01*
X88994435Y-39599996D01*
X88994435Y-39600003D01*
X62293138Y-39600003D01*
X62176382Y-39467343D01*
X62176378Y-39467339D01*
X61994945Y-39320842D01*
X61994939Y-39320838D01*
X61791346Y-39207104D01*
X61571461Y-39129414D01*
X61571451Y-39129411D01*
X61500000Y-39117159D01*
X60500000Y-39117159D01*
X60500000Y-39115924D01*
X60316945Y-39163589D01*
X60316939Y-39163591D01*
X60104447Y-39259643D01*
X60104439Y-39259648D01*
X59911228Y-39390235D01*
X59742860Y-39551603D01*
X59742859Y-39551604D01*
X59604189Y-39739097D01*
X59499199Y-39947334D01*
X59499196Y-39947340D01*
X59495320Y-39960000D01*
X57000500Y-39960000D01*
X57000500Y-32941624D01*
X59400784Y-32941624D01*
X59410685Y-33174700D01*
X59410686Y-33174709D01*
X59459836Y-33402766D01*
X59459837Y-33402769D01*
X59546819Y-33619231D01*
X59546821Y-33619235D01*
X59669138Y-33817891D01*
X59823269Y-33993018D01*
X59863291Y-34025334D01*
X59903084Y-34082764D01*
X59905511Y-34152592D01*
X59869800Y-34212646D01*
X59837800Y-34234191D01*
X59835668Y-34235185D01*
X59686342Y-34327289D01*
X59562289Y-34451342D01*
X59470187Y-34600663D01*
X59470186Y-34600666D01*
X59415001Y-34767203D01*
X59415001Y-34767204D01*
X59415000Y-34767204D01*
X59404500Y-34869983D01*
X59404500Y-36210001D01*
X59404501Y-36210018D01*
X59415000Y-36312796D01*
X59415001Y-36312799D01*
X59459934Y-36448395D01*
X59470186Y-36479334D01*
X59562288Y-36628656D01*
X59686344Y-36752712D01*
X59835666Y-36844814D01*
X60002203Y-36899999D01*
X60104991Y-36910500D01*
X61895008Y-36910499D01*
X61997797Y-36899999D01*
X62164334Y-36844814D01*
X62313656Y-36752712D01*
X62437712Y-36628656D01*
X62529814Y-36479334D01*
X62584999Y-36312797D01*
X62595500Y-36210009D01*
X62595500Y-36040000D01*
X97499447Y-36040000D01*
X97547267Y-36159005D01*
X97669541Y-36357592D01*
X97823617Y-36532656D01*
X97823621Y-36532660D01*
X98005054Y-36679157D01*
X98005060Y-36679161D01*
X98208655Y-36792896D01*
X98428535Y-36870584D01*
X98428539Y-36870585D01*
X98500000Y-36882838D01*
X98500000Y-36040000D01*
X97499447Y-36040000D01*
X62595500Y-36040000D01*
X62595499Y-34869992D01*
X62584999Y-34767203D01*
X62529814Y-34600666D01*
X62437712Y-34451344D01*
X62313656Y-34327288D01*
X62164334Y-34235186D01*
X62164326Y-34235181D01*
X62162058Y-34234124D01*
X62160763Y-34232984D01*
X62158187Y-34231395D01*
X62158458Y-34230954D01*
X62109619Y-34187951D01*
X62090468Y-34120757D01*
X62110685Y-34053876D01*
X62128653Y-34032232D01*
X62257516Y-33908728D01*
X62396240Y-33721161D01*
X62501270Y-33512847D01*
X62569583Y-33289780D01*
X62599216Y-33058376D01*
X62594256Y-32941624D01*
X97400784Y-32941624D01*
X97410685Y-33174700D01*
X97410686Y-33174709D01*
X97459836Y-33402766D01*
X97459837Y-33402769D01*
X97546819Y-33619231D01*
X97546821Y-33619235D01*
X97669138Y-33817891D01*
X97749083Y-33908726D01*
X97823270Y-33993019D01*
X97823273Y-33993022D01*
X98004773Y-34139573D01*
X98004779Y-34139578D01*
X98045590Y-34162376D01*
X98094517Y-34212256D01*
X98108709Y-34280669D01*
X98083661Y-34345895D01*
X98054553Y-34373365D01*
X97911228Y-34470235D01*
X97742860Y-34631603D01*
X97742859Y-34631604D01*
X97604189Y-34819097D01*
X97499199Y-35027334D01*
X97499196Y-35027340D01*
X97495320Y-35040000D01*
X98674219Y-35040000D01*
X98575641Y-35115641D01*
X98480269Y-35239933D01*
X98420315Y-35384674D01*
X98399866Y-35540000D01*
X98420315Y-35695326D01*
X98480269Y-35840067D01*
X98575641Y-35964359D01*
X98699933Y-36059731D01*
X98844674Y-36119685D01*
X98961003Y-36135000D01*
X99038997Y-36135000D01*
X99155326Y-36119685D01*
X99300067Y-36059731D01*
X99325781Y-36040000D01*
X99500000Y-36040000D01*
X99500000Y-36884074D01*
X99683051Y-36836412D01*
X99895552Y-36740356D01*
X99895560Y-36740351D01*
X100088771Y-36609764D01*
X100257139Y-36448396D01*
X100257140Y-36448395D01*
X100395810Y-36260902D01*
X100500800Y-36052665D01*
X100500803Y-36052659D01*
X100504680Y-36040000D01*
X99500000Y-36040000D01*
X99325781Y-36040000D01*
X99424359Y-35964359D01*
X99519731Y-35840067D01*
X99579685Y-35695326D01*
X99600134Y-35540000D01*
X99579685Y-35384674D01*
X99519731Y-35239933D01*
X99424359Y-35115641D01*
X99325781Y-35040000D01*
X100500552Y-35040000D01*
X100452732Y-34920994D01*
X100330458Y-34722407D01*
X100176382Y-34547343D01*
X100176378Y-34547339D01*
X99994945Y-34400842D01*
X99994935Y-34400835D01*
X99954433Y-34378209D01*
X99905507Y-34328329D01*
X99891315Y-34259916D01*
X99916363Y-34194691D01*
X99945469Y-34167222D01*
X100089088Y-34070153D01*
X100257516Y-33908728D01*
X100396240Y-33721161D01*
X100501270Y-33512847D01*
X100569583Y-33289780D01*
X100599216Y-33058376D01*
X100589314Y-32825293D01*
X100540164Y-32597235D01*
X100453179Y-32380765D01*
X100330862Y-32182109D01*
X100176731Y-32006982D01*
X100176729Y-32006980D01*
X100176726Y-32006977D01*
X100136708Y-31974665D01*
X100096915Y-31917235D01*
X100094488Y-31847407D01*
X100130199Y-31787353D01*
X100162215Y-31765801D01*
X100164326Y-31764816D01*
X100164334Y-31764814D01*
X100313656Y-31672712D01*
X100437712Y-31548656D01*
X100529814Y-31399334D01*
X100584999Y-31232797D01*
X100595500Y-31130009D01*
X100595499Y-29789992D01*
X100584999Y-29687203D01*
X100529814Y-29520666D01*
X100437712Y-29371344D01*
X100313656Y-29247288D01*
X100164334Y-29155186D01*
X99997797Y-29100001D01*
X99997795Y-29100000D01*
X99895010Y-29089500D01*
X98104998Y-29089500D01*
X98104981Y-29089501D01*
X98002203Y-29100000D01*
X98002200Y-29100001D01*
X97835668Y-29155185D01*
X97835663Y-29155187D01*
X97686342Y-29247289D01*
X97562289Y-29371342D01*
X97470187Y-29520663D01*
X97470186Y-29520666D01*
X97415001Y-29687203D01*
X97415001Y-29687204D01*
X97415000Y-29687204D01*
X97404500Y-29789983D01*
X97404500Y-31130001D01*
X97404501Y-31130018D01*
X97415000Y-31232796D01*
X97415001Y-31232799D01*
X97459934Y-31368395D01*
X97470186Y-31399334D01*
X97562288Y-31548656D01*
X97686344Y-31672712D01*
X97835666Y-31764814D01*
X97835674Y-31764816D01*
X97837929Y-31765868D01*
X97839224Y-31767008D01*
X97841813Y-31768605D01*
X97841540Y-31769047D01*
X97890372Y-31812036D01*
X97909530Y-31879228D01*
X97889320Y-31946111D01*
X97871335Y-31967777D01*
X97742483Y-32091272D01*
X97742482Y-32091273D01*
X97603762Y-32278834D01*
X97498733Y-32487147D01*
X97498730Y-32487153D01*
X97430416Y-32710223D01*
X97400784Y-32941624D01*
X62594256Y-32941624D01*
X62589314Y-32825293D01*
X62540164Y-32597235D01*
X62453179Y-32380765D01*
X62330862Y-32182109D01*
X62176731Y-32006982D01*
X62176729Y-32006980D01*
X62176726Y-32006977D01*
X61995226Y-31860426D01*
X61995216Y-31860419D01*
X61954408Y-31837622D01*
X61905482Y-31787742D01*
X61891290Y-31719329D01*
X61916338Y-31654104D01*
X61945447Y-31626633D01*
X62088772Y-31529763D01*
X62257139Y-31368396D01*
X62257140Y-31368395D01*
X62395810Y-31180902D01*
X62500800Y-30972665D01*
X62500803Y-30972659D01*
X62504680Y-30960000D01*
X61325781Y-30960000D01*
X61424359Y-30884359D01*
X61519731Y-30760067D01*
X61579685Y-30615326D01*
X61600134Y-30460000D01*
X61579685Y-30304674D01*
X61519731Y-30159933D01*
X61424359Y-30035641D01*
X61300067Y-29940269D01*
X61155326Y-29880315D01*
X61038997Y-29865000D01*
X60961003Y-29865000D01*
X60844674Y-29880315D01*
X60699933Y-29940269D01*
X60575641Y-30035641D01*
X60480269Y-30159933D01*
X60420315Y-30304674D01*
X60399866Y-30460000D01*
X60420315Y-30615326D01*
X60480269Y-30760067D01*
X60575641Y-30884359D01*
X60674219Y-30960000D01*
X59499447Y-30960000D01*
X59547267Y-31079005D01*
X59669541Y-31277592D01*
X59823617Y-31452656D01*
X59823621Y-31452660D01*
X60005054Y-31599157D01*
X60005060Y-31599162D01*
X60045565Y-31621789D01*
X60094491Y-31671669D01*
X60108684Y-31740082D01*
X60083637Y-31805308D01*
X60054529Y-31832778D01*
X59910907Y-31929850D01*
X59742483Y-32091272D01*
X59742482Y-32091273D01*
X59603762Y-32278834D01*
X59498733Y-32487147D01*
X59498730Y-32487153D01*
X59430416Y-32710223D01*
X59400784Y-32941624D01*
X57000500Y-32941624D01*
X57000500Y-29960000D01*
X59495320Y-29960000D01*
X60500000Y-29960000D01*
X60500000Y-29117159D01*
X61500000Y-29117159D01*
X61500000Y-29960000D01*
X62500552Y-29960000D01*
X62452732Y-29840994D01*
X62330458Y-29642407D01*
X62176382Y-29467343D01*
X62176378Y-29467339D01*
X61994945Y-29320842D01*
X61994939Y-29320838D01*
X61791346Y-29207104D01*
X61571461Y-29129414D01*
X61571451Y-29129411D01*
X61500000Y-29117159D01*
X60500000Y-29117159D01*
X60500000Y-29115924D01*
X60316945Y-29163589D01*
X60316939Y-29163591D01*
X60104447Y-29259643D01*
X60104439Y-29259648D01*
X59911228Y-29390235D01*
X59742860Y-29551603D01*
X59742859Y-29551604D01*
X59604189Y-29739097D01*
X59499199Y-29947334D01*
X59499196Y-29947340D01*
X59495320Y-29960000D01*
X57000500Y-29960000D01*
X57000500Y-27000003D01*
X69394435Y-27000003D01*
X69414630Y-27179249D01*
X69414631Y-27179254D01*
X69474211Y-27349523D01*
X69545931Y-27463664D01*
X69570184Y-27502262D01*
X69697738Y-27629816D01*
X69850478Y-27725789D01*
X70020745Y-27785368D01*
X70020750Y-27785369D01*
X70199996Y-27805565D01*
X70200000Y-27805565D01*
X70200004Y-27805565D01*
X70379249Y-27785369D01*
X70379252Y-27785368D01*
X70379255Y-27785368D01*
X70549522Y-27725789D01*
X70702262Y-27629816D01*
X70829816Y-27502262D01*
X70925789Y-27349522D01*
X70985368Y-27179255D01*
X71005565Y-27000001D01*
X71659843Y-27000001D01*
X71680430Y-27235315D01*
X71680432Y-27235326D01*
X71741566Y-27463483D01*
X71741570Y-27463492D01*
X71841400Y-27677579D01*
X71841402Y-27677583D01*
X71900072Y-27761373D01*
X71900073Y-27761373D01*
X72531923Y-27129523D01*
X72555507Y-27209844D01*
X72633239Y-27330798D01*
X72741900Y-27424952D01*
X72872685Y-27484680D01*
X72882466Y-27486086D01*
X72253625Y-28114925D01*
X72337421Y-28173599D01*
X72551507Y-28273429D01*
X72551516Y-28273433D01*
X72779673Y-28334567D01*
X72779684Y-28334569D01*
X73014998Y-28355157D01*
X73015002Y-28355157D01*
X73250315Y-28334569D01*
X73250326Y-28334567D01*
X73478483Y-28273433D01*
X73478492Y-28273429D01*
X73692578Y-28173600D01*
X73692582Y-28173598D01*
X73776373Y-28114926D01*
X73776373Y-28114925D01*
X73147533Y-27486086D01*
X73157315Y-27484680D01*
X73288100Y-27424952D01*
X73396761Y-27330798D01*
X73474493Y-27209844D01*
X73498076Y-27129524D01*
X74129925Y-27761373D01*
X74183425Y-27684968D01*
X74238002Y-27641344D01*
X74307501Y-27634151D01*
X74369855Y-27665673D01*
X74386576Y-27684969D01*
X74440073Y-27761372D01*
X75071922Y-27129523D01*
X75095507Y-27209844D01*
X75173239Y-27330798D01*
X75281900Y-27424952D01*
X75412685Y-27484680D01*
X75422466Y-27486086D01*
X74793625Y-28114925D01*
X74877421Y-28173599D01*
X75091507Y-28273429D01*
X75091516Y-28273433D01*
X75319673Y-28334567D01*
X75319684Y-28334569D01*
X75554998Y-28355157D01*
X75555002Y-28355157D01*
X75790315Y-28334569D01*
X75790326Y-28334567D01*
X76018483Y-28273433D01*
X76018492Y-28273429D01*
X76232578Y-28173600D01*
X76232582Y-28173598D01*
X76316373Y-28114926D01*
X76316373Y-28114925D01*
X75687533Y-27486086D01*
X75697315Y-27484680D01*
X75828100Y-27424952D01*
X75936761Y-27330798D01*
X76014493Y-27209844D01*
X76038076Y-27129524D01*
X76669925Y-27761373D01*
X76669926Y-27761373D01*
X76728598Y-27677582D01*
X76728600Y-27677578D01*
X76828429Y-27463492D01*
X76828433Y-27463483D01*
X76889567Y-27235326D01*
X76889569Y-27235315D01*
X76910157Y-27000001D01*
X76910157Y-27000000D01*
X83089341Y-27000000D01*
X83109936Y-27235403D01*
X83109938Y-27235413D01*
X83171094Y-27463655D01*
X83171096Y-27463659D01*
X83171097Y-27463663D01*
X83189096Y-27502262D01*
X83270965Y-27677830D01*
X83270967Y-27677834D01*
X83360406Y-27805565D01*
X83406505Y-27871401D01*
X83573599Y-28038495D01*
X83670384Y-28106265D01*
X83767165Y-28174032D01*
X83767167Y-28174033D01*
X83767170Y-28174035D01*
X83981337Y-28273903D01*
X84209592Y-28335063D01*
X84397918Y-28351539D01*
X84444999Y-28355659D01*
X84445000Y-28355659D01*
X84445001Y-28355659D01*
X84484234Y-28352226D01*
X84680408Y-28335063D01*
X84908663Y-28273903D01*
X85122830Y-28174035D01*
X85316401Y-28038495D01*
X85483495Y-27871401D01*
X85613425Y-27685842D01*
X85668002Y-27642217D01*
X85737500Y-27635023D01*
X85799855Y-27666546D01*
X85816575Y-27685842D01*
X85946500Y-27871395D01*
X85946505Y-27871401D01*
X86113599Y-28038495D01*
X86210384Y-28106265D01*
X86307165Y-28174032D01*
X86307167Y-28174033D01*
X86307170Y-28174035D01*
X86521337Y-28273903D01*
X86749592Y-28335063D01*
X86937918Y-28351539D01*
X86984999Y-28355659D01*
X86985000Y-28355659D01*
X86985001Y-28355659D01*
X87024234Y-28352226D01*
X87220408Y-28335063D01*
X87448663Y-28273903D01*
X87662830Y-28174035D01*
X87856401Y-28038495D01*
X88023495Y-27871401D01*
X88159035Y-27677830D01*
X88258903Y-27463663D01*
X88320063Y-27235408D01*
X88340659Y-27000003D01*
X88994435Y-27000003D01*
X89014630Y-27179249D01*
X89014631Y-27179254D01*
X89074211Y-27349523D01*
X89145931Y-27463664D01*
X89170184Y-27502262D01*
X89297738Y-27629816D01*
X89450478Y-27725789D01*
X89620745Y-27785368D01*
X89620750Y-27785369D01*
X89799996Y-27805565D01*
X89800000Y-27805565D01*
X89800004Y-27805565D01*
X89979249Y-27785369D01*
X89979252Y-27785368D01*
X89979255Y-27785368D01*
X90149522Y-27725789D01*
X90302262Y-27629816D01*
X90429816Y-27502262D01*
X90525789Y-27349522D01*
X90585368Y-27179255D01*
X90605565Y-27000000D01*
X90597465Y-26928111D01*
X90585369Y-26820750D01*
X90585368Y-26820745D01*
X90565751Y-26764684D01*
X90525789Y-26650478D01*
X90429816Y-26497738D01*
X90302262Y-26370184D01*
X90282526Y-26357783D01*
X90149523Y-26274211D01*
X89979254Y-26214631D01*
X89979249Y-26214630D01*
X89800004Y-26194435D01*
X89799996Y-26194435D01*
X89620750Y-26214630D01*
X89620745Y-26214631D01*
X89450476Y-26274211D01*
X89297737Y-26370184D01*
X89170184Y-26497737D01*
X89074211Y-26650476D01*
X89014631Y-26820745D01*
X89014630Y-26820750D01*
X88994435Y-26999996D01*
X88994435Y-27000003D01*
X88340659Y-27000003D01*
X88340659Y-27000000D01*
X88320063Y-26764592D01*
X88258903Y-26536337D01*
X88159035Y-26322171D01*
X88153425Y-26314158D01*
X88023494Y-26128597D01*
X87856402Y-25961506D01*
X87856395Y-25961501D01*
X87662834Y-25825967D01*
X87662830Y-25825965D01*
X87630860Y-25811057D01*
X87448663Y-25726097D01*
X87448659Y-25726096D01*
X87448655Y-25726094D01*
X87220413Y-25664938D01*
X87220403Y-25664936D01*
X86985001Y-25644341D01*
X86984999Y-25644341D01*
X86749596Y-25664936D01*
X86749586Y-25664938D01*
X86521344Y-25726094D01*
X86521335Y-25726098D01*
X86307171Y-25825964D01*
X86307169Y-25825965D01*
X86113597Y-25961505D01*
X85946505Y-26128597D01*
X85816575Y-26314158D01*
X85761998Y-26357783D01*
X85692500Y-26364977D01*
X85630145Y-26333454D01*
X85613425Y-26314158D01*
X85483494Y-26128597D01*
X85316402Y-25961506D01*
X85316395Y-25961501D01*
X85122834Y-25825967D01*
X85122830Y-25825965D01*
X85090860Y-25811057D01*
X84908663Y-25726097D01*
X84908659Y-25726096D01*
X84908655Y-25726094D01*
X84680413Y-25664938D01*
X84680403Y-25664936D01*
X84445001Y-25644341D01*
X84444999Y-25644341D01*
X84209596Y-25664936D01*
X84209586Y-25664938D01*
X83981344Y-25726094D01*
X83981335Y-25726098D01*
X83767171Y-25825964D01*
X83767169Y-25825965D01*
X83573597Y-25961505D01*
X83406505Y-26128597D01*
X83270965Y-26322169D01*
X83270964Y-26322171D01*
X83171098Y-26536335D01*
X83171094Y-26536344D01*
X83109938Y-26764586D01*
X83109936Y-26764596D01*
X83089341Y-26999999D01*
X83089341Y-27000000D01*
X76910157Y-27000000D01*
X76910157Y-26999998D01*
X76889569Y-26764684D01*
X76889567Y-26764673D01*
X76828433Y-26536516D01*
X76828429Y-26536507D01*
X76728600Y-26322423D01*
X76728599Y-26322421D01*
X76669925Y-26238626D01*
X76669925Y-26238625D01*
X76038076Y-26870475D01*
X76014493Y-26790156D01*
X75936761Y-26669202D01*
X75828100Y-26575048D01*
X75697315Y-26515320D01*
X75687533Y-26513913D01*
X76316373Y-25885073D01*
X76316373Y-25885072D01*
X76232583Y-25826402D01*
X76232579Y-25826400D01*
X76018492Y-25726570D01*
X76018483Y-25726566D01*
X75790326Y-25665432D01*
X75790315Y-25665430D01*
X75555002Y-25644843D01*
X75554998Y-25644843D01*
X75319684Y-25665430D01*
X75319673Y-25665432D01*
X75091516Y-25726566D01*
X75091507Y-25726570D01*
X74877419Y-25826401D01*
X74793625Y-25885072D01*
X75422466Y-26513913D01*
X75412685Y-26515320D01*
X75281900Y-26575048D01*
X75173239Y-26669202D01*
X75095507Y-26790156D01*
X75071923Y-26870476D01*
X74440072Y-26238625D01*
X74440072Y-26238626D01*
X74386574Y-26315030D01*
X74331998Y-26358655D01*
X74262499Y-26365849D01*
X74200144Y-26334326D01*
X74183424Y-26315030D01*
X74129925Y-26238626D01*
X74129925Y-26238625D01*
X73498076Y-26870475D01*
X73474493Y-26790156D01*
X73396761Y-26669202D01*
X73288100Y-26575048D01*
X73157315Y-26515320D01*
X73147533Y-26513913D01*
X73776373Y-25885073D01*
X73776373Y-25885072D01*
X73692583Y-25826402D01*
X73692579Y-25826400D01*
X73478492Y-25726570D01*
X73478483Y-25726566D01*
X73250326Y-25665432D01*
X73250315Y-25665430D01*
X73015002Y-25644843D01*
X73014998Y-25644843D01*
X72779684Y-25665430D01*
X72779673Y-25665432D01*
X72551516Y-25726566D01*
X72551507Y-25726570D01*
X72337419Y-25826401D01*
X72253625Y-25885072D01*
X72882466Y-26513913D01*
X72872685Y-26515320D01*
X72741900Y-26575048D01*
X72633239Y-26669202D01*
X72555507Y-26790156D01*
X72531923Y-26870476D01*
X71900072Y-26238625D01*
X71841401Y-26322419D01*
X71741570Y-26536507D01*
X71741566Y-26536516D01*
X71680432Y-26764673D01*
X71680430Y-26764684D01*
X71659843Y-26999998D01*
X71659843Y-27000001D01*
X71005565Y-27000001D01*
X71005565Y-27000000D01*
X70997465Y-26928111D01*
X70985369Y-26820750D01*
X70985368Y-26820745D01*
X70965751Y-26764684D01*
X70925789Y-26650478D01*
X70829816Y-26497738D01*
X70702262Y-26370184D01*
X70682526Y-26357783D01*
X70549523Y-26274211D01*
X70379254Y-26214631D01*
X70379249Y-26214630D01*
X70200004Y-26194435D01*
X70199996Y-26194435D01*
X70020750Y-26214630D01*
X70020745Y-26214631D01*
X69850476Y-26274211D01*
X69697737Y-26370184D01*
X69570184Y-26497737D01*
X69474211Y-26650476D01*
X69414631Y-26820745D01*
X69414630Y-26820750D01*
X69394435Y-26999996D01*
X69394435Y-27000003D01*
X57000500Y-27000003D01*
X57000500Y-24067763D01*
X59145787Y-24067763D01*
X59175413Y-24337013D01*
X59175415Y-24337024D01*
X59243926Y-24599082D01*
X59243928Y-24599088D01*
X59349870Y-24848390D01*
X59421998Y-24966575D01*
X59490979Y-25079605D01*
X59490986Y-25079615D01*
X59664253Y-25287819D01*
X59664259Y-25287824D01*
X59865998Y-25468582D01*
X60091910Y-25618044D01*
X60337176Y-25733020D01*
X60337183Y-25733022D01*
X60337185Y-25733023D01*
X60596557Y-25811057D01*
X60596564Y-25811058D01*
X60596569Y-25811060D01*
X60864561Y-25850500D01*
X60864566Y-25850500D01*
X61067636Y-25850500D01*
X61119133Y-25846730D01*
X61270156Y-25835677D01*
X61382758Y-25810593D01*
X61534546Y-25776782D01*
X61534548Y-25776781D01*
X61534553Y-25776780D01*
X61787558Y-25680014D01*
X62023777Y-25547441D01*
X62238177Y-25381888D01*
X62426186Y-25186881D01*
X62583799Y-24966579D01*
X62657787Y-24822669D01*
X62707649Y-24725690D01*
X62707651Y-24725684D01*
X62707656Y-24725675D01*
X62795118Y-24469305D01*
X62844319Y-24202933D01*
X62854212Y-23932235D01*
X62845164Y-23850003D01*
X66644435Y-23850003D01*
X66664630Y-24029249D01*
X66664631Y-24029254D01*
X66724211Y-24199523D01*
X66810609Y-24337024D01*
X66820184Y-24352262D01*
X66947738Y-24479816D01*
X67100478Y-24575789D01*
X67167046Y-24599082D01*
X67270745Y-24635368D01*
X67270750Y-24635369D01*
X67449996Y-24655565D01*
X67450000Y-24655565D01*
X67450004Y-24655565D01*
X67629249Y-24635369D01*
X67629252Y-24635368D01*
X67629255Y-24635368D01*
X67799522Y-24575789D01*
X67952262Y-24479816D01*
X68079816Y-24352262D01*
X68175789Y-24199522D01*
X68221893Y-24067763D01*
X97145787Y-24067763D01*
X97175413Y-24337013D01*
X97175415Y-24337024D01*
X97243926Y-24599082D01*
X97243928Y-24599088D01*
X97349870Y-24848390D01*
X97421998Y-24966575D01*
X97490979Y-25079605D01*
X97490986Y-25079615D01*
X97664253Y-25287819D01*
X97664259Y-25287824D01*
X97865998Y-25468582D01*
X98091910Y-25618044D01*
X98337176Y-25733020D01*
X98337183Y-25733022D01*
X98337185Y-25733023D01*
X98596557Y-25811057D01*
X98596564Y-25811058D01*
X98596569Y-25811060D01*
X98864561Y-25850500D01*
X98864566Y-25850500D01*
X99067636Y-25850500D01*
X99119133Y-25846730D01*
X99270156Y-25835677D01*
X99382758Y-25810593D01*
X99534546Y-25776782D01*
X99534548Y-25776781D01*
X99534553Y-25776780D01*
X99787558Y-25680014D01*
X100023777Y-25547441D01*
X100238177Y-25381888D01*
X100426186Y-25186881D01*
X100583799Y-24966579D01*
X100657787Y-24822669D01*
X100707649Y-24725690D01*
X100707651Y-24725684D01*
X100707656Y-24725675D01*
X100795118Y-24469305D01*
X100844319Y-24202933D01*
X100854212Y-23932235D01*
X100824586Y-23662982D01*
X100756072Y-23400912D01*
X100650130Y-23151610D01*
X100509018Y-22920390D01*
X100471388Y-22875173D01*
X100335746Y-22712180D01*
X100335740Y-22712175D01*
X100134002Y-22531418D01*
X99908092Y-22381957D01*
X99908090Y-22381956D01*
X99662824Y-22266980D01*
X99662819Y-22266978D01*
X99662814Y-22266976D01*
X99403442Y-22188942D01*
X99403428Y-22188939D01*
X99287791Y-22171921D01*
X99135439Y-22149500D01*
X98932369Y-22149500D01*
X98932364Y-22149500D01*
X98729844Y-22164323D01*
X98729831Y-22164325D01*
X98465453Y-22223217D01*
X98465446Y-22223220D01*
X98212439Y-22319987D01*
X97976226Y-22452557D01*
X97976224Y-22452558D01*
X97976223Y-22452559D01*
X97932239Y-22486522D01*
X97761822Y-22618112D01*
X97573822Y-22813109D01*
X97573816Y-22813116D01*
X97416202Y-23033419D01*
X97416199Y-23033424D01*
X97292350Y-23274309D01*
X97292343Y-23274327D01*
X97204884Y-23530685D01*
X97204881Y-23530699D01*
X97155681Y-23797068D01*
X97155680Y-23797075D01*
X97145787Y-24067763D01*
X68221893Y-24067763D01*
X68235368Y-24029255D01*
X68238608Y-24000500D01*
X68255565Y-23850003D01*
X68255565Y-23849996D01*
X68235369Y-23670750D01*
X68235368Y-23670745D01*
X68221451Y-23630973D01*
X68175789Y-23500478D01*
X68079816Y-23347738D01*
X67952262Y-23220184D01*
X67799523Y-23124211D01*
X67629254Y-23064631D01*
X67629249Y-23064630D01*
X67450004Y-23044435D01*
X67449996Y-23044435D01*
X67270750Y-23064630D01*
X67270745Y-23064631D01*
X67100476Y-23124211D01*
X66947737Y-23220184D01*
X66820184Y-23347737D01*
X66724211Y-23500476D01*
X66664631Y-23670745D01*
X66664630Y-23670750D01*
X66644435Y-23849996D01*
X66644435Y-23850003D01*
X62845164Y-23850003D01*
X62824586Y-23662982D01*
X62756072Y-23400912D01*
X62650130Y-23151610D01*
X62509018Y-22920390D01*
X62471388Y-22875173D01*
X62335746Y-22712180D01*
X62335740Y-22712175D01*
X62134002Y-22531418D01*
X61908092Y-22381957D01*
X61908090Y-22381956D01*
X61662824Y-22266980D01*
X61662819Y-22266978D01*
X61662814Y-22266976D01*
X61403442Y-22188942D01*
X61403428Y-22188939D01*
X61287791Y-22171921D01*
X61135439Y-22149500D01*
X60932369Y-22149500D01*
X60932364Y-22149500D01*
X60729844Y-22164323D01*
X60729831Y-22164325D01*
X60465453Y-22223217D01*
X60465446Y-22223220D01*
X60212439Y-22319987D01*
X59976226Y-22452557D01*
X59976224Y-22452558D01*
X59976223Y-22452559D01*
X59932239Y-22486522D01*
X59761822Y-22618112D01*
X59573822Y-22813109D01*
X59573816Y-22813116D01*
X59416202Y-23033419D01*
X59416199Y-23033424D01*
X59292350Y-23274309D01*
X59292343Y-23274327D01*
X59204884Y-23530685D01*
X59204881Y-23530699D01*
X59155681Y-23797068D01*
X59155680Y-23797075D01*
X59145787Y-24067763D01*
X57000500Y-24067763D01*
X57000500Y-24001439D01*
X57000566Y-23998576D01*
X57008487Y-23827238D01*
X57009969Y-23797068D01*
X57018302Y-23627446D01*
X57018818Y-23621955D01*
X57044670Y-23436633D01*
X57072331Y-23250162D01*
X57073292Y-23245137D01*
X57116689Y-23060626D01*
X57161993Y-22879764D01*
X57163323Y-22875216D01*
X57223915Y-22694431D01*
X57286457Y-22519641D01*
X57288100Y-22515527D01*
X57365368Y-22340530D01*
X57444615Y-22172977D01*
X57446444Y-22169423D01*
X57539781Y-22001852D01*
X57634990Y-21843005D01*
X57636979Y-21839904D01*
X57643741Y-21830033D01*
X70474737Y-21830033D01*
X70484756Y-21989273D01*
X70534061Y-22141020D01*
X70619553Y-22275732D01*
X70735864Y-22384955D01*
X70735868Y-22384958D01*
X70858836Y-22452559D01*
X70875682Y-22461820D01*
X71030223Y-22501500D01*
X71030226Y-22501500D01*
X71149728Y-22501500D01*
X71149730Y-22501500D01*
X71149735Y-22501499D01*
X71149739Y-22501499D01*
X71162590Y-22499875D01*
X71268296Y-22486522D01*
X71416645Y-22427786D01*
X71545727Y-22334002D01*
X71647431Y-22211064D01*
X71715366Y-22066695D01*
X71745263Y-21909967D01*
X71740234Y-21830033D01*
X88254737Y-21830033D01*
X88264756Y-21989273D01*
X88314061Y-22141020D01*
X88399553Y-22275732D01*
X88515864Y-22384955D01*
X88515868Y-22384958D01*
X88638836Y-22452559D01*
X88655682Y-22461820D01*
X88810223Y-22501500D01*
X88810226Y-22501500D01*
X88929728Y-22501500D01*
X88929730Y-22501500D01*
X88929735Y-22501499D01*
X88929739Y-22501499D01*
X88942590Y-22499875D01*
X89048296Y-22486522D01*
X89196645Y-22427786D01*
X89325727Y-22334002D01*
X89427431Y-22211064D01*
X89495366Y-22066695D01*
X89525263Y-21909967D01*
X89515244Y-21750728D01*
X89465940Y-21598983D01*
X89465938Y-21598980D01*
X89465938Y-21598979D01*
X89380446Y-21464267D01*
X89264135Y-21355044D01*
X89264131Y-21355041D01*
X89124321Y-21278181D01*
X89124313Y-21278178D01*
X88969779Y-21238500D01*
X88969777Y-21238500D01*
X88850270Y-21238500D01*
X88850260Y-21238500D01*
X88731704Y-21253478D01*
X88731702Y-21253478D01*
X88583356Y-21312213D01*
X88583351Y-21312216D01*
X88454272Y-21405999D01*
X88352567Y-21528938D01*
X88284634Y-21673304D01*
X88284634Y-21673305D01*
X88254737Y-21830030D01*
X88254737Y-21830033D01*
X71740234Y-21830033D01*
X71735244Y-21750728D01*
X71685940Y-21598983D01*
X71685938Y-21598980D01*
X71685938Y-21598979D01*
X71600446Y-21464267D01*
X71484135Y-21355044D01*
X71484131Y-21355041D01*
X71344321Y-21278181D01*
X71344313Y-21278178D01*
X71189779Y-21238500D01*
X71189777Y-21238500D01*
X71070270Y-21238500D01*
X71070260Y-21238500D01*
X70951704Y-21253478D01*
X70951702Y-21253478D01*
X70803356Y-21312213D01*
X70803351Y-21312216D01*
X70674272Y-21405999D01*
X70572567Y-21528938D01*
X70504634Y-21673304D01*
X70504634Y-21673305D01*
X70474737Y-21830030D01*
X70474737Y-21830033D01*
X57643741Y-21830033D01*
X57745570Y-21681381D01*
X57855924Y-21532586D01*
X57857928Y-21530033D01*
X57980875Y-21381973D01*
X58105351Y-21244636D01*
X58107361Y-21242526D01*
X58242526Y-21107361D01*
X58244636Y-21105351D01*
X58381973Y-20980875D01*
X58530033Y-20857928D01*
X58532586Y-20855924D01*
X58681381Y-20745570D01*
X58839904Y-20636979D01*
X58843005Y-20634990D01*
X59001858Y-20539778D01*
X59169423Y-20446444D01*
X59172977Y-20444615D01*
X59340530Y-20365368D01*
X59515538Y-20288095D01*
X59519641Y-20286457D01*
X59694431Y-20223915D01*
X59875216Y-20163323D01*
X59879764Y-20161993D01*
X60060626Y-20116689D01*
X60245137Y-20073292D01*
X60250162Y-20072331D01*
X60436651Y-20044667D01*
X60621955Y-20018818D01*
X60627446Y-20018302D01*
X60826958Y-20008500D01*
X60968945Y-20001935D01*
X60998577Y-20000566D01*
X61001440Y-20000500D01*
X98998560Y-20000500D01*
X99001423Y-20000566D01*
G37*
%TD.AperFunction*%
%TD*%
M02*
