M48
; DRILL file {KiCad 7.0.9} date Sun Nov 19 18:12:53 2023
; FORMAT={-:-/ absolute / inch / decimal}
; #@! TF.CreationDate,2023-11-19T18:12:53+00:00
; #@! TF.GenerationSoftware,Kicad,Pcbnew,7.0.9
; #@! TF.FileFunction,MixedPlating,1,4
FMAT,2
INCH
; #@! TA.AperFunction,Plated,PTH,ViaDrill
T1C0.0118
; #@! TA.AperFunction,Plated,PTH,ComponentDrill
T2C0.0354
; #@! TA.AperFunction,Plated,PTH,ComponentDrill
T3C0.0394
; #@! TA.AperFunction,Plated,PTH,ComponentDrill
T4C0.0433
; #@! TA.AperFunction,Plated,PTH,ComponentDrill
T5C0.0469
; #@! TA.AperFunction,Plated,PTH,ComponentDrill
T6C0.0512
; #@! TA.AperFunction,Plated,PTH,ComponentDrill
T7C0.0748
; #@! TA.AperFunction,NonPlated,NPTH,ComponentDrill
T8C0.0300
; #@! TA.AperFunction,NonPlated,NPTH,ComponentDrill
T9C0.1260
; #@! TA.AperFunction,NonPlated,NPTH,ComponentDrill
T10C0.1575
%
G90
G05
T1
X2.6555Y-0.939
X2.7496Y-2.461
X2.7496Y-2.661
X2.7496Y-2.761
X2.7638Y-1.063
X2.7638Y-2.063
X2.7638Y-2.5591
X2.9724Y-2.2933
X3.1496Y-2.7874
X3.1732Y-2.4882
X3.2185Y-3.1594
X3.3268Y-2.6575
X3.3858Y-2.6575
X3.5354Y-1.063
X3.5354Y-1.5591
X3.5354Y-2.0591
X3.5354Y-2.5591
X3.5496Y-2.661
X3.5496Y-2.761
X3.6811Y-2.6575
T2
X3.0496Y-3.3268
X3.1496Y-3.3268
X3.2496Y-3.3268
T3
X2.8746Y-1.063
X2.8746Y-2.063
X2.9331Y-3.3593
X2.9746Y-1.063
X2.9746Y-2.063
X3.3246Y-1.063
X3.3246Y-2.063
X3.3661Y-3.3593
X3.4246Y-1.063
X3.4246Y-2.063
T4
X2.4311Y-3.1398
X2.4311Y-3.3169
X2.687Y-3.1398
X2.687Y-3.3169
T5
X2.4016Y-1.1992
X2.4016Y-1.2992
X2.4016Y-1.3992
X2.4016Y-1.5929
X2.4016Y-1.6929
X2.4016Y-1.7929
X2.4016Y-1.9866
X2.4016Y-2.0866
X2.4016Y-2.1866
X2.4016Y-2.3803
X2.4016Y-2.4803
X2.4016Y-2.5803
X3.8969Y-1.9866
X3.8969Y-2.0866
X3.8969Y-2.1866
X3.8976Y-1.1992
X3.8976Y-1.2992
X3.8976Y-1.3992
X3.8976Y-1.5929
X3.8976Y-1.6929
X3.8976Y-1.7929
X3.8976Y-2.3803
X3.8976Y-2.4803
X3.8976Y-2.5803
T6
X3.5433Y-3.2224
X3.937Y-3.124
X3.937Y-3.3209
T7
X3.0512Y-2.9656
X3.248Y-2.9656
T8
X2.7996Y-0.861
X2.7996Y-2.761
X3.4996Y-0.861
X3.4996Y-2.761
T9
X2.4016Y-0.9449
X2.4016Y-2.8346
X3.8976Y-0.9449
X3.8976Y-2.8346
T10
X3.7402Y-3.2283
T0
M30
