%TF.GenerationSoftware,KiCad,Pcbnew,7.0.10-7.0.10~ubuntu22.04.1*%
%TF.CreationDate,2024-04-05T13:30:58+01:00*%
%TF.ProjectId,12v-jelly,3132762d-6a65-46c6-9c79-2e6b69636164,rev?*%
%TF.SameCoordinates,Original*%
%TF.FileFunction,Legend,Top*%
%TF.FilePolarity,Positive*%
%FSLAX46Y46*%
G04 Gerber Fmt 4.6, Leading zero omitted, Abs format (unit mm)*
G04 Created by KiCad (PCBNEW 7.0.10-7.0.10~ubuntu22.04.1) date 2024-04-05 13:30:58*
%MOMM*%
%LPD*%
G01*
G04 APERTURE LIST*
%ADD10C,0.300000*%
%ADD11C,0.150000*%
%ADD12C,0.120000*%
G04 APERTURE END LIST*
D10*
X76000001Y-38263328D02*
X75142858Y-38263328D01*
X75571429Y-38263328D02*
X75571429Y-36763328D01*
X75571429Y-36763328D02*
X75428572Y-36977614D01*
X75428572Y-36977614D02*
X75285715Y-37120471D01*
X75285715Y-37120471D02*
X75142858Y-37191900D01*
X76571429Y-36906185D02*
X76642857Y-36834757D01*
X76642857Y-36834757D02*
X76785715Y-36763328D01*
X76785715Y-36763328D02*
X77142857Y-36763328D01*
X77142857Y-36763328D02*
X77285715Y-36834757D01*
X77285715Y-36834757D02*
X77357143Y-36906185D01*
X77357143Y-36906185D02*
X77428572Y-37049042D01*
X77428572Y-37049042D02*
X77428572Y-37191900D01*
X77428572Y-37191900D02*
X77357143Y-37406185D01*
X77357143Y-37406185D02*
X76500000Y-38263328D01*
X76500000Y-38263328D02*
X77428572Y-38263328D01*
X77928571Y-37263328D02*
X78285714Y-38263328D01*
X78285714Y-38263328D02*
X78642857Y-37263328D01*
X80785714Y-36763328D02*
X80785714Y-37834757D01*
X80785714Y-37834757D02*
X80714285Y-38049042D01*
X80714285Y-38049042D02*
X80571428Y-38191900D01*
X80571428Y-38191900D02*
X80357142Y-38263328D01*
X80357142Y-38263328D02*
X80214285Y-38263328D01*
X82071428Y-38191900D02*
X81928571Y-38263328D01*
X81928571Y-38263328D02*
X81642857Y-38263328D01*
X81642857Y-38263328D02*
X81499999Y-38191900D01*
X81499999Y-38191900D02*
X81428571Y-38049042D01*
X81428571Y-38049042D02*
X81428571Y-37477614D01*
X81428571Y-37477614D02*
X81499999Y-37334757D01*
X81499999Y-37334757D02*
X81642857Y-37263328D01*
X81642857Y-37263328D02*
X81928571Y-37263328D01*
X81928571Y-37263328D02*
X82071428Y-37334757D01*
X82071428Y-37334757D02*
X82142857Y-37477614D01*
X82142857Y-37477614D02*
X82142857Y-37620471D01*
X82142857Y-37620471D02*
X81428571Y-37763328D01*
X82999999Y-38263328D02*
X82857142Y-38191900D01*
X82857142Y-38191900D02*
X82785713Y-38049042D01*
X82785713Y-38049042D02*
X82785713Y-36763328D01*
X83785713Y-38263328D02*
X83642856Y-38191900D01*
X83642856Y-38191900D02*
X83571427Y-38049042D01*
X83571427Y-38049042D02*
X83571427Y-36763328D01*
X84214284Y-37263328D02*
X84571427Y-38263328D01*
X84928570Y-37263328D02*
X84571427Y-38263328D01*
X84571427Y-38263328D02*
X84428570Y-38620471D01*
X84428570Y-38620471D02*
X84357141Y-38691900D01*
X84357141Y-38691900D02*
X84214284Y-38763328D01*
X72785714Y-39892614D02*
X73285714Y-39892614D01*
X73500000Y-40678328D02*
X72785714Y-40678328D01*
X72785714Y-40678328D02*
X72785714Y-39178328D01*
X72785714Y-39178328D02*
X73500000Y-39178328D01*
X74000000Y-39678328D02*
X74357143Y-40678328D01*
X74357143Y-40678328D02*
X74714286Y-39678328D01*
X75857143Y-40606900D02*
X75714286Y-40678328D01*
X75714286Y-40678328D02*
X75428572Y-40678328D01*
X75428572Y-40678328D02*
X75285714Y-40606900D01*
X75285714Y-40606900D02*
X75214286Y-40464042D01*
X75214286Y-40464042D02*
X75214286Y-39892614D01*
X75214286Y-39892614D02*
X75285714Y-39749757D01*
X75285714Y-39749757D02*
X75428572Y-39678328D01*
X75428572Y-39678328D02*
X75714286Y-39678328D01*
X75714286Y-39678328D02*
X75857143Y-39749757D01*
X75857143Y-39749757D02*
X75928572Y-39892614D01*
X75928572Y-39892614D02*
X75928572Y-40035471D01*
X75928572Y-40035471D02*
X75214286Y-40178328D01*
X78214285Y-39892614D02*
X78428571Y-39964042D01*
X78428571Y-39964042D02*
X78500000Y-40035471D01*
X78500000Y-40035471D02*
X78571428Y-40178328D01*
X78571428Y-40178328D02*
X78571428Y-40392614D01*
X78571428Y-40392614D02*
X78500000Y-40535471D01*
X78500000Y-40535471D02*
X78428571Y-40606900D01*
X78428571Y-40606900D02*
X78285714Y-40678328D01*
X78285714Y-40678328D02*
X77714285Y-40678328D01*
X77714285Y-40678328D02*
X77714285Y-39178328D01*
X77714285Y-39178328D02*
X78214285Y-39178328D01*
X78214285Y-39178328D02*
X78357143Y-39249757D01*
X78357143Y-39249757D02*
X78428571Y-39321185D01*
X78428571Y-39321185D02*
X78500000Y-39464042D01*
X78500000Y-39464042D02*
X78500000Y-39606900D01*
X78500000Y-39606900D02*
X78428571Y-39749757D01*
X78428571Y-39749757D02*
X78357143Y-39821185D01*
X78357143Y-39821185D02*
X78214285Y-39892614D01*
X78214285Y-39892614D02*
X77714285Y-39892614D01*
X79071428Y-39678328D02*
X79428571Y-40678328D01*
X79785714Y-39678328D02*
X79428571Y-40678328D01*
X79428571Y-40678328D02*
X79285714Y-41035471D01*
X79285714Y-41035471D02*
X79214285Y-41106900D01*
X79214285Y-41106900D02*
X79071428Y-41178328D01*
X80142857Y-39678328D02*
X80714285Y-39678328D01*
X80357142Y-39178328D02*
X80357142Y-40464042D01*
X80357142Y-40464042D02*
X80428571Y-40606900D01*
X80428571Y-40606900D02*
X80571428Y-40678328D01*
X80571428Y-40678328D02*
X80714285Y-40678328D01*
X81214285Y-40678328D02*
X81214285Y-39178328D01*
X81857143Y-40678328D02*
X81857143Y-39892614D01*
X81857143Y-39892614D02*
X81785714Y-39749757D01*
X81785714Y-39749757D02*
X81642857Y-39678328D01*
X81642857Y-39678328D02*
X81428571Y-39678328D01*
X81428571Y-39678328D02*
X81285714Y-39749757D01*
X81285714Y-39749757D02*
X81214285Y-39821185D01*
X83142857Y-40606900D02*
X83000000Y-40678328D01*
X83000000Y-40678328D02*
X82714286Y-40678328D01*
X82714286Y-40678328D02*
X82571428Y-40606900D01*
X82571428Y-40606900D02*
X82500000Y-40464042D01*
X82500000Y-40464042D02*
X82500000Y-39892614D01*
X82500000Y-39892614D02*
X82571428Y-39749757D01*
X82571428Y-39749757D02*
X82714286Y-39678328D01*
X82714286Y-39678328D02*
X83000000Y-39678328D01*
X83000000Y-39678328D02*
X83142857Y-39749757D01*
X83142857Y-39749757D02*
X83214286Y-39892614D01*
X83214286Y-39892614D02*
X83214286Y-40035471D01*
X83214286Y-40035471D02*
X82500000Y-40178328D01*
X83714285Y-39678328D02*
X84000000Y-40678328D01*
X84000000Y-40678328D02*
X84285714Y-39964042D01*
X84285714Y-39964042D02*
X84571428Y-40678328D01*
X84571428Y-40678328D02*
X84857142Y-39678328D01*
X86071429Y-40678328D02*
X86071429Y-39892614D01*
X86071429Y-39892614D02*
X86000000Y-39749757D01*
X86000000Y-39749757D02*
X85857143Y-39678328D01*
X85857143Y-39678328D02*
X85571429Y-39678328D01*
X85571429Y-39678328D02*
X85428571Y-39749757D01*
X86071429Y-40606900D02*
X85928571Y-40678328D01*
X85928571Y-40678328D02*
X85571429Y-40678328D01*
X85571429Y-40678328D02*
X85428571Y-40606900D01*
X85428571Y-40606900D02*
X85357143Y-40464042D01*
X85357143Y-40464042D02*
X85357143Y-40321185D01*
X85357143Y-40321185D02*
X85428571Y-40178328D01*
X85428571Y-40178328D02*
X85571429Y-40106900D01*
X85571429Y-40106900D02*
X85928571Y-40106900D01*
X85928571Y-40106900D02*
X86071429Y-40035471D01*
X86642857Y-39678328D02*
X87000000Y-40678328D01*
X87357143Y-39678328D02*
X87000000Y-40678328D01*
X87000000Y-40678328D02*
X86857143Y-41035471D01*
X86857143Y-41035471D02*
X86785714Y-41106900D01*
X86785714Y-41106900D02*
X86642857Y-41178328D01*
X74142858Y-41736185D02*
X74214286Y-41664757D01*
X74214286Y-41664757D02*
X74357144Y-41593328D01*
X74357144Y-41593328D02*
X74714286Y-41593328D01*
X74714286Y-41593328D02*
X74857144Y-41664757D01*
X74857144Y-41664757D02*
X74928572Y-41736185D01*
X74928572Y-41736185D02*
X75000001Y-41879042D01*
X75000001Y-41879042D02*
X75000001Y-42021900D01*
X75000001Y-42021900D02*
X74928572Y-42236185D01*
X74928572Y-42236185D02*
X74071429Y-43093328D01*
X74071429Y-43093328D02*
X75000001Y-43093328D01*
X76285715Y-42093328D02*
X76285715Y-43093328D01*
X75928572Y-41521900D02*
X75571429Y-42593328D01*
X75571429Y-42593328D02*
X76500000Y-42593328D01*
X77071428Y-42521900D02*
X78214286Y-42521900D01*
X79214286Y-41593328D02*
X79357143Y-41593328D01*
X79357143Y-41593328D02*
X79500000Y-41664757D01*
X79500000Y-41664757D02*
X79571429Y-41736185D01*
X79571429Y-41736185D02*
X79642857Y-41879042D01*
X79642857Y-41879042D02*
X79714286Y-42164757D01*
X79714286Y-42164757D02*
X79714286Y-42521900D01*
X79714286Y-42521900D02*
X79642857Y-42807614D01*
X79642857Y-42807614D02*
X79571429Y-42950471D01*
X79571429Y-42950471D02*
X79500000Y-43021900D01*
X79500000Y-43021900D02*
X79357143Y-43093328D01*
X79357143Y-43093328D02*
X79214286Y-43093328D01*
X79214286Y-43093328D02*
X79071429Y-43021900D01*
X79071429Y-43021900D02*
X79000000Y-42950471D01*
X79000000Y-42950471D02*
X78928571Y-42807614D01*
X78928571Y-42807614D02*
X78857143Y-42521900D01*
X78857143Y-42521900D02*
X78857143Y-42164757D01*
X78857143Y-42164757D02*
X78928571Y-41879042D01*
X78928571Y-41879042D02*
X79000000Y-41736185D01*
X79000000Y-41736185D02*
X79071429Y-41664757D01*
X79071429Y-41664757D02*
X79214286Y-41593328D01*
X81000000Y-42093328D02*
X81000000Y-43093328D01*
X80642857Y-41521900D02*
X80285714Y-42593328D01*
X80285714Y-42593328D02*
X81214285Y-42593328D01*
X81785713Y-42521900D02*
X82928571Y-42521900D01*
X83928571Y-41593328D02*
X84071428Y-41593328D01*
X84071428Y-41593328D02*
X84214285Y-41664757D01*
X84214285Y-41664757D02*
X84285714Y-41736185D01*
X84285714Y-41736185D02*
X84357142Y-41879042D01*
X84357142Y-41879042D02*
X84428571Y-42164757D01*
X84428571Y-42164757D02*
X84428571Y-42521900D01*
X84428571Y-42521900D02*
X84357142Y-42807614D01*
X84357142Y-42807614D02*
X84285714Y-42950471D01*
X84285714Y-42950471D02*
X84214285Y-43021900D01*
X84214285Y-43021900D02*
X84071428Y-43093328D01*
X84071428Y-43093328D02*
X83928571Y-43093328D01*
X83928571Y-43093328D02*
X83785714Y-43021900D01*
X83785714Y-43021900D02*
X83714285Y-42950471D01*
X83714285Y-42950471D02*
X83642856Y-42807614D01*
X83642856Y-42807614D02*
X83571428Y-42521900D01*
X83571428Y-42521900D02*
X83571428Y-42164757D01*
X83571428Y-42164757D02*
X83642856Y-41879042D01*
X83642856Y-41879042D02*
X83714285Y-41736185D01*
X83714285Y-41736185D02*
X83785714Y-41664757D01*
X83785714Y-41664757D02*
X83928571Y-41593328D01*
X85857142Y-43093328D02*
X84999999Y-43093328D01*
X85428570Y-43093328D02*
X85428570Y-41593328D01*
X85428570Y-41593328D02*
X85285713Y-41807614D01*
X85285713Y-41807614D02*
X85142856Y-41950471D01*
X85142856Y-41950471D02*
X84999999Y-42021900D01*
D11*
X83654761Y-24550057D02*
X83559523Y-24502438D01*
X83559523Y-24502438D02*
X83464285Y-24407200D01*
X83464285Y-24407200D02*
X83321428Y-24264342D01*
X83321428Y-24264342D02*
X83226190Y-24216723D01*
X83226190Y-24216723D02*
X83130952Y-24216723D01*
X83178571Y-24454819D02*
X83083333Y-24407200D01*
X83083333Y-24407200D02*
X82988095Y-24311961D01*
X82988095Y-24311961D02*
X82940476Y-24121485D01*
X82940476Y-24121485D02*
X82940476Y-23788152D01*
X82940476Y-23788152D02*
X82988095Y-23597676D01*
X82988095Y-23597676D02*
X83083333Y-23502438D01*
X83083333Y-23502438D02*
X83178571Y-23454819D01*
X83178571Y-23454819D02*
X83369047Y-23454819D01*
X83369047Y-23454819D02*
X83464285Y-23502438D01*
X83464285Y-23502438D02*
X83559523Y-23597676D01*
X83559523Y-23597676D02*
X83607142Y-23788152D01*
X83607142Y-23788152D02*
X83607142Y-24121485D01*
X83607142Y-24121485D02*
X83559523Y-24311961D01*
X83559523Y-24311961D02*
X83464285Y-24407200D01*
X83464285Y-24407200D02*
X83369047Y-24454819D01*
X83369047Y-24454819D02*
X83178571Y-24454819D01*
X83988095Y-23550057D02*
X84035714Y-23502438D01*
X84035714Y-23502438D02*
X84130952Y-23454819D01*
X84130952Y-23454819D02*
X84369047Y-23454819D01*
X84369047Y-23454819D02*
X84464285Y-23502438D01*
X84464285Y-23502438D02*
X84511904Y-23550057D01*
X84511904Y-23550057D02*
X84559523Y-23645295D01*
X84559523Y-23645295D02*
X84559523Y-23740533D01*
X84559523Y-23740533D02*
X84511904Y-23883390D01*
X84511904Y-23883390D02*
X83940476Y-24454819D01*
X83940476Y-24454819D02*
X84559523Y-24454819D01*
X78854819Y-24366666D02*
X78378628Y-24699999D01*
X78854819Y-24938094D02*
X77854819Y-24938094D01*
X77854819Y-24938094D02*
X77854819Y-24557142D01*
X77854819Y-24557142D02*
X77902438Y-24461904D01*
X77902438Y-24461904D02*
X77950057Y-24414285D01*
X77950057Y-24414285D02*
X78045295Y-24366666D01*
X78045295Y-24366666D02*
X78188152Y-24366666D01*
X78188152Y-24366666D02*
X78283390Y-24414285D01*
X78283390Y-24414285D02*
X78331009Y-24461904D01*
X78331009Y-24461904D02*
X78378628Y-24557142D01*
X78378628Y-24557142D02*
X78378628Y-24938094D01*
X78188152Y-23509523D02*
X78854819Y-23509523D01*
X77807200Y-23747618D02*
X78521485Y-23985713D01*
X78521485Y-23985713D02*
X78521485Y-23366666D01*
X79238095Y-70104819D02*
X79238095Y-70914342D01*
X79238095Y-70914342D02*
X79285714Y-71009580D01*
X79285714Y-71009580D02*
X79333333Y-71057200D01*
X79333333Y-71057200D02*
X79428571Y-71104819D01*
X79428571Y-71104819D02*
X79619047Y-71104819D01*
X79619047Y-71104819D02*
X79714285Y-71057200D01*
X79714285Y-71057200D02*
X79761904Y-71009580D01*
X79761904Y-71009580D02*
X79809523Y-70914342D01*
X79809523Y-70914342D02*
X79809523Y-70104819D01*
X80809523Y-71104819D02*
X80238095Y-71104819D01*
X80523809Y-71104819D02*
X80523809Y-70104819D01*
X80523809Y-70104819D02*
X80428571Y-70247676D01*
X80428571Y-70247676D02*
X80333333Y-70342914D01*
X80333333Y-70342914D02*
X80238095Y-70390533D01*
X90433333Y-66554819D02*
X90100000Y-66078628D01*
X89861905Y-66554819D02*
X89861905Y-65554819D01*
X89861905Y-65554819D02*
X90242857Y-65554819D01*
X90242857Y-65554819D02*
X90338095Y-65602438D01*
X90338095Y-65602438D02*
X90385714Y-65650057D01*
X90385714Y-65650057D02*
X90433333Y-65745295D01*
X90433333Y-65745295D02*
X90433333Y-65888152D01*
X90433333Y-65888152D02*
X90385714Y-65983390D01*
X90385714Y-65983390D02*
X90338095Y-66031009D01*
X90338095Y-66031009D02*
X90242857Y-66078628D01*
X90242857Y-66078628D02*
X89861905Y-66078628D01*
X91385714Y-66554819D02*
X90814286Y-66554819D01*
X91100000Y-66554819D02*
X91100000Y-65554819D01*
X91100000Y-65554819D02*
X91004762Y-65697676D01*
X91004762Y-65697676D02*
X90909524Y-65792914D01*
X90909524Y-65792914D02*
X90814286Y-65840533D01*
X94788152Y-32849523D02*
X95454819Y-32849523D01*
X94407200Y-33087618D02*
X95121485Y-33325713D01*
X95121485Y-33325713D02*
X95121485Y-32706666D01*
X85954819Y-81166666D02*
X85478628Y-81499999D01*
X85954819Y-81738094D02*
X84954819Y-81738094D01*
X84954819Y-81738094D02*
X84954819Y-81357142D01*
X84954819Y-81357142D02*
X85002438Y-81261904D01*
X85002438Y-81261904D02*
X85050057Y-81214285D01*
X85050057Y-81214285D02*
X85145295Y-81166666D01*
X85145295Y-81166666D02*
X85288152Y-81166666D01*
X85288152Y-81166666D02*
X85383390Y-81214285D01*
X85383390Y-81214285D02*
X85431009Y-81261904D01*
X85431009Y-81261904D02*
X85478628Y-81357142D01*
X85478628Y-81357142D02*
X85478628Y-81738094D01*
X85050057Y-80785713D02*
X85002438Y-80738094D01*
X85002438Y-80738094D02*
X84954819Y-80642856D01*
X84954819Y-80642856D02*
X84954819Y-80404761D01*
X84954819Y-80404761D02*
X85002438Y-80309523D01*
X85002438Y-80309523D02*
X85050057Y-80261904D01*
X85050057Y-80261904D02*
X85145295Y-80214285D01*
X85145295Y-80214285D02*
X85240533Y-80214285D01*
X85240533Y-80214285D02*
X85383390Y-80261904D01*
X85383390Y-80261904D02*
X85954819Y-80833332D01*
X85954819Y-80833332D02*
X85954819Y-80214285D01*
X65545180Y-43190476D02*
X65545180Y-43000000D01*
X65545180Y-43000000D02*
X65497561Y-42904762D01*
X65497561Y-42904762D02*
X65449942Y-42857143D01*
X65449942Y-42857143D02*
X65307085Y-42761905D01*
X65307085Y-42761905D02*
X65116609Y-42714286D01*
X65116609Y-42714286D02*
X64735657Y-42714286D01*
X64735657Y-42714286D02*
X64640419Y-42761905D01*
X64640419Y-42761905D02*
X64592800Y-42809524D01*
X64592800Y-42809524D02*
X64545180Y-42904762D01*
X64545180Y-42904762D02*
X64545180Y-43095238D01*
X64545180Y-43095238D02*
X64592800Y-43190476D01*
X64592800Y-43190476D02*
X64640419Y-43238095D01*
X64640419Y-43238095D02*
X64735657Y-43285714D01*
X64735657Y-43285714D02*
X64973752Y-43285714D01*
X64973752Y-43285714D02*
X65068990Y-43238095D01*
X65068990Y-43238095D02*
X65116609Y-43190476D01*
X65116609Y-43190476D02*
X65164228Y-43095238D01*
X65164228Y-43095238D02*
X65164228Y-42904762D01*
X65164228Y-42904762D02*
X65116609Y-42809524D01*
X65116609Y-42809524D02*
X65068990Y-42761905D01*
X65068990Y-42761905D02*
X64973752Y-42714286D01*
X63666667Y-86657200D02*
X63809524Y-86704819D01*
X63809524Y-86704819D02*
X64047619Y-86704819D01*
X64047619Y-86704819D02*
X64142857Y-86657200D01*
X64142857Y-86657200D02*
X64190476Y-86609580D01*
X64190476Y-86609580D02*
X64238095Y-86514342D01*
X64238095Y-86514342D02*
X64238095Y-86419104D01*
X64238095Y-86419104D02*
X64190476Y-86323866D01*
X64190476Y-86323866D02*
X64142857Y-86276247D01*
X64142857Y-86276247D02*
X64047619Y-86228628D01*
X64047619Y-86228628D02*
X63857143Y-86181009D01*
X63857143Y-86181009D02*
X63761905Y-86133390D01*
X63761905Y-86133390D02*
X63714286Y-86085771D01*
X63714286Y-86085771D02*
X63666667Y-85990533D01*
X63666667Y-85990533D02*
X63666667Y-85895295D01*
X63666667Y-85895295D02*
X63714286Y-85800057D01*
X63714286Y-85800057D02*
X63761905Y-85752438D01*
X63761905Y-85752438D02*
X63857143Y-85704819D01*
X63857143Y-85704819D02*
X64095238Y-85704819D01*
X64095238Y-85704819D02*
X64238095Y-85752438D01*
X64571429Y-85704819D02*
X64809524Y-86704819D01*
X64809524Y-86704819D02*
X65000000Y-85990533D01*
X65000000Y-85990533D02*
X65190476Y-86704819D01*
X65190476Y-86704819D02*
X65428572Y-85704819D01*
X65761905Y-85800057D02*
X65809524Y-85752438D01*
X65809524Y-85752438D02*
X65904762Y-85704819D01*
X65904762Y-85704819D02*
X66142857Y-85704819D01*
X66142857Y-85704819D02*
X66238095Y-85752438D01*
X66238095Y-85752438D02*
X66285714Y-85800057D01*
X66285714Y-85800057D02*
X66333333Y-85895295D01*
X66333333Y-85895295D02*
X66333333Y-85990533D01*
X66333333Y-85990533D02*
X66285714Y-86133390D01*
X66285714Y-86133390D02*
X65714286Y-86704819D01*
X65714286Y-86704819D02*
X66333333Y-86704819D01*
X94454819Y-43373332D02*
X94454819Y-42754285D01*
X94454819Y-42754285D02*
X94835771Y-43087618D01*
X94835771Y-43087618D02*
X94835771Y-42944761D01*
X94835771Y-42944761D02*
X94883390Y-42849523D01*
X94883390Y-42849523D02*
X94931009Y-42801904D01*
X94931009Y-42801904D02*
X95026247Y-42754285D01*
X95026247Y-42754285D02*
X95264342Y-42754285D01*
X95264342Y-42754285D02*
X95359580Y-42801904D01*
X95359580Y-42801904D02*
X95407200Y-42849523D01*
X95407200Y-42849523D02*
X95454819Y-42944761D01*
X95454819Y-42944761D02*
X95454819Y-43230475D01*
X95454819Y-43230475D02*
X95407200Y-43325713D01*
X95407200Y-43325713D02*
X95359580Y-43373332D01*
X67454819Y-28738094D02*
X66454819Y-28738094D01*
X66454819Y-28738094D02*
X66454819Y-28499999D01*
X66454819Y-28499999D02*
X66502438Y-28357142D01*
X66502438Y-28357142D02*
X66597676Y-28261904D01*
X66597676Y-28261904D02*
X66692914Y-28214285D01*
X66692914Y-28214285D02*
X66883390Y-28166666D01*
X66883390Y-28166666D02*
X67026247Y-28166666D01*
X67026247Y-28166666D02*
X67216723Y-28214285D01*
X67216723Y-28214285D02*
X67311961Y-28261904D01*
X67311961Y-28261904D02*
X67407200Y-28357142D01*
X67407200Y-28357142D02*
X67454819Y-28499999D01*
X67454819Y-28499999D02*
X67454819Y-28738094D01*
X67454819Y-27214285D02*
X67454819Y-27785713D01*
X67454819Y-27499999D02*
X66454819Y-27499999D01*
X66454819Y-27499999D02*
X66597676Y-27595237D01*
X66597676Y-27595237D02*
X66692914Y-27690475D01*
X66692914Y-27690475D02*
X66740533Y-27785713D01*
X65545180Y-52626667D02*
X65545180Y-53293333D01*
X65545180Y-53293333D02*
X64545180Y-52864762D01*
X81583333Y-80859580D02*
X81535714Y-80907200D01*
X81535714Y-80907200D02*
X81392857Y-80954819D01*
X81392857Y-80954819D02*
X81297619Y-80954819D01*
X81297619Y-80954819D02*
X81154762Y-80907200D01*
X81154762Y-80907200D02*
X81059524Y-80811961D01*
X81059524Y-80811961D02*
X81011905Y-80716723D01*
X81011905Y-80716723D02*
X80964286Y-80526247D01*
X80964286Y-80526247D02*
X80964286Y-80383390D01*
X80964286Y-80383390D02*
X81011905Y-80192914D01*
X81011905Y-80192914D02*
X81059524Y-80097676D01*
X81059524Y-80097676D02*
X81154762Y-80002438D01*
X81154762Y-80002438D02*
X81297619Y-79954819D01*
X81297619Y-79954819D02*
X81392857Y-79954819D01*
X81392857Y-79954819D02*
X81535714Y-80002438D01*
X81535714Y-80002438D02*
X81583333Y-80050057D01*
X81964286Y-80050057D02*
X82011905Y-80002438D01*
X82011905Y-80002438D02*
X82107143Y-79954819D01*
X82107143Y-79954819D02*
X82345238Y-79954819D01*
X82345238Y-79954819D02*
X82440476Y-80002438D01*
X82440476Y-80002438D02*
X82488095Y-80050057D01*
X82488095Y-80050057D02*
X82535714Y-80145295D01*
X82535714Y-80145295D02*
X82535714Y-80240533D01*
X82535714Y-80240533D02*
X82488095Y-80383390D01*
X82488095Y-80383390D02*
X81916667Y-80954819D01*
X81916667Y-80954819D02*
X82535714Y-80954819D01*
X65545180Y-33238095D02*
X65545180Y-32761905D01*
X65545180Y-32761905D02*
X65068990Y-32714286D01*
X65068990Y-32714286D02*
X65116609Y-32761905D01*
X65116609Y-32761905D02*
X65164228Y-32857143D01*
X65164228Y-32857143D02*
X65164228Y-33095238D01*
X65164228Y-33095238D02*
X65116609Y-33190476D01*
X65116609Y-33190476D02*
X65068990Y-33238095D01*
X65068990Y-33238095D02*
X64973752Y-33285714D01*
X64973752Y-33285714D02*
X64735657Y-33285714D01*
X64735657Y-33285714D02*
X64640419Y-33238095D01*
X64640419Y-33238095D02*
X64592800Y-33190476D01*
X64592800Y-33190476D02*
X64545180Y-33095238D01*
X64545180Y-33095238D02*
X64545180Y-32857143D01*
X64545180Y-32857143D02*
X64592800Y-32761905D01*
X64592800Y-32761905D02*
X64640419Y-32714286D01*
X65116609Y-62944762D02*
X65164228Y-62849524D01*
X65164228Y-62849524D02*
X65211847Y-62801905D01*
X65211847Y-62801905D02*
X65307085Y-62754286D01*
X65307085Y-62754286D02*
X65354704Y-62754286D01*
X65354704Y-62754286D02*
X65449942Y-62801905D01*
X65449942Y-62801905D02*
X65497561Y-62849524D01*
X65497561Y-62849524D02*
X65545180Y-62944762D01*
X65545180Y-62944762D02*
X65545180Y-63135238D01*
X65545180Y-63135238D02*
X65497561Y-63230476D01*
X65497561Y-63230476D02*
X65449942Y-63278095D01*
X65449942Y-63278095D02*
X65354704Y-63325714D01*
X65354704Y-63325714D02*
X65307085Y-63325714D01*
X65307085Y-63325714D02*
X65211847Y-63278095D01*
X65211847Y-63278095D02*
X65164228Y-63230476D01*
X65164228Y-63230476D02*
X65116609Y-63135238D01*
X65116609Y-63135238D02*
X65116609Y-62944762D01*
X65116609Y-62944762D02*
X65068990Y-62849524D01*
X65068990Y-62849524D02*
X65021371Y-62801905D01*
X65021371Y-62801905D02*
X64926133Y-62754286D01*
X64926133Y-62754286D02*
X64735657Y-62754286D01*
X64735657Y-62754286D02*
X64640419Y-62801905D01*
X64640419Y-62801905D02*
X64592800Y-62849524D01*
X64592800Y-62849524D02*
X64545180Y-62944762D01*
X64545180Y-62944762D02*
X64545180Y-63135238D01*
X64545180Y-63135238D02*
X64592800Y-63230476D01*
X64592800Y-63230476D02*
X64640419Y-63278095D01*
X64640419Y-63278095D02*
X64735657Y-63325714D01*
X64735657Y-63325714D02*
X64926133Y-63325714D01*
X64926133Y-63325714D02*
X65021371Y-63278095D01*
X65021371Y-63278095D02*
X65068990Y-63230476D01*
X65068990Y-63230476D02*
X65116609Y-63135238D01*
X78333333Y-80839819D02*
X78000000Y-80363628D01*
X77761905Y-80839819D02*
X77761905Y-79839819D01*
X77761905Y-79839819D02*
X78142857Y-79839819D01*
X78142857Y-79839819D02*
X78238095Y-79887438D01*
X78238095Y-79887438D02*
X78285714Y-79935057D01*
X78285714Y-79935057D02*
X78333333Y-80030295D01*
X78333333Y-80030295D02*
X78333333Y-80173152D01*
X78333333Y-80173152D02*
X78285714Y-80268390D01*
X78285714Y-80268390D02*
X78238095Y-80316009D01*
X78238095Y-80316009D02*
X78142857Y-80363628D01*
X78142857Y-80363628D02*
X77761905Y-80363628D01*
X78666667Y-79839819D02*
X79285714Y-79839819D01*
X79285714Y-79839819D02*
X78952381Y-80220771D01*
X78952381Y-80220771D02*
X79095238Y-80220771D01*
X79095238Y-80220771D02*
X79190476Y-80268390D01*
X79190476Y-80268390D02*
X79238095Y-80316009D01*
X79238095Y-80316009D02*
X79285714Y-80411247D01*
X79285714Y-80411247D02*
X79285714Y-80649342D01*
X79285714Y-80649342D02*
X79238095Y-80744580D01*
X79238095Y-80744580D02*
X79190476Y-80792200D01*
X79190476Y-80792200D02*
X79095238Y-80839819D01*
X79095238Y-80839819D02*
X78809524Y-80839819D01*
X78809524Y-80839819D02*
X78714286Y-80792200D01*
X78714286Y-80792200D02*
X78666667Y-80744580D01*
X94530057Y-53245713D02*
X94482438Y-53198094D01*
X94482438Y-53198094D02*
X94434819Y-53102856D01*
X94434819Y-53102856D02*
X94434819Y-52864761D01*
X94434819Y-52864761D02*
X94482438Y-52769523D01*
X94482438Y-52769523D02*
X94530057Y-52721904D01*
X94530057Y-52721904D02*
X94625295Y-52674285D01*
X94625295Y-52674285D02*
X94720533Y-52674285D01*
X94720533Y-52674285D02*
X94863390Y-52721904D01*
X94863390Y-52721904D02*
X95434819Y-53293332D01*
X95434819Y-53293332D02*
X95434819Y-52674285D01*
X80920833Y-24954819D02*
X80587500Y-24478628D01*
X80349405Y-24954819D02*
X80349405Y-23954819D01*
X80349405Y-23954819D02*
X80730357Y-23954819D01*
X80730357Y-23954819D02*
X80825595Y-24002438D01*
X80825595Y-24002438D02*
X80873214Y-24050057D01*
X80873214Y-24050057D02*
X80920833Y-24145295D01*
X80920833Y-24145295D02*
X80920833Y-24288152D01*
X80920833Y-24288152D02*
X80873214Y-24383390D01*
X80873214Y-24383390D02*
X80825595Y-24431009D01*
X80825595Y-24431009D02*
X80730357Y-24478628D01*
X80730357Y-24478628D02*
X80349405Y-24478628D01*
X81825595Y-23954819D02*
X81349405Y-23954819D01*
X81349405Y-23954819D02*
X81301786Y-24431009D01*
X81301786Y-24431009D02*
X81349405Y-24383390D01*
X81349405Y-24383390D02*
X81444643Y-24335771D01*
X81444643Y-24335771D02*
X81682738Y-24335771D01*
X81682738Y-24335771D02*
X81777976Y-24383390D01*
X81777976Y-24383390D02*
X81825595Y-24431009D01*
X81825595Y-24431009D02*
X81873214Y-24526247D01*
X81873214Y-24526247D02*
X81873214Y-24764342D01*
X81873214Y-24764342D02*
X81825595Y-24859580D01*
X81825595Y-24859580D02*
X81777976Y-24907200D01*
X81777976Y-24907200D02*
X81682738Y-24954819D01*
X81682738Y-24954819D02*
X81444643Y-24954819D01*
X81444643Y-24954819D02*
X81349405Y-24907200D01*
X81349405Y-24907200D02*
X81301786Y-24859580D01*
X95454819Y-62674285D02*
X95454819Y-63245713D01*
X95454819Y-62959999D02*
X94454819Y-62959999D01*
X94454819Y-62959999D02*
X94597676Y-63055237D01*
X94597676Y-63055237D02*
X94692914Y-63150475D01*
X94692914Y-63150475D02*
X94740533Y-63245713D01*
X79238095Y-86204819D02*
X79238095Y-87014342D01*
X79238095Y-87014342D02*
X79285714Y-87109580D01*
X79285714Y-87109580D02*
X79333333Y-87157200D01*
X79333333Y-87157200D02*
X79428571Y-87204819D01*
X79428571Y-87204819D02*
X79619047Y-87204819D01*
X79619047Y-87204819D02*
X79714285Y-87157200D01*
X79714285Y-87157200D02*
X79761904Y-87109580D01*
X79761904Y-87109580D02*
X79809523Y-87014342D01*
X79809523Y-87014342D02*
X79809523Y-86204819D01*
X80714285Y-86538152D02*
X80714285Y-87204819D01*
X80476190Y-86157200D02*
X80238095Y-86871485D01*
X80238095Y-86871485D02*
X80857142Y-86871485D01*
X88259580Y-68141666D02*
X88307200Y-68189285D01*
X88307200Y-68189285D02*
X88354819Y-68332142D01*
X88354819Y-68332142D02*
X88354819Y-68427380D01*
X88354819Y-68427380D02*
X88307200Y-68570237D01*
X88307200Y-68570237D02*
X88211961Y-68665475D01*
X88211961Y-68665475D02*
X88116723Y-68713094D01*
X88116723Y-68713094D02*
X87926247Y-68760713D01*
X87926247Y-68760713D02*
X87783390Y-68760713D01*
X87783390Y-68760713D02*
X87592914Y-68713094D01*
X87592914Y-68713094D02*
X87497676Y-68665475D01*
X87497676Y-68665475D02*
X87402438Y-68570237D01*
X87402438Y-68570237D02*
X87354819Y-68427380D01*
X87354819Y-68427380D02*
X87354819Y-68332142D01*
X87354819Y-68332142D02*
X87402438Y-68189285D01*
X87402438Y-68189285D02*
X87450057Y-68141666D01*
X88354819Y-67189285D02*
X88354819Y-67760713D01*
X88354819Y-67474999D02*
X87354819Y-67474999D01*
X87354819Y-67474999D02*
X87497676Y-67570237D01*
X87497676Y-67570237D02*
X87592914Y-67665475D01*
X87592914Y-67665475D02*
X87640533Y-67760713D01*
X75450057Y-24745238D02*
X75402438Y-24840476D01*
X75402438Y-24840476D02*
X75307200Y-24935714D01*
X75307200Y-24935714D02*
X75164342Y-25078571D01*
X75164342Y-25078571D02*
X75116723Y-25173809D01*
X75116723Y-25173809D02*
X75116723Y-25269047D01*
X75354819Y-25221428D02*
X75307200Y-25316666D01*
X75307200Y-25316666D02*
X75211961Y-25411904D01*
X75211961Y-25411904D02*
X75021485Y-25459523D01*
X75021485Y-25459523D02*
X74688152Y-25459523D01*
X74688152Y-25459523D02*
X74497676Y-25411904D01*
X74497676Y-25411904D02*
X74402438Y-25316666D01*
X74402438Y-25316666D02*
X74354819Y-25221428D01*
X74354819Y-25221428D02*
X74354819Y-25030952D01*
X74354819Y-25030952D02*
X74402438Y-24935714D01*
X74402438Y-24935714D02*
X74497676Y-24840476D01*
X74497676Y-24840476D02*
X74688152Y-24792857D01*
X74688152Y-24792857D02*
X75021485Y-24792857D01*
X75021485Y-24792857D02*
X75211961Y-24840476D01*
X75211961Y-24840476D02*
X75307200Y-24935714D01*
X75307200Y-24935714D02*
X75354819Y-25030952D01*
X75354819Y-25030952D02*
X75354819Y-25221428D01*
X75354819Y-23840476D02*
X75354819Y-24411904D01*
X75354819Y-24126190D02*
X74354819Y-24126190D01*
X74354819Y-24126190D02*
X74497676Y-24221428D01*
X74497676Y-24221428D02*
X74592914Y-24316666D01*
X74592914Y-24316666D02*
X74640533Y-24411904D01*
X94404761Y-76454819D02*
X94071428Y-75978628D01*
X93833333Y-76454819D02*
X93833333Y-75454819D01*
X93833333Y-75454819D02*
X94214285Y-75454819D01*
X94214285Y-75454819D02*
X94309523Y-75502438D01*
X94309523Y-75502438D02*
X94357142Y-75550057D01*
X94357142Y-75550057D02*
X94404761Y-75645295D01*
X94404761Y-75645295D02*
X94404761Y-75788152D01*
X94404761Y-75788152D02*
X94357142Y-75883390D01*
X94357142Y-75883390D02*
X94309523Y-75931009D01*
X94309523Y-75931009D02*
X94214285Y-75978628D01*
X94214285Y-75978628D02*
X93833333Y-75978628D01*
X94690476Y-75454819D02*
X95023809Y-76454819D01*
X95023809Y-76454819D02*
X95357142Y-75454819D01*
X96214285Y-76454819D02*
X95642857Y-76454819D01*
X95928571Y-76454819D02*
X95928571Y-75454819D01*
X95928571Y-75454819D02*
X95833333Y-75597676D01*
X95833333Y-75597676D02*
X95738095Y-75692914D01*
X95738095Y-75692914D02*
X95642857Y-75740533D01*
D12*
%TO.C,Q2*%
X83750000Y-25190000D02*
X83100000Y-25190000D01*
X83750000Y-25190000D02*
X84400000Y-25190000D01*
X83750000Y-28310000D02*
X83100000Y-28310000D01*
X83750000Y-28310000D02*
X84400000Y-28310000D01*
X82587500Y-25240000D02*
X82347500Y-24910000D01*
X82827500Y-24910000D01*
X82587500Y-25240000D01*
G36*
X82587500Y-25240000D02*
G01*
X82347500Y-24910000D01*
X82827500Y-24910000D01*
X82587500Y-25240000D01*
G37*
%TO.C,R4*%
X78922500Y-26562742D02*
X78922500Y-27037258D01*
X77877500Y-26562742D02*
X77877500Y-27037258D01*
%TO.C,U1*%
X85060000Y-66250000D02*
X85060000Y-64300000D01*
X85060000Y-66250000D02*
X85060000Y-68200000D01*
X74940000Y-66250000D02*
X74940000Y-64300000D01*
X74940000Y-66250000D02*
X74940000Y-68200000D01*
X85335000Y-63790000D02*
X85005000Y-63550000D01*
X85335000Y-63310000D01*
X85335000Y-63790000D01*
G36*
X85335000Y-63790000D02*
G01*
X85005000Y-63550000D01*
X85335000Y-63310000D01*
X85335000Y-63790000D01*
G37*
%TO.C,R1*%
X90837258Y-68122500D02*
X90362742Y-68122500D01*
X90837258Y-67077500D02*
X90362742Y-67077500D01*
%TO.C,J6*%
X101000000Y-28790000D02*
X97000000Y-28790000D01*
X102030000Y-29080000D02*
X96010000Y-29080000D01*
X96010000Y-29080000D02*
X96010000Y-36920000D01*
X102030000Y-29660000D02*
X101430000Y-29660000D01*
X101430000Y-29660000D02*
X101430000Y-31260000D01*
X97010000Y-30460000D02*
X97540000Y-30710000D01*
X97010000Y-30460000D02*
X97010000Y-35540000D01*
X96010000Y-30460000D02*
X97010000Y-30460000D01*
X97540000Y-30710000D02*
X97540000Y-35290000D01*
X96010000Y-30710000D02*
X97010000Y-30710000D01*
X101430000Y-31260000D02*
X102030000Y-31260000D01*
X102030000Y-32200000D02*
X101430000Y-32200000D01*
X101430000Y-32200000D02*
X101430000Y-33800000D01*
X101430000Y-33800000D02*
X102030000Y-33800000D01*
X102030000Y-34740000D02*
X101430000Y-34740000D01*
X101430000Y-34740000D02*
X101430000Y-36340000D01*
X97540000Y-35290000D02*
X97010000Y-35540000D01*
X96010000Y-35290000D02*
X97010000Y-35290000D01*
X97010000Y-35540000D02*
X96010000Y-35540000D01*
X101430000Y-36340000D02*
X102030000Y-36340000D01*
X102030000Y-36920000D02*
X102030000Y-29080000D01*
X96010000Y-36920000D02*
X102030000Y-36920000D01*
%TO.C,U3*%
X70000000Y-60750000D02*
X70000000Y-28750000D01*
X72400000Y-60750000D02*
X70000000Y-60750000D01*
X83800000Y-60750000D02*
X76200000Y-60750000D01*
X90000000Y-60750000D02*
X87600000Y-60750000D01*
X70000000Y-28750000D02*
X72400000Y-28750000D01*
X76200000Y-28750000D02*
X83800000Y-28750000D01*
X87600000Y-28750000D02*
X90100000Y-28750000D01*
X90000000Y-28750000D02*
X90000000Y-60750000D01*
%TO.C,R2*%
X83477500Y-81302258D02*
X83477500Y-80827742D01*
X84522500Y-81302258D02*
X84522500Y-80827742D01*
%TO.C,J8*%
X59000000Y-47210000D02*
X63000000Y-47210000D01*
X57970000Y-46920000D02*
X63990000Y-46920000D01*
X63990000Y-46920000D02*
X63990000Y-39080000D01*
X57970000Y-46340000D02*
X58570000Y-46340000D01*
X58570000Y-46340000D02*
X58570000Y-44740000D01*
X62990000Y-45540000D02*
X62460000Y-45290000D01*
X62990000Y-45540000D02*
X62990000Y-40460000D01*
X63990000Y-45540000D02*
X62990000Y-45540000D01*
X62460000Y-45290000D02*
X62460000Y-40710000D01*
X63990000Y-45290000D02*
X62990000Y-45290000D01*
X58570000Y-44740000D02*
X57970000Y-44740000D01*
X57970000Y-43800000D02*
X58570000Y-43800000D01*
X58570000Y-43800000D02*
X58570000Y-42200000D01*
X58570000Y-42200000D02*
X57970000Y-42200000D01*
X57970000Y-41260000D02*
X58570000Y-41260000D01*
X58570000Y-41260000D02*
X58570000Y-39660000D01*
X62460000Y-40710000D02*
X62990000Y-40460000D01*
X63990000Y-40710000D02*
X62990000Y-40710000D01*
X62990000Y-40460000D02*
X63990000Y-40460000D01*
X58570000Y-39660000D02*
X57970000Y-39660000D01*
X57970000Y-39080000D02*
X57970000Y-46920000D01*
X63990000Y-39080000D02*
X57970000Y-39080000D01*
%TO.C,SW2*%
X68500000Y-82750000D02*
X68500000Y-81250000D01*
X67250000Y-78750000D02*
X62750000Y-78750000D01*
X62750000Y-85250000D02*
X67250000Y-85250000D01*
X61500000Y-81250000D02*
X61500000Y-82750000D01*
%TO.C,J5*%
X101000000Y-38790000D02*
X97000000Y-38790000D01*
X102030000Y-39080000D02*
X96010000Y-39080000D01*
X96010000Y-39080000D02*
X96010000Y-46920000D01*
X102030000Y-39660000D02*
X101430000Y-39660000D01*
X101430000Y-39660000D02*
X101430000Y-41260000D01*
X97010000Y-40460000D02*
X97540000Y-40710000D01*
X97010000Y-40460000D02*
X97010000Y-45540000D01*
X96010000Y-40460000D02*
X97010000Y-40460000D01*
X97540000Y-40710000D02*
X97540000Y-45290000D01*
X96010000Y-40710000D02*
X97010000Y-40710000D01*
X101430000Y-41260000D02*
X102030000Y-41260000D01*
X102030000Y-42200000D02*
X101430000Y-42200000D01*
X101430000Y-42200000D02*
X101430000Y-43800000D01*
X101430000Y-43800000D02*
X102030000Y-43800000D01*
X102030000Y-44740000D02*
X101430000Y-44740000D01*
X101430000Y-44740000D02*
X101430000Y-46340000D01*
X97540000Y-45290000D02*
X97010000Y-45540000D01*
X96010000Y-45290000D02*
X97010000Y-45290000D01*
X97010000Y-45540000D02*
X96010000Y-45540000D01*
X101430000Y-46340000D02*
X102030000Y-46340000D01*
X102030000Y-46920000D02*
X102030000Y-39080000D01*
X96010000Y-46920000D02*
X102030000Y-46920000D01*
%TO.C,D1*%
X67790000Y-29685000D02*
X69710000Y-29685000D01*
X69710000Y-29685000D02*
X69710000Y-27000000D01*
X67790000Y-27000000D02*
X67790000Y-29685000D01*
%TO.C,J9*%
X59000000Y-57210000D02*
X63000000Y-57210000D01*
X57970000Y-56920000D02*
X63990000Y-56920000D01*
X63990000Y-56920000D02*
X63990000Y-49080000D01*
X57970000Y-56340000D02*
X58570000Y-56340000D01*
X58570000Y-56340000D02*
X58570000Y-54740000D01*
X62990000Y-55540000D02*
X62460000Y-55290000D01*
X62990000Y-55540000D02*
X62990000Y-50460000D01*
X63990000Y-55540000D02*
X62990000Y-55540000D01*
X62460000Y-55290000D02*
X62460000Y-50710000D01*
X63990000Y-55290000D02*
X62990000Y-55290000D01*
X58570000Y-54740000D02*
X57970000Y-54740000D01*
X57970000Y-53800000D02*
X58570000Y-53800000D01*
X58570000Y-53800000D02*
X58570000Y-52200000D01*
X58570000Y-52200000D02*
X57970000Y-52200000D01*
X57970000Y-51260000D02*
X58570000Y-51260000D01*
X58570000Y-51260000D02*
X58570000Y-49660000D01*
X62460000Y-50710000D02*
X62990000Y-50460000D01*
X63990000Y-50710000D02*
X62990000Y-50710000D01*
X62990000Y-50460000D02*
X63990000Y-50460000D01*
X58570000Y-49660000D02*
X57970000Y-49660000D01*
X57970000Y-49080000D02*
X57970000Y-56920000D01*
X63990000Y-49080000D02*
X57970000Y-49080000D01*
%TO.C,C2*%
X81890580Y-82325000D02*
X81609420Y-82325000D01*
X81890580Y-81305000D02*
X81609420Y-81305000D01*
%TO.C,J7*%
X59000000Y-37210000D02*
X63000000Y-37210000D01*
X57970000Y-36920000D02*
X63990000Y-36920000D01*
X63990000Y-36920000D02*
X63990000Y-29080000D01*
X57970000Y-36340000D02*
X58570000Y-36340000D01*
X58570000Y-36340000D02*
X58570000Y-34740000D01*
X62990000Y-35540000D02*
X62460000Y-35290000D01*
X62990000Y-35540000D02*
X62990000Y-30460000D01*
X63990000Y-35540000D02*
X62990000Y-35540000D01*
X62460000Y-35290000D02*
X62460000Y-30710000D01*
X63990000Y-35290000D02*
X62990000Y-35290000D01*
X58570000Y-34740000D02*
X57970000Y-34740000D01*
X57970000Y-33800000D02*
X58570000Y-33800000D01*
X58570000Y-33800000D02*
X58570000Y-32200000D01*
X58570000Y-32200000D02*
X57970000Y-32200000D01*
X57970000Y-31260000D02*
X58570000Y-31260000D01*
X58570000Y-31260000D02*
X58570000Y-29660000D01*
X62460000Y-30710000D02*
X62990000Y-30460000D01*
X63990000Y-30710000D02*
X62990000Y-30710000D01*
X62990000Y-30460000D02*
X63990000Y-30460000D01*
X58570000Y-29660000D02*
X57970000Y-29660000D01*
X57970000Y-29080000D02*
X57970000Y-36920000D01*
X63990000Y-29080000D02*
X57970000Y-29080000D01*
%TO.C,J10*%
X59000000Y-67210000D02*
X63000000Y-67210000D01*
X57970000Y-66920000D02*
X63990000Y-66920000D01*
X63990000Y-66920000D02*
X63990000Y-59080000D01*
X57970000Y-66340000D02*
X58570000Y-66340000D01*
X58570000Y-66340000D02*
X58570000Y-64740000D01*
X62990000Y-65540000D02*
X62460000Y-65290000D01*
X62990000Y-65540000D02*
X62990000Y-60460000D01*
X63990000Y-65540000D02*
X62990000Y-65540000D01*
X62460000Y-65290000D02*
X62460000Y-60710000D01*
X63990000Y-65290000D02*
X62990000Y-65290000D01*
X58570000Y-64740000D02*
X57970000Y-64740000D01*
X57970000Y-63800000D02*
X58570000Y-63800000D01*
X58570000Y-63800000D02*
X58570000Y-62200000D01*
X58570000Y-62200000D02*
X57970000Y-62200000D01*
X57970000Y-61260000D02*
X58570000Y-61260000D01*
X58570000Y-61260000D02*
X58570000Y-59660000D01*
X62460000Y-60710000D02*
X62990000Y-60460000D01*
X63990000Y-60710000D02*
X62990000Y-60710000D01*
X62990000Y-60460000D02*
X63990000Y-60460000D01*
X58570000Y-59660000D02*
X57970000Y-59660000D01*
X57970000Y-59080000D02*
X57970000Y-66920000D01*
X63990000Y-59080000D02*
X57970000Y-59080000D01*
%TO.C,R3*%
X78262742Y-81292500D02*
X78737258Y-81292500D01*
X78262742Y-82337500D02*
X78737258Y-82337500D01*
%TO.C,J4*%
X100980000Y-48790000D02*
X96980000Y-48790000D01*
X102010000Y-49080000D02*
X95990000Y-49080000D01*
X95990000Y-49080000D02*
X95990000Y-56920000D01*
X102010000Y-49660000D02*
X101410000Y-49660000D01*
X101410000Y-49660000D02*
X101410000Y-51260000D01*
X96990000Y-50460000D02*
X97520000Y-50710000D01*
X96990000Y-50460000D02*
X96990000Y-55540000D01*
X95990000Y-50460000D02*
X96990000Y-50460000D01*
X97520000Y-50710000D02*
X97520000Y-55290000D01*
X95990000Y-50710000D02*
X96990000Y-50710000D01*
X101410000Y-51260000D02*
X102010000Y-51260000D01*
X102010000Y-52200000D02*
X101410000Y-52200000D01*
X101410000Y-52200000D02*
X101410000Y-53800000D01*
X101410000Y-53800000D02*
X102010000Y-53800000D01*
X102010000Y-54740000D02*
X101410000Y-54740000D01*
X101410000Y-54740000D02*
X101410000Y-56340000D01*
X97520000Y-55290000D02*
X96990000Y-55540000D01*
X95990000Y-55290000D02*
X96990000Y-55290000D01*
X96990000Y-55540000D02*
X95990000Y-55540000D01*
X101410000Y-56340000D02*
X102010000Y-56340000D01*
X102010000Y-56920000D02*
X102010000Y-49080000D01*
X95990000Y-56920000D02*
X102010000Y-56920000D01*
%TO.C,R5*%
X81610000Y-26512742D02*
X81610000Y-26987258D01*
X80565000Y-26512742D02*
X80565000Y-26987258D01*
%TO.C,J3*%
X101000000Y-58790000D02*
X97000000Y-58790000D01*
X102030000Y-59080000D02*
X96010000Y-59080000D01*
X96010000Y-59080000D02*
X96010000Y-66920000D01*
X102030000Y-59660000D02*
X101430000Y-59660000D01*
X101430000Y-59660000D02*
X101430000Y-61260000D01*
X97010000Y-60460000D02*
X97540000Y-60710000D01*
X97010000Y-60460000D02*
X97010000Y-65540000D01*
X96010000Y-60460000D02*
X97010000Y-60460000D01*
X97540000Y-60710000D02*
X97540000Y-65290000D01*
X96010000Y-60710000D02*
X97010000Y-60710000D01*
X101430000Y-61260000D02*
X102030000Y-61260000D01*
X102030000Y-62200000D02*
X101430000Y-62200000D01*
X101430000Y-62200000D02*
X101430000Y-63800000D01*
X101430000Y-63800000D02*
X102030000Y-63800000D01*
X102030000Y-64740000D02*
X101430000Y-64740000D01*
X101430000Y-64740000D02*
X101430000Y-66340000D01*
X97540000Y-65290000D02*
X97010000Y-65540000D01*
X96010000Y-65290000D02*
X97010000Y-65290000D01*
X97010000Y-65540000D02*
X96010000Y-65540000D01*
X101430000Y-66340000D02*
X102030000Y-66340000D01*
X102030000Y-66920000D02*
X102030000Y-59080000D01*
X96010000Y-66920000D02*
X102030000Y-66920000D01*
%TO.C,U4*%
X77500000Y-86800000D02*
X77280000Y-86800000D01*
X83080000Y-83140000D02*
X80000000Y-83140000D01*
X83160000Y-86800000D02*
X82700000Y-86800000D01*
X83160000Y-86800000D02*
X83160000Y-85600000D01*
X77500001Y-86800000D02*
G75*
G03*
X82699999Y-86800000I2599999J1100000D01*
G01*
%TO.C,C1*%
X85490000Y-68115580D02*
X85490000Y-67834420D01*
X86510000Y-68115580D02*
X86510000Y-67834420D01*
%TO.C,Q1*%
X72365000Y-24650000D02*
X72365000Y-26600000D01*
X72365000Y-24650000D02*
X72365000Y-22700000D01*
X77485000Y-24650000D02*
X77485000Y-26600000D01*
X77485000Y-24650000D02*
X77485000Y-22700000D01*
X72460000Y-27350000D02*
X72130000Y-27590000D01*
X72130000Y-27110000D01*
X72460000Y-27350000D01*
G36*
X72460000Y-27350000D02*
G01*
X72130000Y-27590000D01*
X72130000Y-27110000D01*
X72460000Y-27350000D01*
G37*
%TO.C,RV1*%
X100173999Y-83006000D02*
G75*
G03*
X100114390Y-80725119I-5173999J1006000D01*
G01*
X89886001Y-83274000D02*
G75*
G03*
X99036621Y-85388474I5113999J1274000D01*
G01*
X98791000Y-78339000D02*
G75*
G03*
X94907970Y-76730643I-3791000J-3661000D01*
G01*
X95000000Y-76730001D02*
G75*
G03*
X89960275Y-80459201I0J-5269999D01*
G01*
%TD*%
M02*
