%TF.GenerationSoftware,KiCad,Pcbnew,7.0.10-7.0.10~ubuntu22.04.1*%
%TF.CreationDate,2024-04-05T13:30:58+01:00*%
%TF.ProjectId,12v-jelly,3132762d-6a65-46c6-9c79-2e6b69636164,rev?*%
%TF.SameCoordinates,Original*%
%TF.FileFunction,Soldermask,Top*%
%TF.FilePolarity,Negative*%
%FSLAX46Y46*%
G04 Gerber Fmt 4.6, Leading zero omitted, Abs format (unit mm)*
G04 Created by KiCad (PCBNEW 7.0.10-7.0.10~ubuntu22.04.1) date 2024-04-05 13:30:58*
%MOMM*%
%LPD*%
G01*
G04 APERTURE LIST*
G04 Aperture macros list*
%AMRoundRect*
0 Rectangle with rounded corners*
0 $1 Rounding radius*
0 $2 $3 $4 $5 $6 $7 $8 $9 X,Y pos of 4 corners*
0 Add a 4 corners polygon primitive as box body*
4,1,4,$2,$3,$4,$5,$6,$7,$8,$9,$2,$3,0*
0 Add four circle primitives for the rounded corners*
1,1,$1+$1,$2,$3*
1,1,$1+$1,$4,$5*
1,1,$1+$1,$6,$7*
1,1,$1+$1,$8,$9*
0 Add four rect primitives between the rounded corners*
20,1,$1+$1,$2,$3,$4,$5,0*
20,1,$1+$1,$4,$5,$6,$7,0*
20,1,$1+$1,$6,$7,$8,$9,0*
20,1,$1+$1,$8,$9,$2,$3,0*%
G04 Aperture macros list end*
%ADD10RoundRect,0.150000X-0.587500X-0.150000X0.587500X-0.150000X0.587500X0.150000X-0.587500X0.150000X0*%
%ADD11RoundRect,0.200000X-0.275000X0.200000X-0.275000X-0.200000X0.275000X-0.200000X0.275000X0.200000X0*%
%ADD12RoundRect,0.150000X-0.150000X0.825000X-0.150000X-0.825000X0.150000X-0.825000X0.150000X0.825000X0*%
%ADD13C,3.200000*%
%ADD14RoundRect,0.200000X0.200000X0.275000X-0.200000X0.275000X-0.200000X-0.275000X0.200000X-0.275000X0*%
%ADD15RoundRect,0.250000X-0.845000X0.620000X-0.845000X-0.620000X0.845000X-0.620000X0.845000X0.620000X0*%
%ADD16O,2.190000X1.740000*%
%ADD17RoundRect,1.111250X1.111250X-1.111250X1.111250X1.111250X-1.111250X1.111250X-1.111250X-1.111250X0*%
%ADD18C,1.700000*%
%ADD19RoundRect,0.200000X0.275000X-0.200000X0.275000X0.200000X-0.275000X0.200000X-0.275000X-0.200000X0*%
%ADD20RoundRect,0.250000X0.845000X-0.620000X0.845000X0.620000X-0.845000X0.620000X-0.845000X-0.620000X0*%
%ADD21C,2.000000*%
%ADD22RoundRect,0.243750X0.456250X-0.243750X0.456250X0.243750X-0.456250X0.243750X-0.456250X-0.243750X0*%
%ADD23RoundRect,0.225000X0.225000X0.250000X-0.225000X0.250000X-0.225000X-0.250000X0.225000X-0.250000X0*%
%ADD24RoundRect,0.200000X-0.200000X-0.275000X0.200000X-0.275000X0.200000X0.275000X-0.200000X0.275000X0*%
%ADD25RoundRect,0.248400X-0.651600X-0.651600X0.651600X-0.651600X0.651600X0.651600X-0.651600X0.651600X0*%
%ADD26C,1.800000*%
%ADD27RoundRect,0.225000X0.250000X-0.225000X0.250000X0.225000X-0.250000X0.225000X-0.250000X-0.225000X0*%
%ADD28RoundRect,0.150000X0.150000X-0.725000X0.150000X0.725000X-0.150000X0.725000X-0.150000X-0.725000X0*%
%ADD29C,4.000000*%
%ADD30C,2.340000*%
%ADD31C,1.400000*%
%ADD32R,3.500000X3.500000*%
%ADD33C,3.500000*%
G04 APERTURE END LIST*
D10*
%TO.C,Q2*%
X82812500Y-25800000D03*
X82812500Y-27700000D03*
X84687500Y-26750000D03*
%TD*%
D11*
%TO.C,R4*%
X78400000Y-25975000D03*
X78400000Y-27625000D03*
%TD*%
D12*
%TO.C,U1*%
X84445000Y-63775000D03*
X83175000Y-63775000D03*
X81905000Y-63775000D03*
X80635000Y-63775000D03*
X79365000Y-63775000D03*
X78095000Y-63775000D03*
X76825000Y-63775000D03*
X75555000Y-63775000D03*
X75555000Y-68725000D03*
X76825000Y-68725000D03*
X78095000Y-68725000D03*
X79365000Y-68725000D03*
X80635000Y-68725000D03*
X81905000Y-68725000D03*
X83175000Y-68725000D03*
X84445000Y-68725000D03*
%TD*%
D13*
%TO.C,H1*%
X61000000Y-24000000D03*
%TD*%
D14*
%TO.C,R1*%
X91425000Y-67600000D03*
X89775000Y-67600000D03*
%TD*%
D15*
%TO.C,J6*%
X99000000Y-30460000D03*
D16*
X99000000Y-33000000D03*
X99000000Y-35540000D03*
%TD*%
D17*
%TO.C,U3*%
X74285000Y-58720000D03*
D18*
X73015000Y-57450000D03*
X75555000Y-57450000D03*
D17*
X85715000Y-58720000D03*
D18*
X84445000Y-57450000D03*
X86985000Y-57450000D03*
X73015000Y-32050000D03*
X75555000Y-32050000D03*
D17*
X74285000Y-30780000D03*
D18*
X84445000Y-32050000D03*
X86985000Y-32050000D03*
D17*
X85715000Y-30780000D03*
%TD*%
D19*
%TO.C,R2*%
X84000000Y-81890000D03*
X84000000Y-80240000D03*
%TD*%
D20*
%TO.C,J8*%
X61000000Y-45540000D03*
D16*
X61000000Y-43000000D03*
X61000000Y-40460000D03*
%TD*%
D13*
%TO.C,H3*%
X61000000Y-72000000D03*
%TD*%
%TO.C,H2*%
X99000000Y-24000000D03*
%TD*%
D21*
%TO.C,SW2*%
X68250000Y-84250000D03*
X61750000Y-84250000D03*
X68250000Y-79750000D03*
X61750000Y-79750000D03*
%TD*%
D15*
%TO.C,J5*%
X99000000Y-40460000D03*
D16*
X99000000Y-43000000D03*
X99000000Y-45540000D03*
%TD*%
D22*
%TO.C,D1*%
X68750000Y-28937500D03*
X68750000Y-27062500D03*
%TD*%
D20*
%TO.C,J9*%
X61000000Y-55540000D03*
D16*
X61000000Y-53000000D03*
X61000000Y-50460000D03*
%TD*%
D23*
%TO.C,C2*%
X82525000Y-81815000D03*
X80975000Y-81815000D03*
%TD*%
D20*
%TO.C,J7*%
X61000000Y-35540000D03*
D16*
X61000000Y-33000000D03*
X61000000Y-30460000D03*
%TD*%
D21*
%TO.C,FID2*%
X66000000Y-70000000D03*
%TD*%
D20*
%TO.C,J10*%
X61000000Y-65540000D03*
D16*
X61000000Y-63000000D03*
X61000000Y-60460000D03*
%TD*%
D24*
%TO.C,R3*%
X77675000Y-81815000D03*
X79325000Y-81815000D03*
%TD*%
D15*
%TO.C,J4*%
X98980000Y-50460000D03*
D16*
X98980000Y-53000000D03*
X98980000Y-55540000D03*
%TD*%
D11*
%TO.C,R5*%
X81087500Y-25925000D03*
X81087500Y-27575000D03*
%TD*%
D21*
%TO.C,FID3*%
X94000000Y-70000000D03*
%TD*%
D15*
%TO.C,J3*%
X99000000Y-60460000D03*
D16*
X99000000Y-63000000D03*
X99000000Y-65540000D03*
%TD*%
D25*
%TO.C,U4*%
X77460000Y-84500000D03*
D26*
X80000000Y-84500000D03*
X82540000Y-84500000D03*
%TD*%
D13*
%TO.C,H4*%
X99000000Y-72000000D03*
%TD*%
D21*
%TO.C,FID1*%
X80000000Y-21500000D03*
%TD*%
D27*
%TO.C,C1*%
X86000000Y-68750000D03*
X86000000Y-67200000D03*
%TD*%
D28*
%TO.C,Q1*%
X73020000Y-27225000D03*
X74290000Y-27225000D03*
X75560000Y-27225000D03*
X76830000Y-27225000D03*
X76830000Y-22075000D03*
X75560000Y-22075000D03*
X74290000Y-22075000D03*
X73020000Y-22075000D03*
%TD*%
D29*
%TO.C,RV1*%
X95000000Y-82000000D03*
D30*
X100000000Y-79350000D03*
X90000000Y-81850000D03*
X100000000Y-84350000D03*
%TD*%
D18*
%TO.C,U2*%
X88890000Y-21870000D03*
X88890000Y-70130000D03*
X71110000Y-70130000D03*
X71110000Y-21870000D03*
%TD*%
D31*
%TO.C,J1*%
X74500000Y-85325000D03*
X85500000Y-85325000D03*
D32*
X82500000Y-75325000D03*
D33*
X77500000Y-75325000D03*
%TD*%
M02*
