%TF.GenerationSoftware,KiCad,Pcbnew,7.0.10-7.0.10~ubuntu22.04.1*%
%TF.CreationDate,2024-04-05T13:30:57+01:00*%
%TF.ProjectId,12v-jelly,3132762d-6a65-46c6-9c79-2e6b69636164,rev?*%
%TF.SameCoordinates,Original*%
%TF.FileFunction,Copper,L1,Top*%
%TF.FilePolarity,Positive*%
%FSLAX46Y46*%
G04 Gerber Fmt 4.6, Leading zero omitted, Abs format (unit mm)*
G04 Created by KiCad (PCBNEW 7.0.10-7.0.10~ubuntu22.04.1) date 2024-04-05 13:30:57*
%MOMM*%
%LPD*%
G01*
G04 APERTURE LIST*
G04 Aperture macros list*
%AMRoundRect*
0 Rectangle with rounded corners*
0 $1 Rounding radius*
0 $2 $3 $4 $5 $6 $7 $8 $9 X,Y pos of 4 corners*
0 Add a 4 corners polygon primitive as box body*
4,1,4,$2,$3,$4,$5,$6,$7,$8,$9,$2,$3,0*
0 Add four circle primitives for the rounded corners*
1,1,$1+$1,$2,$3*
1,1,$1+$1,$4,$5*
1,1,$1+$1,$6,$7*
1,1,$1+$1,$8,$9*
0 Add four rect primitives between the rounded corners*
20,1,$1+$1,$2,$3,$4,$5,0*
20,1,$1+$1,$4,$5,$6,$7,0*
20,1,$1+$1,$6,$7,$8,$9,0*
20,1,$1+$1,$8,$9,$2,$3,0*%
G04 Aperture macros list end*
%TA.AperFunction,SMDPad,CuDef*%
%ADD10RoundRect,0.150000X-0.587500X-0.150000X0.587500X-0.150000X0.587500X0.150000X-0.587500X0.150000X0*%
%TD*%
%TA.AperFunction,SMDPad,CuDef*%
%ADD11RoundRect,0.200000X-0.275000X0.200000X-0.275000X-0.200000X0.275000X-0.200000X0.275000X0.200000X0*%
%TD*%
%TA.AperFunction,SMDPad,CuDef*%
%ADD12RoundRect,0.150000X-0.150000X0.825000X-0.150000X-0.825000X0.150000X-0.825000X0.150000X0.825000X0*%
%TD*%
%TA.AperFunction,SMDPad,CuDef*%
%ADD13RoundRect,0.200000X0.200000X0.275000X-0.200000X0.275000X-0.200000X-0.275000X0.200000X-0.275000X0*%
%TD*%
%TA.AperFunction,ComponentPad*%
%ADD14RoundRect,0.250000X-0.845000X0.620000X-0.845000X-0.620000X0.845000X-0.620000X0.845000X0.620000X0*%
%TD*%
%TA.AperFunction,ComponentPad*%
%ADD15O,2.190000X1.740000*%
%TD*%
%TA.AperFunction,SMDPad,CuDef*%
%ADD16RoundRect,1.111250X1.111250X-1.111250X1.111250X1.111250X-1.111250X1.111250X-1.111250X-1.111250X0*%
%TD*%
%TA.AperFunction,ComponentPad*%
%ADD17C,1.700000*%
%TD*%
%TA.AperFunction,SMDPad,CuDef*%
%ADD18RoundRect,0.200000X0.275000X-0.200000X0.275000X0.200000X-0.275000X0.200000X-0.275000X-0.200000X0*%
%TD*%
%TA.AperFunction,ComponentPad*%
%ADD19RoundRect,0.250000X0.845000X-0.620000X0.845000X0.620000X-0.845000X0.620000X-0.845000X-0.620000X0*%
%TD*%
%TA.AperFunction,ComponentPad*%
%ADD20C,2.000000*%
%TD*%
%TA.AperFunction,SMDPad,CuDef*%
%ADD21RoundRect,0.243750X0.456250X-0.243750X0.456250X0.243750X-0.456250X0.243750X-0.456250X-0.243750X0*%
%TD*%
%TA.AperFunction,SMDPad,CuDef*%
%ADD22RoundRect,0.225000X0.225000X0.250000X-0.225000X0.250000X-0.225000X-0.250000X0.225000X-0.250000X0*%
%TD*%
%TA.AperFunction,SMDPad,CuDef*%
%ADD23C,1.000000*%
%TD*%
%TA.AperFunction,SMDPad,CuDef*%
%ADD24RoundRect,0.200000X-0.200000X-0.275000X0.200000X-0.275000X0.200000X0.275000X-0.200000X0.275000X0*%
%TD*%
%TA.AperFunction,ComponentPad*%
%ADD25RoundRect,0.248400X-0.651600X-0.651600X0.651600X-0.651600X0.651600X0.651600X-0.651600X0.651600X0*%
%TD*%
%TA.AperFunction,ComponentPad*%
%ADD26C,1.800000*%
%TD*%
%TA.AperFunction,SMDPad,CuDef*%
%ADD27RoundRect,0.225000X0.250000X-0.225000X0.250000X0.225000X-0.250000X0.225000X-0.250000X-0.225000X0*%
%TD*%
%TA.AperFunction,SMDPad,CuDef*%
%ADD28RoundRect,0.150000X0.150000X-0.725000X0.150000X0.725000X-0.150000X0.725000X-0.150000X-0.725000X0*%
%TD*%
%TA.AperFunction,ComponentPad*%
%ADD29C,2.340000*%
%TD*%
%TA.AperFunction,ComponentPad*%
%ADD30C,1.400000*%
%TD*%
%TA.AperFunction,ComponentPad*%
%ADD31R,3.500000X3.500000*%
%TD*%
%TA.AperFunction,ComponentPad*%
%ADD32C,3.500000*%
%TD*%
%TA.AperFunction,ViaPad*%
%ADD33C,0.600000*%
%TD*%
%TA.AperFunction,Conductor*%
%ADD34C,0.250000*%
%TD*%
%TA.AperFunction,Conductor*%
%ADD35C,0.500000*%
%TD*%
%TA.AperFunction,Conductor*%
%ADD36C,1.750000*%
%TD*%
%TA.AperFunction,Conductor*%
%ADD37C,2.500000*%
%TD*%
G04 APERTURE END LIST*
D10*
%TO.P,Q2,1,G*%
%TO.N,/LED_EN*%
X82812500Y-25800000D03*
%TO.P,Q2,2,S*%
%TO.N,GND*%
X82812500Y-27700000D03*
%TO.P,Q2,3,D*%
%TO.N,Net-(Q1-G)*%
X84687500Y-26750000D03*
%TD*%
D11*
%TO.P,R4,1*%
%TO.N,+5V*%
X78400000Y-25975000D03*
%TO.P,R4,2*%
%TO.N,Net-(Q1-G)*%
X78400000Y-27625000D03*
%TD*%
D12*
%TO.P,U1,1,QB*%
%TO.N,Net-(J4-Pin_2)*%
X84445000Y-63775000D03*
%TO.P,U1,2,QC*%
%TO.N,Net-(J5-Pin_2)*%
X83175000Y-63775000D03*
%TO.P,U1,3,QD*%
%TO.N,Net-(J6-Pin_2)*%
X81905000Y-63775000D03*
%TO.P,U1,4,QE*%
%TO.N,Net-(J7-Pin_2)*%
X80635000Y-63775000D03*
%TO.P,U1,5,QF*%
%TO.N,Net-(J8-Pin_2)*%
X79365000Y-63775000D03*
%TO.P,U1,6,QG*%
%TO.N,Net-(J9-Pin_2)*%
X78095000Y-63775000D03*
%TO.P,U1,7,QH*%
%TO.N,Net-(J10-Pin_2)*%
X76825000Y-63775000D03*
%TO.P,U1,8,GND*%
%TO.N,GND*%
X75555000Y-63775000D03*
%TO.P,U1,9,QH'*%
%TO.N,unconnected-(U1-QH'-Pad9)*%
X75555000Y-68725000D03*
%TO.P,U1,10,~{SRCLR}*%
%TO.N,LED_PWR*%
X76825000Y-68725000D03*
%TO.P,U1,11,SRCLK*%
%TO.N,/CLOCK*%
X78095000Y-68725000D03*
%TO.P,U1,12,RCLK*%
%TO.N,/LATCH*%
X79365000Y-68725000D03*
%TO.P,U1,13,~{OE}*%
%TO.N,GND*%
X80635000Y-68725000D03*
%TO.P,U1,14,SER*%
%TO.N,/DATA*%
X81905000Y-68725000D03*
%TO.P,U1,15,QA*%
%TO.N,Net-(J3-Pin_2)*%
X83175000Y-68725000D03*
%TO.P,U1,16,VCC*%
%TO.N,LED_PWR*%
X84445000Y-68725000D03*
%TD*%
D13*
%TO.P,R1,1*%
%TO.N,+3V3*%
X91425000Y-67600000D03*
%TO.P,R1,2*%
%TO.N,/SW0*%
X89775000Y-67600000D03*
%TD*%
D14*
%TO.P,J6,1,Pin_1*%
%TO.N,GND*%
X99000000Y-30460000D03*
D15*
%TO.P,J6,2,Pin_2*%
%TO.N,Net-(J6-Pin_2)*%
X99000000Y-33000000D03*
%TO.P,J6,3,Pin_3*%
%TO.N,LED_PWR*%
X99000000Y-35540000D03*
%TD*%
D16*
%TO.P,U3,1,IN+*%
%TO.N,Net-(J1-Pin_2)*%
X74285000Y-58720000D03*
D17*
X73015000Y-57450000D03*
X75555000Y-57450000D03*
D16*
%TO.P,U3,2,IN-*%
%TO.N,Net-(J1-Pin_1)*%
X85715000Y-58720000D03*
D17*
X84445000Y-57450000D03*
X86985000Y-57450000D03*
%TO.P,U3,3,OUT+*%
%TO.N,+5V*%
X73015000Y-32050000D03*
X75555000Y-32050000D03*
D16*
X74285000Y-30780000D03*
D17*
%TO.P,U3,4,OUT-*%
%TO.N,GND*%
X84445000Y-32050000D03*
X86985000Y-32050000D03*
D16*
X85715000Y-30780000D03*
%TD*%
D18*
%TO.P,R2,1*%
%TO.N,Net-(U4-Vs)*%
X84000000Y-81890000D03*
%TO.P,R2,2*%
%TO.N,+5V*%
X84000000Y-80240000D03*
%TD*%
D19*
%TO.P,J8,1,Pin_1*%
%TO.N,GND*%
X61000000Y-45540000D03*
D15*
%TO.P,J8,2,Pin_2*%
%TO.N,Net-(J8-Pin_2)*%
X61000000Y-43000000D03*
%TO.P,J8,3,Pin_3*%
%TO.N,LED_PWR*%
X61000000Y-40460000D03*
%TD*%
D20*
%TO.P,SW2,1,1*%
%TO.N,GND*%
X68250000Y-84250000D03*
X61750000Y-84250000D03*
%TO.P,SW2,2,2*%
%TO.N,/SW0*%
X68250000Y-79750000D03*
X61750000Y-79750000D03*
%TD*%
D14*
%TO.P,J5,1,Pin_1*%
%TO.N,GND*%
X99000000Y-40460000D03*
D15*
%TO.P,J5,2,Pin_2*%
%TO.N,Net-(J5-Pin_2)*%
X99000000Y-43000000D03*
%TO.P,J5,3,Pin_3*%
%TO.N,LED_PWR*%
X99000000Y-45540000D03*
%TD*%
D21*
%TO.P,D1,1,K*%
%TO.N,Net-(D1-K)*%
X68750000Y-28937500D03*
%TO.P,D1,2,A*%
%TO.N,+5V*%
X68750000Y-27062500D03*
%TD*%
D19*
%TO.P,J9,1,Pin_1*%
%TO.N,GND*%
X61000000Y-55540000D03*
D15*
%TO.P,J9,2,Pin_2*%
%TO.N,Net-(J9-Pin_2)*%
X61000000Y-53000000D03*
%TO.P,J9,3,Pin_3*%
%TO.N,LED_PWR*%
X61000000Y-50460000D03*
%TD*%
D22*
%TO.P,C2,1*%
%TO.N,Net-(U4-Vs)*%
X82525000Y-81815000D03*
%TO.P,C2,2*%
%TO.N,GND*%
X80975000Y-81815000D03*
%TD*%
D19*
%TO.P,J7,1,Pin_1*%
%TO.N,GND*%
X61000000Y-35540000D03*
D15*
%TO.P,J7,2,Pin_2*%
%TO.N,Net-(J7-Pin_2)*%
X61000000Y-33000000D03*
%TO.P,J7,3,Pin_3*%
%TO.N,LED_PWR*%
X61000000Y-30460000D03*
%TD*%
D23*
%TO.P,FID2,*%
%TO.N,*%
X66000000Y-70000000D03*
%TD*%
D19*
%TO.P,J10,1,Pin_1*%
%TO.N,GND*%
X61000000Y-65540000D03*
D15*
%TO.P,J10,2,Pin_2*%
%TO.N,Net-(J10-Pin_2)*%
X61000000Y-63000000D03*
%TO.P,J10,3,Pin_3*%
%TO.N,LED_PWR*%
X61000000Y-60460000D03*
%TD*%
D24*
%TO.P,R3,1*%
%TO.N,/IR*%
X77675000Y-81815000D03*
%TO.P,R3,2*%
%TO.N,+5V*%
X79325000Y-81815000D03*
%TD*%
D14*
%TO.P,J4,1,Pin_1*%
%TO.N,GND*%
X98980000Y-50460000D03*
D15*
%TO.P,J4,2,Pin_2*%
%TO.N,Net-(J4-Pin_2)*%
X98980000Y-53000000D03*
%TO.P,J4,3,Pin_3*%
%TO.N,LED_PWR*%
X98980000Y-55540000D03*
%TD*%
D11*
%TO.P,R5,1*%
%TO.N,/LED_EN*%
X81087500Y-25925000D03*
%TO.P,R5,2*%
%TO.N,GND*%
X81087500Y-27575000D03*
%TD*%
D23*
%TO.P,FID3,*%
%TO.N,*%
X94000000Y-70000000D03*
%TD*%
D14*
%TO.P,J3,1,Pin_1*%
%TO.N,GND*%
X99000000Y-60460000D03*
D15*
%TO.P,J3,2,Pin_2*%
%TO.N,Net-(J3-Pin_2)*%
X99000000Y-63000000D03*
%TO.P,J3,3,Pin_3*%
%TO.N,LED_PWR*%
X99000000Y-65540000D03*
%TD*%
D25*
%TO.P,U4,1,OUT*%
%TO.N,/IR*%
X77460000Y-84500000D03*
D26*
%TO.P,U4,2,GND*%
%TO.N,GND*%
X80000000Y-84500000D03*
%TO.P,U4,3,Vs*%
%TO.N,Net-(U4-Vs)*%
X82540000Y-84500000D03*
%TD*%
D23*
%TO.P,FID1,*%
%TO.N,*%
X80000000Y-21500000D03*
%TD*%
D27*
%TO.P,C1,1*%
%TO.N,LED_PWR*%
X86000000Y-68750000D03*
%TO.P,C1,2*%
%TO.N,GND*%
X86000000Y-67200000D03*
%TD*%
D28*
%TO.P,Q1,1,S*%
%TO.N,+5V*%
X73020000Y-27225000D03*
%TO.P,Q1,2,S*%
X74290000Y-27225000D03*
%TO.P,Q1,3,S*%
X75560000Y-27225000D03*
%TO.P,Q1,4,G*%
%TO.N,Net-(Q1-G)*%
X76830000Y-27225000D03*
%TO.P,Q1,5,D*%
%TO.N,LED_PWR*%
X76830000Y-22075000D03*
%TO.P,Q1,6,D*%
X75560000Y-22075000D03*
%TO.P,Q1,7,D*%
X74290000Y-22075000D03*
%TO.P,Q1,8,D*%
X73020000Y-22075000D03*
%TD*%
D29*
%TO.P,RV1,1,1*%
%TO.N,+3V3*%
X100000000Y-79350000D03*
%TO.P,RV1,2,2*%
%TO.N,/POT*%
X90000000Y-81850000D03*
%TO.P,RV1,3,3*%
%TO.N,GND*%
X100000000Y-84350000D03*
%TD*%
D17*
%TO.P,U2,1,GPIO0*%
%TO.N,unconnected-(U2-GPIO0-Pad1)*%
X88890000Y-21870000D03*
%TO.P,U2,20,GPIO15*%
%TO.N,/IR*%
X88890000Y-70130000D03*
%TO.P,U2,21,GPIO16*%
%TO.N,/DATA*%
X71110000Y-70130000D03*
%TO.P,U2,40,VBUS*%
%TO.N,unconnected-(U2-VBUS-Pad40)*%
X71110000Y-21870000D03*
%TD*%
D30*
%TO.P,J1,*%
%TO.N,*%
X74500000Y-85325000D03*
X85500000Y-85325000D03*
D31*
%TO.P,J1,1,Pin_1*%
%TO.N,Net-(J1-Pin_1)*%
X82500000Y-75325000D03*
D32*
%TO.P,J1,2,Pin_2*%
%TO.N,Net-(J1-Pin_2)*%
X77500000Y-75325000D03*
%TD*%
D33*
%TO.N,+5V*%
X94000000Y-73750000D03*
%TO.N,GND*%
X70200000Y-27000000D03*
X89800000Y-65000000D03*
X70250000Y-65000000D03*
X70200000Y-52400000D03*
X89800000Y-39600000D03*
X89800000Y-27050000D03*
X89800000Y-52300000D03*
%TO.N,Net-(D1-K)*%
X67562500Y-28937500D03*
%TO.N,Net-(J3-Pin_2)*%
X87750000Y-48500000D03*
%TO.N,Net-(J4-Pin_2)*%
X87750000Y-46000000D03*
%TO.N,Net-(J5-Pin_2)*%
X87750000Y-43500000D03*
%TO.N,Net-(J6-Pin_2)*%
X87750000Y-41000000D03*
%TO.N,Net-(J7-Pin_2)*%
X72250000Y-41000000D03*
%TO.N,Net-(J8-Pin_2)*%
X72250000Y-43500000D03*
%TO.N,Net-(J9-Pin_2)*%
X72250000Y-48500000D03*
%TO.N,Net-(J10-Pin_2)*%
X72250000Y-51000000D03*
%TO.N,+3V3*%
X93250000Y-67600000D03*
%TO.N,/SW0*%
X88250000Y-71750000D03*
X89000000Y-67590000D03*
%TO.N,/CLOCK*%
X71110000Y-67590000D03*
%TO.N,/LATCH*%
X71110000Y-62510000D03*
%TO.N,/POT*%
X92500000Y-76500000D03*
%TO.N,/LED_EN*%
X84100000Y-25900000D03*
%TD*%
D34*
%TO.N,+5V*%
X81750000Y-80250000D02*
X81760000Y-80240000D01*
X87510000Y-80240000D02*
X84000000Y-80240000D01*
D35*
X71510661Y-27250000D02*
X74265000Y-27250000D01*
D34*
X79325000Y-81815000D02*
X79325000Y-80925000D01*
X94000000Y-73750000D02*
X87510000Y-80240000D01*
X79325000Y-80925000D02*
X80010000Y-80240000D01*
D35*
X68750000Y-27062500D02*
X69562500Y-26250000D01*
X70510661Y-26250000D02*
X71510661Y-27250000D01*
X69562500Y-26250000D02*
X70510661Y-26250000D01*
D34*
X75835000Y-25975000D02*
X75560000Y-26250000D01*
X78400000Y-25975000D02*
X75835000Y-25975000D01*
X75560000Y-26250000D02*
X75560000Y-27225000D01*
X81760000Y-80240000D02*
X84000000Y-80240000D01*
X80010000Y-80240000D02*
X81740000Y-80240000D01*
D35*
X74265000Y-27250000D02*
X74290000Y-27225000D01*
D34*
X81740000Y-80240000D02*
X81750000Y-80250000D01*
D36*
%TO.N,GND*%
X99000000Y-40460000D02*
X96495000Y-40460000D01*
D37*
X96435000Y-52039025D02*
X96435000Y-60480000D01*
X96455000Y-30545000D02*
X96455000Y-34500000D01*
D34*
X81087500Y-27575000D02*
X81712500Y-27575000D01*
D37*
X85750000Y-34750000D02*
X92250000Y-34750000D01*
D36*
X96495000Y-60460000D02*
X96455000Y-60500000D01*
D34*
X86000000Y-67200000D02*
X86950000Y-66250000D01*
X88550000Y-66250000D02*
X89800000Y-65000000D01*
D36*
X61000000Y-45540000D02*
X63505000Y-45540000D01*
D35*
X70200000Y-59800000D02*
X69900000Y-60100000D01*
D37*
X92250000Y-34750000D02*
X96205000Y-34750000D01*
X96455000Y-40500000D02*
X96455000Y-50250000D01*
D34*
X74750000Y-63750000D02*
X75530000Y-63750000D01*
D36*
X98980000Y-50460000D02*
X96665000Y-50460000D01*
D35*
X76500000Y-86250000D02*
X78250000Y-86250000D01*
X69900000Y-60100000D02*
X69900000Y-64650000D01*
D37*
X63545000Y-34795000D02*
X63545000Y-45500000D01*
X96455000Y-52019025D02*
X96435000Y-52039025D01*
D35*
X61750000Y-84250000D02*
X68250000Y-84250000D01*
D34*
X80975000Y-83525000D02*
X80000000Y-84500000D01*
X81712500Y-27575000D02*
X81837500Y-27700000D01*
D35*
X70200000Y-34700000D02*
X70250000Y-34750000D01*
D37*
X85750000Y-33355000D02*
X85750000Y-34750000D01*
D35*
X69750000Y-77250000D02*
X72375000Y-79875000D01*
D37*
X86985000Y-32050000D02*
X89685000Y-34750000D01*
D34*
X76000000Y-65500000D02*
X75555000Y-65055000D01*
D36*
X99000000Y-60460000D02*
X96495000Y-60460000D01*
X96540000Y-30460000D02*
X96455000Y-30545000D01*
D37*
X63545000Y-55750000D02*
X63545000Y-65455000D01*
D36*
X61000000Y-65540000D02*
X63460000Y-65540000D01*
D37*
X89685000Y-34750000D02*
X92250000Y-34750000D01*
D36*
X63335000Y-55540000D02*
X63545000Y-55750000D01*
D34*
X85450000Y-27700000D02*
X85715000Y-27965000D01*
X75530000Y-63750000D02*
X75555000Y-63775000D01*
X80635000Y-68725000D02*
X80635000Y-65885000D01*
X85715000Y-27965000D02*
X85715000Y-30780000D01*
X80250000Y-65500000D02*
X76000000Y-65500000D01*
D35*
X89800000Y-27050000D02*
X89800000Y-39600000D01*
X72375000Y-79875000D02*
X75750000Y-83250000D01*
D37*
X70250000Y-34750000D02*
X81745000Y-34750000D01*
X63500000Y-34750000D02*
X63545000Y-34795000D01*
D35*
X89800000Y-65000000D02*
X89800000Y-52300000D01*
X70200000Y-33250000D02*
X70200000Y-52400000D01*
X75750000Y-85500000D02*
X76500000Y-86250000D01*
D37*
X81745000Y-34750000D02*
X84445000Y-32050000D01*
X81745000Y-34750000D02*
X85750000Y-34750000D01*
D34*
X80975000Y-81815000D02*
X80975000Y-83525000D01*
D35*
X78250000Y-86250000D02*
X80000000Y-84500000D01*
X70200000Y-27000000D02*
X70200000Y-33250000D01*
X89800000Y-52300000D02*
X89800000Y-39600000D01*
D36*
X96495000Y-40460000D02*
X96455000Y-40500000D01*
D34*
X75555000Y-65055000D02*
X75555000Y-63775000D01*
D35*
X70200000Y-33250000D02*
X70200000Y-34700000D01*
X70200000Y-52400000D02*
X70200000Y-59800000D01*
D36*
X63545000Y-34795000D02*
X62800000Y-35540000D01*
D34*
X82812500Y-27700000D02*
X85450000Y-27700000D01*
D35*
X75750000Y-83250000D02*
X75750000Y-85500000D01*
D37*
X96435000Y-60480000D02*
X96455000Y-60500000D01*
D35*
X70250000Y-65000000D02*
X69750000Y-65500000D01*
D36*
X61000000Y-55540000D02*
X63335000Y-55540000D01*
D34*
X70800000Y-59800000D02*
X70200000Y-59800000D01*
X74750000Y-63750000D02*
X70800000Y-59800000D01*
D35*
X68250000Y-84250000D02*
X72375000Y-80125000D01*
D36*
X63460000Y-65540000D02*
X63545000Y-65455000D01*
D37*
X96205000Y-34750000D02*
X96455000Y-34500000D01*
X96455000Y-34500000D02*
X96455000Y-40500000D01*
D35*
X69900000Y-64650000D02*
X70250000Y-65000000D01*
D36*
X62800000Y-35540000D02*
X61000000Y-35540000D01*
D35*
X69750000Y-65500000D02*
X69750000Y-77250000D01*
D34*
X86950000Y-66250000D02*
X88550000Y-66250000D01*
D36*
X96665000Y-50460000D02*
X96455000Y-50250000D01*
D37*
X63545000Y-45500000D02*
X63545000Y-55750000D01*
X84445000Y-32050000D02*
X85750000Y-33355000D01*
X63500000Y-34750000D02*
X70250000Y-34750000D01*
D36*
X99000000Y-30460000D02*
X96540000Y-30460000D01*
D34*
X81837500Y-27700000D02*
X82812500Y-27700000D01*
D36*
X63505000Y-45540000D02*
X63545000Y-45500000D01*
D34*
X80635000Y-65885000D02*
X80250000Y-65500000D01*
D37*
X96455000Y-50250000D02*
X96455000Y-52019025D01*
D35*
%TO.N,Net-(D1-K)*%
X67562500Y-28937500D02*
X68750000Y-28937500D01*
D34*
%TO.N,Net-(J3-Pin_2)*%
X81750000Y-51000000D02*
X84250000Y-48500000D01*
X83175000Y-67575000D02*
X85250000Y-65500000D01*
X84250000Y-48500000D02*
X87750000Y-48500000D01*
X85250000Y-62750000D02*
X81750000Y-59250000D01*
X81750000Y-59250000D02*
X81750000Y-51000000D01*
X85250000Y-65500000D02*
X85250000Y-62750000D01*
X83175000Y-68725000D02*
X83175000Y-67575000D01*
%TO.N,Net-(J4-Pin_2)*%
X86000000Y-46000000D02*
X87750000Y-46000000D01*
X83750000Y-48250000D02*
X86000000Y-46000000D01*
X81250000Y-59500000D02*
X81250000Y-50750000D01*
X84445000Y-63775000D02*
X84445000Y-62695000D01*
X84445000Y-62695000D02*
X81250000Y-59500000D01*
X81250000Y-50750000D02*
X83750000Y-48250000D01*
%TO.N,Net-(J5-Pin_2)*%
X80750000Y-60250000D02*
X80750000Y-49000000D01*
X83175000Y-63775000D02*
X83175000Y-62675000D01*
X80750000Y-49000000D02*
X86250000Y-43500000D01*
X86250000Y-43500000D02*
X87750000Y-43500000D01*
X83175000Y-62675000D02*
X80750000Y-60250000D01*
%TO.N,Net-(J6-Pin_2)*%
X81905000Y-62655000D02*
X80250000Y-61000000D01*
X80250000Y-48500000D02*
X87750000Y-41000000D01*
X81905000Y-63775000D02*
X81905000Y-62655000D01*
X80250000Y-61000000D02*
X80250000Y-48500000D01*
%TO.N,Net-(J7-Pin_2)*%
X79750000Y-50250000D02*
X79750000Y-48500000D01*
X79750000Y-48500000D02*
X72250000Y-41000000D01*
X80635000Y-62635000D02*
X79750000Y-61750000D01*
X79750000Y-61750000D02*
X79750000Y-50250000D01*
X80635000Y-63775000D02*
X80635000Y-62635000D01*
%TO.N,Net-(J8-Pin_2)*%
X79250000Y-62250000D02*
X79250000Y-49000000D01*
X79365000Y-63775000D02*
X79365000Y-62365000D01*
X79250000Y-49000000D02*
X73750000Y-43500000D01*
X73750000Y-43500000D02*
X72250000Y-43500000D01*
X79365000Y-62365000D02*
X79250000Y-62250000D01*
%TO.N,Net-(J9-Pin_2)*%
X78750000Y-50750000D02*
X76500000Y-48500000D01*
X78095000Y-62655000D02*
X78750000Y-62000000D01*
X78750000Y-62000000D02*
X78750000Y-50750000D01*
X76500000Y-48500000D02*
X72250000Y-48500000D01*
X78095000Y-63775000D02*
X78095000Y-62655000D01*
%TO.N,Net-(J10-Pin_2)*%
X77750000Y-51000000D02*
X72250000Y-51000000D01*
X78250000Y-61250000D02*
X78250000Y-51500000D01*
X76825000Y-62675000D02*
X78250000Y-61250000D01*
X78250000Y-51500000D02*
X77750000Y-51000000D01*
X76825000Y-63775000D02*
X76825000Y-62675000D01*
%TO.N,+3V3*%
X93250000Y-67600000D02*
X91425000Y-67600000D01*
%TO.N,/SW0*%
X89775000Y-67600000D02*
X89010000Y-67600000D01*
X87625000Y-71125000D02*
X88250000Y-71750000D01*
X87625000Y-68125000D02*
X87625000Y-71125000D01*
X68250000Y-79750000D02*
X61750000Y-79750000D01*
X89010000Y-67600000D02*
X89000000Y-67590000D01*
X88160000Y-67590000D02*
X87625000Y-68125000D01*
X89000000Y-67590000D02*
X88160000Y-67590000D01*
%TO.N,/CLOCK*%
X78095000Y-67595000D02*
X78095000Y-68725000D01*
X71110000Y-67590000D02*
X71450000Y-67250000D01*
X71450000Y-67250000D02*
X77750000Y-67250000D01*
X77750000Y-67250000D02*
X78095000Y-67595000D01*
%TO.N,/LATCH*%
X79365000Y-67115000D02*
X79365000Y-68725000D01*
X75415000Y-66750000D02*
X79000000Y-66750000D01*
X71175000Y-62510000D02*
X75415000Y-66750000D01*
X71110000Y-62510000D02*
X71175000Y-62510000D01*
X79000000Y-66750000D02*
X79365000Y-67115000D01*
%TO.N,/DATA*%
X71000000Y-64553884D02*
X70485000Y-64038884D01*
X80000000Y-69750000D02*
X80500000Y-70250000D01*
X75500000Y-66000000D02*
X79500000Y-66000000D01*
X70485000Y-64038884D02*
X70485000Y-62215000D01*
X81905000Y-69845000D02*
X81905000Y-68725000D01*
X79500000Y-66000000D02*
X80000000Y-66500000D01*
X71110000Y-70130000D02*
X70400000Y-69420000D01*
X80500000Y-70250000D02*
X81500000Y-70250000D01*
X71385000Y-61885000D02*
X75500000Y-66000000D01*
X70400000Y-66146116D02*
X71000000Y-65546116D01*
X70400000Y-69420000D02*
X70400000Y-66146116D01*
X71000000Y-65546116D02*
X71000000Y-64553884D01*
X70815000Y-61885000D02*
X71385000Y-61885000D01*
X81500000Y-70250000D02*
X81905000Y-69845000D01*
X70485000Y-62215000D02*
X70815000Y-61885000D01*
X80000000Y-66500000D02*
X80000000Y-69750000D01*
%TO.N,/POT*%
X92500000Y-76500000D02*
X92500000Y-78000000D01*
X92500000Y-78000000D02*
X90000000Y-80500000D01*
X90000000Y-80500000D02*
X90000000Y-81850000D01*
%TO.N,Net-(U4-Vs)*%
X84000000Y-81890000D02*
X82600000Y-81890000D01*
X82525000Y-84485000D02*
X82540000Y-84500000D01*
X82600000Y-81890000D02*
X82525000Y-81815000D01*
X82525000Y-81815000D02*
X82525000Y-84485000D01*
%TO.N,/IR*%
X87250000Y-78000000D02*
X88890000Y-76360000D01*
X88890000Y-76360000D02*
X88890000Y-70130000D01*
X80750000Y-78000000D02*
X87250000Y-78000000D01*
X77675000Y-81815000D02*
X77675000Y-81075000D01*
X77675000Y-81815000D02*
X77675000Y-84285000D01*
X77675000Y-84285000D02*
X77460000Y-84500000D01*
X77675000Y-81075000D02*
X80750000Y-78000000D01*
D37*
%TO.N,LED_PWR*%
X59750000Y-27500000D02*
X64750000Y-27500000D01*
D36*
X101335000Y-45540000D02*
X101545000Y-45750000D01*
D34*
X97840000Y-66700000D02*
X99000000Y-65540000D01*
D37*
X101545000Y-55750000D02*
X101545000Y-45750000D01*
X93250000Y-24500000D02*
X96250000Y-27500000D01*
D34*
X85975000Y-68725000D02*
X84445000Y-68725000D01*
D37*
X64750000Y-27500000D02*
X67750000Y-24500000D01*
D34*
X77250000Y-70750000D02*
X84000000Y-70750000D01*
D37*
X58455000Y-28795000D02*
X59750000Y-27500000D01*
D34*
X76825000Y-68725000D02*
X76825000Y-70325000D01*
D37*
X67750000Y-24500000D02*
X72300000Y-24500000D01*
X72300000Y-24500000D02*
X72750000Y-24050000D01*
D36*
X58495000Y-50460000D02*
X58455000Y-50500000D01*
X61000000Y-40460000D02*
X58495000Y-40460000D01*
X61000000Y-60460000D02*
X58460000Y-60460000D01*
X58495000Y-40460000D02*
X58455000Y-40500000D01*
D34*
X76825000Y-70325000D02*
X77250000Y-70750000D01*
D36*
X99000000Y-65540000D02*
X101335000Y-65540000D01*
D37*
X58455000Y-40500000D02*
X58455000Y-30500000D01*
D34*
X86000000Y-68750000D02*
X85975000Y-68725000D01*
D37*
X58455000Y-30500000D02*
X58455000Y-28795000D01*
D34*
X84445000Y-70305000D02*
X84445000Y-68725000D01*
D37*
X87700000Y-24500000D02*
X93250000Y-24500000D01*
D36*
X101335000Y-35540000D02*
X101545000Y-35750000D01*
D34*
X84000000Y-70750000D02*
X84445000Y-70305000D01*
D37*
X100500000Y-27500000D02*
X101545000Y-28545000D01*
D36*
X61000000Y-30460000D02*
X58495000Y-30460000D01*
X99000000Y-45540000D02*
X101335000Y-45540000D01*
X58495000Y-30460000D02*
X58455000Y-30500000D01*
X101335000Y-55540000D02*
X101545000Y-55750000D01*
D37*
X72750000Y-24050000D02*
X87250000Y-24050000D01*
X58455000Y-50500000D02*
X58455000Y-40500000D01*
X101545000Y-65750000D02*
X101545000Y-55750000D01*
X101545000Y-45750000D02*
X101545000Y-35750000D01*
X96250000Y-27500000D02*
X100500000Y-27500000D01*
D36*
X98980000Y-55540000D02*
X101335000Y-55540000D01*
D34*
X86000000Y-68750000D02*
X86250000Y-68750000D01*
D36*
X58460000Y-60460000D02*
X58455000Y-60455000D01*
X101335000Y-65540000D02*
X101545000Y-65750000D01*
X61000000Y-50460000D02*
X58495000Y-50460000D01*
D34*
X86250000Y-68750000D02*
X88300000Y-66700000D01*
X88300000Y-66700000D02*
X97840000Y-66700000D01*
D36*
X99000000Y-35540000D02*
X101335000Y-35540000D01*
D37*
X101545000Y-28545000D02*
X101545000Y-35750000D01*
X58455000Y-60455000D02*
X58455000Y-50500000D01*
X87250000Y-24050000D02*
X87700000Y-24500000D01*
D34*
%TO.N,/LED_EN*%
X81712500Y-25925000D02*
X81837500Y-25800000D01*
X84100000Y-25900000D02*
X84000000Y-25800000D01*
X81087500Y-25925000D02*
X81712500Y-25925000D01*
X84000000Y-25800000D02*
X82812500Y-25800000D01*
X81837500Y-25800000D02*
X82812500Y-25800000D01*
%TO.N,Net-(Q1-G)*%
X77875000Y-27625000D02*
X77475000Y-27225000D01*
X84687500Y-26750000D02*
X80000000Y-26750000D01*
X77475000Y-27225000D02*
X76830000Y-27225000D01*
X78400000Y-27625000D02*
X77875000Y-27625000D01*
X80000000Y-26750000D02*
X79125000Y-27625000D01*
X79125000Y-27625000D02*
X78400000Y-27625000D01*
%TD*%
%TA.AperFunction,Conductor*%
%TO.N,LED_PWR*%
G36*
X77143039Y-20919685D02*
G01*
X77188794Y-20972489D01*
X77200000Y-21024000D01*
X77200000Y-22962456D01*
X77180315Y-23029495D01*
X77179174Y-23031239D01*
X76336811Y-24294783D01*
X76283246Y-24339644D01*
X76233637Y-24350000D01*
X72824000Y-24350000D01*
X72756961Y-24330315D01*
X72711206Y-24277511D01*
X72700000Y-24226000D01*
X72700000Y-21024000D01*
X72719685Y-20956961D01*
X72772489Y-20911206D01*
X72824000Y-20900000D01*
X77076000Y-20900000D01*
X77143039Y-20919685D01*
G37*
%TD.AperFunction*%
%TD*%
%TA.AperFunction,Conductor*%
%TO.N,+5V*%
G36*
X75849081Y-26344685D02*
G01*
X75894836Y-26397489D01*
X75901067Y-26414229D01*
X76024525Y-26836835D01*
X76029500Y-26871606D01*
X76029500Y-28015701D01*
X76032401Y-28052567D01*
X76032402Y-28052573D01*
X76078254Y-28210393D01*
X76078255Y-28210396D01*
X76161917Y-28351862D01*
X76161923Y-28351870D01*
X76278129Y-28468076D01*
X76278133Y-28468079D01*
X76278135Y-28468081D01*
X76419602Y-28551744D01*
X76435592Y-28556389D01*
X76494477Y-28593992D01*
X76523686Y-28657464D01*
X76525000Y-28675466D01*
X76525000Y-32875500D01*
X76505315Y-32942539D01*
X76452511Y-32988294D01*
X76401000Y-32999500D01*
X72174000Y-32999500D01*
X72106961Y-32979815D01*
X72061206Y-32927011D01*
X72050000Y-32875500D01*
X72050000Y-28568395D01*
X72055340Y-28532397D01*
X72074852Y-28468082D01*
X72698303Y-26413002D01*
X72736602Y-26354564D01*
X72800415Y-26326109D01*
X72816963Y-26325000D01*
X75782042Y-26325000D01*
X75849081Y-26344685D01*
G37*
%TD.AperFunction*%
%TD*%
M02*
