%TF.GenerationSoftware,KiCad,Pcbnew,7.0.9*%
%TF.CreationDate,2023-11-19T18:12:56+00:00*%
%TF.ProjectId,12v-jelly,3132762d-6a65-46c6-9c79-2e6b69636164,rev?*%
%TF.SameCoordinates,Original*%
%TF.FileFunction,Copper,L3,Inr*%
%TF.FilePolarity,Positive*%
%FSLAX46Y46*%
G04 Gerber Fmt 4.6, Leading zero omitted, Abs format (unit mm)*
G04 Created by KiCad (PCBNEW 7.0.9) date 2023-11-19 18:12:56*
%MOMM*%
%LPD*%
G01*
G04 APERTURE LIST*
G04 Aperture macros list*
%AMRoundRect*
0 Rectangle with rounded corners*
0 $1 Rounding radius*
0 $2 $3 $4 $5 $6 $7 $8 $9 X,Y pos of 4 corners*
0 Add a 4 corners polygon primitive as box body*
4,1,4,$2,$3,$4,$5,$6,$7,$8,$9,$2,$3,0*
0 Add four circle primitives for the rounded corners*
1,1,$1+$1,$2,$3*
1,1,$1+$1,$4,$5*
1,1,$1+$1,$6,$7*
1,1,$1+$1,$8,$9*
0 Add four rect primitives between the rounded corners*
20,1,$1+$1,$2,$3,$4,$5,0*
20,1,$1+$1,$4,$5,$6,$7,0*
20,1,$1+$1,$6,$7,$8,$9,0*
20,1,$1+$1,$8,$9,$2,$3,0*%
G04 Aperture macros list end*
%TA.AperFunction,ComponentPad*%
%ADD10RoundRect,0.250000X-0.845000X0.620000X-0.845000X-0.620000X0.845000X-0.620000X0.845000X0.620000X0*%
%TD*%
%TA.AperFunction,ComponentPad*%
%ADD11O,2.190000X1.740000*%
%TD*%
%TA.AperFunction,ComponentPad*%
%ADD12C,1.700000*%
%TD*%
%TA.AperFunction,ComponentPad*%
%ADD13RoundRect,0.250000X0.845000X-0.620000X0.845000X0.620000X-0.845000X0.620000X-0.845000X-0.620000X0*%
%TD*%
%TA.AperFunction,ComponentPad*%
%ADD14C,2.000000*%
%TD*%
%TA.AperFunction,ComponentPad*%
%ADD15RoundRect,0.248400X-0.651600X-0.651600X0.651600X-0.651600X0.651600X0.651600X-0.651600X0.651600X0*%
%TD*%
%TA.AperFunction,ComponentPad*%
%ADD16C,1.800000*%
%TD*%
%TA.AperFunction,ComponentPad*%
%ADD17C,2.340000*%
%TD*%
%TA.AperFunction,ComponentPad*%
%ADD18C,1.400000*%
%TD*%
%TA.AperFunction,ComponentPad*%
%ADD19R,3.500000X3.500000*%
%TD*%
%TA.AperFunction,ComponentPad*%
%ADD20C,3.500000*%
%TD*%
%TA.AperFunction,ViaPad*%
%ADD21C,0.600000*%
%TD*%
G04 APERTURE END LIST*
D10*
%TO.N,GND*%
%TO.C,J6*%
X99000000Y-30460000D03*
D11*
%TO.N,Net-(J6-Pin_2)*%
X99000000Y-33000000D03*
%TO.N,+5V*%
X99000000Y-35540000D03*
%TD*%
D12*
%TO.N,Net-(J1-Pin_2)*%
%TO.C,U3*%
X73015000Y-52400000D03*
X75555000Y-52400000D03*
%TO.N,Net-(J1-Pin_1)*%
X84445000Y-52400000D03*
X86985000Y-52400000D03*
%TO.N,+5V*%
X73015000Y-27000000D03*
X75555000Y-27000000D03*
%TO.N,GND*%
X84445000Y-27000000D03*
X86985000Y-27000000D03*
%TD*%
D13*
%TO.N,GND*%
%TO.C,J8*%
X61000000Y-45540000D03*
D11*
%TO.N,Net-(J8-Pin_2)*%
X61000000Y-43000000D03*
%TO.N,+5V*%
X61000000Y-40460000D03*
%TD*%
D14*
%TO.N,GND*%
%TO.C,SW2*%
X68250000Y-84250000D03*
X61750000Y-84250000D03*
%TO.N,/SW0*%
X68250000Y-79750000D03*
X61750000Y-79750000D03*
%TD*%
D10*
%TO.N,GND*%
%TO.C,J5*%
X99000000Y-40460000D03*
D11*
%TO.N,Net-(J5-Pin_2)*%
X99000000Y-43000000D03*
%TO.N,+5V*%
X99000000Y-45540000D03*
%TD*%
D13*
%TO.N,GND*%
%TO.C,J9*%
X61000000Y-55540000D03*
D11*
%TO.N,Net-(J9-Pin_2)*%
X61000000Y-53000000D03*
%TO.N,+5V*%
X61000000Y-50460000D03*
%TD*%
D13*
%TO.N,GND*%
%TO.C,J7*%
X61000000Y-35540000D03*
D11*
%TO.N,Net-(J7-Pin_2)*%
X61000000Y-33000000D03*
%TO.N,+5V*%
X61000000Y-30460000D03*
%TD*%
D13*
%TO.N,GND*%
%TO.C,J10*%
X61000000Y-65540000D03*
D11*
%TO.N,Net-(J10-Pin_2)*%
X61000000Y-63000000D03*
%TO.N,+5V*%
X61000000Y-60460000D03*
%TD*%
D10*
%TO.N,GND*%
%TO.C,J4*%
X98980000Y-50460000D03*
D11*
%TO.N,Net-(J4-Pin_2)*%
X98980000Y-53000000D03*
%TO.N,+5V*%
X98980000Y-55540000D03*
%TD*%
D10*
%TO.N,GND*%
%TO.C,J3*%
X99000000Y-60460000D03*
D11*
%TO.N,Net-(J3-Pin_2)*%
X99000000Y-63000000D03*
%TO.N,+5V*%
X99000000Y-65540000D03*
%TD*%
D15*
%TO.N,/IR*%
%TO.C,U4*%
X77460000Y-84500000D03*
D16*
%TO.N,GND*%
X80000000Y-84500000D03*
%TO.N,Net-(U4-Vs)*%
X82540000Y-84500000D03*
%TD*%
D17*
%TO.N,+3V3*%
%TO.C,RV1*%
X100000000Y-79350000D03*
%TO.N,/POT*%
X90000000Y-81850000D03*
%TO.N,GND*%
X100000000Y-84350000D03*
%TD*%
D18*
%TO.N,*%
%TO.C,J1*%
X74500000Y-85325000D03*
X85500000Y-85325000D03*
D19*
%TO.N,Net-(J1-Pin_1)*%
X82500000Y-75325000D03*
D20*
%TO.N,Net-(J1-Pin_2)*%
X77500000Y-75325000D03*
%TD*%
D21*
%TO.N,+5V*%
X81750000Y-80250000D03*
X84500000Y-67500000D03*
%TO.N,GND*%
X80600000Y-63200000D03*
X70200000Y-27000000D03*
X89800000Y-65000000D03*
X70200000Y-52400000D03*
X89800000Y-27000000D03*
X86000000Y-67500000D03*
X89800000Y-39600000D03*
X70200000Y-65000000D03*
X80000000Y-70800000D03*
X89800000Y-52300000D03*
X75500000Y-58250000D03*
%TO.N,Net-(D1-K)*%
X67450000Y-23850000D03*
%TO.N,+3V3*%
X93500000Y-67500000D03*
%TO.N,/SW0*%
X90160000Y-67590000D03*
%TO.N,/CLOCK*%
X69840000Y-67590000D03*
%TO.N,/LATCH*%
X69840000Y-62510000D03*
%TO.N,/DATA*%
X69840000Y-70130000D03*
%TO.N,/IR*%
X90160000Y-70130000D03*
%TD*%
%TA.AperFunction,Conductor*%
%TO.N,GND*%
G36*
X99001423Y-20000566D02*
G01*
X99040986Y-20002394D01*
X99172950Y-20008495D01*
X99372549Y-20018302D01*
X99378048Y-20018819D01*
X99563357Y-20044668D01*
X99749828Y-20072329D01*
X99754871Y-20073294D01*
X99939341Y-20116681D01*
X100120221Y-20161989D01*
X100124797Y-20163327D01*
X100305568Y-20223916D01*
X100480339Y-20286450D01*
X100484471Y-20288100D01*
X100542986Y-20313936D01*
X100659474Y-20365370D01*
X100826973Y-20444592D01*
X100830601Y-20446457D01*
X100998128Y-20539770D01*
X100998142Y-20539778D01*
X101156964Y-20634972D01*
X101160119Y-20636996D01*
X101318603Y-20745559D01*
X101467377Y-20855897D01*
X101470001Y-20857957D01*
X101618027Y-20980876D01*
X101755321Y-21105314D01*
X101757514Y-21107402D01*
X101892596Y-21242484D01*
X101894687Y-21244680D01*
X101925051Y-21278181D01*
X102019129Y-21381980D01*
X102142034Y-21529989D01*
X102144109Y-21532632D01*
X102254443Y-21681400D01*
X102363002Y-21839879D01*
X102365032Y-21843044D01*
X102460221Y-22001857D01*
X102553527Y-22169371D01*
X102555410Y-22173034D01*
X102634638Y-22340547D01*
X102711899Y-22515527D01*
X102713558Y-22519685D01*
X102776093Y-22694459D01*
X102836662Y-22875173D01*
X102838018Y-22879812D01*
X102883317Y-23060654D01*
X102926696Y-23245090D01*
X102927672Y-23250189D01*
X102955337Y-23436689D01*
X102981177Y-23621933D01*
X102981697Y-23627459D01*
X102991512Y-23827238D01*
X102999434Y-23998575D01*
X102999500Y-24001439D01*
X102999500Y-83998560D01*
X102999434Y-84001424D01*
X102991512Y-84172761D01*
X102981697Y-84372539D01*
X102981177Y-84378065D01*
X102955337Y-84563310D01*
X102927672Y-84749809D01*
X102926696Y-84754908D01*
X102883317Y-84939345D01*
X102838018Y-85120186D01*
X102836662Y-85124825D01*
X102776093Y-85305540D01*
X102713557Y-85480314D01*
X102711899Y-85484470D01*
X102634638Y-85659452D01*
X102555410Y-85826964D01*
X102553527Y-85830627D01*
X102460221Y-85998142D01*
X102365032Y-86156954D01*
X102363002Y-86160118D01*
X102254437Y-86318608D01*
X102144121Y-86467350D01*
X102142021Y-86470025D01*
X102019132Y-86618016D01*
X101894695Y-86755310D01*
X101892596Y-86757514D01*
X101757514Y-86892596D01*
X101755310Y-86894695D01*
X101618016Y-87019132D01*
X101470025Y-87142021D01*
X101467350Y-87144121D01*
X101318608Y-87254437D01*
X101160118Y-87363002D01*
X101156954Y-87365032D01*
X100998142Y-87460221D01*
X100830627Y-87553527D01*
X100826964Y-87555410D01*
X100659452Y-87634638D01*
X100484470Y-87711899D01*
X100480314Y-87713557D01*
X100305540Y-87776093D01*
X100124825Y-87836662D01*
X100120186Y-87838018D01*
X99939345Y-87883317D01*
X99754908Y-87926696D01*
X99749809Y-87927672D01*
X99563310Y-87955337D01*
X99378065Y-87981177D01*
X99372539Y-87981697D01*
X99172761Y-87991512D01*
X99001424Y-87999434D01*
X98998560Y-87999500D01*
X61001440Y-87999500D01*
X60998576Y-87999434D01*
X60827238Y-87991512D01*
X60627459Y-87981697D01*
X60621933Y-87981177D01*
X60436689Y-87955337D01*
X60250189Y-87927672D01*
X60245090Y-87926696D01*
X60060654Y-87883317D01*
X59879812Y-87838018D01*
X59875173Y-87836662D01*
X59694459Y-87776093D01*
X59519685Y-87713558D01*
X59515527Y-87711899D01*
X59340547Y-87634638D01*
X59173034Y-87555410D01*
X59169371Y-87553527D01*
X59001857Y-87460221D01*
X58843044Y-87365032D01*
X58839879Y-87363002D01*
X58730371Y-87287989D01*
X58681392Y-87254437D01*
X58532632Y-87144109D01*
X58529989Y-87142034D01*
X58381980Y-87019129D01*
X58244688Y-86894695D01*
X58242484Y-86892596D01*
X58107402Y-86757514D01*
X58105314Y-86755321D01*
X57980867Y-86618016D01*
X57857957Y-86470001D01*
X57855897Y-86467377D01*
X57745559Y-86318603D01*
X57636995Y-86160118D01*
X57634966Y-86156954D01*
X57539778Y-85998142D01*
X57446457Y-85830601D01*
X57444588Y-85826964D01*
X57431987Y-85800322D01*
X57365370Y-85659474D01*
X57299397Y-85510057D01*
X57288100Y-85484471D01*
X57286450Y-85480339D01*
X57223906Y-85305540D01*
X57163327Y-85124797D01*
X57161989Y-85120221D01*
X57116675Y-84939315D01*
X57073294Y-84754871D01*
X57072329Y-84749828D01*
X57044662Y-84563310D01*
X57018819Y-84378048D01*
X57018302Y-84372549D01*
X57012282Y-84250005D01*
X60244859Y-84250005D01*
X60265385Y-84497729D01*
X60265387Y-84497738D01*
X60326412Y-84738717D01*
X60426266Y-84966364D01*
X60526564Y-85119882D01*
X61224070Y-84422376D01*
X61226884Y-84435915D01*
X61296442Y-84570156D01*
X61399638Y-84680652D01*
X61528819Y-84759209D01*
X61580002Y-84773549D01*
X60879942Y-85473609D01*
X60926768Y-85510055D01*
X60926770Y-85510056D01*
X61145385Y-85628364D01*
X61145396Y-85628369D01*
X61380506Y-85709083D01*
X61625707Y-85750000D01*
X61874293Y-85750000D01*
X62119493Y-85709083D01*
X62354603Y-85628369D01*
X62354614Y-85628364D01*
X62573228Y-85510057D01*
X62573231Y-85510055D01*
X62620056Y-85473609D01*
X61921568Y-84775121D01*
X62038458Y-84724349D01*
X62155739Y-84628934D01*
X62242928Y-84505415D01*
X62273354Y-84419802D01*
X62973434Y-85119882D01*
X63073731Y-84966369D01*
X63173587Y-84738717D01*
X63234612Y-84497738D01*
X63234614Y-84497729D01*
X63255141Y-84250005D01*
X66744859Y-84250005D01*
X66765385Y-84497729D01*
X66765387Y-84497738D01*
X66826412Y-84738717D01*
X66926266Y-84966364D01*
X67026564Y-85119882D01*
X67724070Y-84422376D01*
X67726884Y-84435915D01*
X67796442Y-84570156D01*
X67899638Y-84680652D01*
X68028819Y-84759209D01*
X68080002Y-84773549D01*
X67379942Y-85473609D01*
X67426768Y-85510055D01*
X67426770Y-85510056D01*
X67645385Y-85628364D01*
X67645396Y-85628369D01*
X67880506Y-85709083D01*
X68125707Y-85750000D01*
X68374293Y-85750000D01*
X68619493Y-85709083D01*
X68854603Y-85628369D01*
X68854614Y-85628364D01*
X69073228Y-85510057D01*
X69073231Y-85510055D01*
X69120056Y-85473609D01*
X68971447Y-85325000D01*
X73294357Y-85325000D01*
X73314884Y-85546535D01*
X73314885Y-85546537D01*
X73375769Y-85760523D01*
X73375775Y-85760538D01*
X73474938Y-85959683D01*
X73474943Y-85959691D01*
X73609020Y-86137238D01*
X73773437Y-86287123D01*
X73773439Y-86287125D01*
X73962595Y-86404245D01*
X73962596Y-86404245D01*
X73962599Y-86404247D01*
X74170060Y-86484618D01*
X74388757Y-86525500D01*
X74388759Y-86525500D01*
X74611241Y-86525500D01*
X74611243Y-86525500D01*
X74829940Y-86484618D01*
X75037401Y-86404247D01*
X75226562Y-86287124D01*
X75390981Y-86137236D01*
X75525058Y-85959689D01*
X75624229Y-85760528D01*
X75685115Y-85546536D01*
X75705643Y-85325000D01*
X75694198Y-85201493D01*
X76059500Y-85201493D01*
X76059501Y-85201509D01*
X76069979Y-85304073D01*
X76125045Y-85470250D01*
X76125047Y-85470255D01*
X76131267Y-85480339D01*
X76216952Y-85619256D01*
X76340744Y-85743048D01*
X76489747Y-85834954D01*
X76655928Y-85890021D01*
X76758499Y-85900500D01*
X78161500Y-85900499D01*
X78264072Y-85890021D01*
X78430253Y-85834954D01*
X78579256Y-85743048D01*
X78703048Y-85619256D01*
X78794954Y-85470253D01*
X78844567Y-85320528D01*
X78874592Y-85271853D01*
X79555550Y-84590896D01*
X79556327Y-84601265D01*
X79605887Y-84727541D01*
X79690465Y-84833599D01*
X79802547Y-84910016D01*
X79910299Y-84943253D01*
X79201199Y-85652351D01*
X79231650Y-85676050D01*
X79435697Y-85786476D01*
X79435706Y-85786479D01*
X79655139Y-85861811D01*
X79883993Y-85900000D01*
X80116007Y-85900000D01*
X80344860Y-85861811D01*
X80564293Y-85786479D01*
X80564302Y-85786476D01*
X80768350Y-85676050D01*
X80798798Y-85652351D01*
X80088231Y-84941784D01*
X80134138Y-84934865D01*
X80256357Y-84876007D01*
X80355798Y-84783740D01*
X80423625Y-84666260D01*
X80441499Y-84587946D01*
X81151186Y-85297634D01*
X81165892Y-85275126D01*
X81219038Y-85229769D01*
X81288269Y-85220345D01*
X81351605Y-85249847D01*
X81373510Y-85275126D01*
X81431016Y-85363147D01*
X81431019Y-85363151D01*
X81431021Y-85363153D01*
X81588216Y-85533913D01*
X81588219Y-85533915D01*
X81588222Y-85533918D01*
X81771365Y-85676464D01*
X81771371Y-85676468D01*
X81771374Y-85676470D01*
X81894399Y-85743048D01*
X81974652Y-85786479D01*
X81975497Y-85786936D01*
X82089487Y-85826068D01*
X82195015Y-85862297D01*
X82195017Y-85862297D01*
X82195019Y-85862298D01*
X82423951Y-85900500D01*
X82423952Y-85900500D01*
X82656048Y-85900500D01*
X82656049Y-85900500D01*
X82884981Y-85862298D01*
X83104503Y-85786936D01*
X83308626Y-85676470D01*
X83491784Y-85533913D01*
X83648979Y-85363153D01*
X83673906Y-85325000D01*
X84294357Y-85325000D01*
X84314884Y-85546535D01*
X84314885Y-85546537D01*
X84375769Y-85760523D01*
X84375775Y-85760538D01*
X84474938Y-85959683D01*
X84474943Y-85959691D01*
X84609020Y-86137238D01*
X84773437Y-86287123D01*
X84773439Y-86287125D01*
X84962595Y-86404245D01*
X84962596Y-86404245D01*
X84962599Y-86404247D01*
X85170060Y-86484618D01*
X85388757Y-86525500D01*
X85388759Y-86525500D01*
X85611241Y-86525500D01*
X85611243Y-86525500D01*
X85829940Y-86484618D01*
X86037401Y-86404247D01*
X86226562Y-86287124D01*
X86390981Y-86137236D01*
X86525058Y-85959689D01*
X86624229Y-85760528D01*
X86685115Y-85546536D01*
X86705643Y-85325000D01*
X86686664Y-85120186D01*
X86685115Y-85103464D01*
X86685114Y-85103462D01*
X86682568Y-85094515D01*
X86624229Y-84889472D01*
X86624224Y-84889461D01*
X86525061Y-84690316D01*
X86525056Y-84690308D01*
X86390979Y-84512761D01*
X86226562Y-84362876D01*
X86226560Y-84362874D01*
X86205774Y-84350004D01*
X98325317Y-84350004D01*
X98344021Y-84599597D01*
X98344021Y-84599599D01*
X98399714Y-84843607D01*
X98399720Y-84843626D01*
X98491163Y-85076618D01*
X98616311Y-85293382D01*
X98654800Y-85341645D01*
X99397452Y-84598993D01*
X99407188Y-84628956D01*
X99495186Y-84767619D01*
X99614903Y-84880040D01*
X99749510Y-84954041D01*
X99008402Y-85695148D01*
X99162651Y-85800313D01*
X99162664Y-85800320D01*
X99388167Y-85908916D01*
X99388165Y-85908916D01*
X99627346Y-85982694D01*
X99627352Y-85982696D01*
X99874843Y-86019999D01*
X99874852Y-86020000D01*
X100125148Y-86020000D01*
X100125156Y-86019999D01*
X100372647Y-85982696D01*
X100372653Y-85982694D01*
X100611833Y-85908916D01*
X100837334Y-85800322D01*
X100837335Y-85800321D01*
X100991596Y-85695148D01*
X100247534Y-84951086D01*
X100315629Y-84924126D01*
X100448492Y-84827595D01*
X100553175Y-84701055D01*
X100601631Y-84598079D01*
X101345198Y-85341646D01*
X101345199Y-85341645D01*
X101383681Y-85293392D01*
X101383688Y-85293381D01*
X101508836Y-85076618D01*
X101600279Y-84843626D01*
X101600285Y-84843607D01*
X101655978Y-84599599D01*
X101655978Y-84599597D01*
X101674683Y-84350004D01*
X101674683Y-84349995D01*
X101655978Y-84100402D01*
X101655978Y-84100400D01*
X101600285Y-83856392D01*
X101600279Y-83856373D01*
X101508836Y-83623381D01*
X101383685Y-83406613D01*
X101345199Y-83358352D01*
X100602546Y-84101004D01*
X100592812Y-84071044D01*
X100504814Y-83932381D01*
X100385097Y-83819960D01*
X100250489Y-83745958D01*
X100991596Y-83004850D01*
X100837342Y-82899682D01*
X100837334Y-82899677D01*
X100611832Y-82791083D01*
X100611834Y-82791083D01*
X100372653Y-82717305D01*
X100372647Y-82717303D01*
X100125156Y-82680000D01*
X99874843Y-82680000D01*
X99627352Y-82717303D01*
X99627346Y-82717305D01*
X99388166Y-82791083D01*
X99162661Y-82899680D01*
X99162660Y-82899681D01*
X99008402Y-83004849D01*
X99752466Y-83748913D01*
X99684371Y-83775874D01*
X99551508Y-83872405D01*
X99446825Y-83998945D01*
X99398368Y-84101921D01*
X98654800Y-83358353D01*
X98616308Y-83406621D01*
X98491163Y-83623381D01*
X98399720Y-83856373D01*
X98399714Y-83856392D01*
X98344021Y-84100400D01*
X98344021Y-84100402D01*
X98325317Y-84349995D01*
X98325317Y-84350004D01*
X86205774Y-84350004D01*
X86037404Y-84245754D01*
X86037398Y-84245752D01*
X85829940Y-84165382D01*
X85611243Y-84124500D01*
X85388757Y-84124500D01*
X85170060Y-84165382D01*
X85054013Y-84210339D01*
X84962601Y-84245752D01*
X84962595Y-84245754D01*
X84773439Y-84362874D01*
X84773437Y-84362876D01*
X84609020Y-84512761D01*
X84474943Y-84690308D01*
X84474938Y-84690316D01*
X84375775Y-84889461D01*
X84375769Y-84889476D01*
X84314885Y-85103462D01*
X84314884Y-85103464D01*
X84294357Y-85324999D01*
X84294357Y-85325000D01*
X83673906Y-85325000D01*
X83775924Y-85168849D01*
X83869157Y-84956300D01*
X83926134Y-84731305D01*
X83926446Y-84727541D01*
X83945300Y-84500006D01*
X83945300Y-84499993D01*
X83926135Y-84268702D01*
X83926133Y-84268691D01*
X83869157Y-84043699D01*
X83775924Y-83831151D01*
X83648983Y-83636852D01*
X83648980Y-83636849D01*
X83648979Y-83636847D01*
X83491784Y-83466087D01*
X83491779Y-83466083D01*
X83491777Y-83466081D01*
X83308634Y-83323535D01*
X83308628Y-83323531D01*
X83104504Y-83213064D01*
X83104495Y-83213061D01*
X82884984Y-83137702D01*
X82713282Y-83109050D01*
X82656049Y-83099500D01*
X82423951Y-83099500D01*
X82378164Y-83107140D01*
X82195015Y-83137702D01*
X81975504Y-83213061D01*
X81975495Y-83213064D01*
X81771371Y-83323531D01*
X81771365Y-83323535D01*
X81588222Y-83466081D01*
X81588219Y-83466084D01*
X81588216Y-83466086D01*
X81588216Y-83466087D01*
X81443418Y-83623381D01*
X81431015Y-83636854D01*
X81373509Y-83724874D01*
X81320363Y-83770230D01*
X81251132Y-83779654D01*
X81187796Y-83750152D01*
X81165892Y-83724873D01*
X81151186Y-83702364D01*
X80444449Y-84409101D01*
X80443673Y-84398735D01*
X80394113Y-84272459D01*
X80309535Y-84166401D01*
X80197453Y-84089984D01*
X80089700Y-84056747D01*
X80798799Y-83347648D01*
X80798799Y-83347647D01*
X80768349Y-83323949D01*
X80564302Y-83213523D01*
X80564293Y-83213520D01*
X80344860Y-83138188D01*
X80116007Y-83100000D01*
X79883993Y-83100000D01*
X79655139Y-83138188D01*
X79435706Y-83213520D01*
X79435698Y-83213523D01*
X79231644Y-83323952D01*
X79201200Y-83347646D01*
X79201200Y-83347647D01*
X79911768Y-84058215D01*
X79865862Y-84065135D01*
X79743643Y-84123993D01*
X79644202Y-84216260D01*
X79576375Y-84333740D01*
X79558500Y-84412053D01*
X78874590Y-83728143D01*
X78844567Y-83679469D01*
X78794954Y-83529747D01*
X78703048Y-83380744D01*
X78579256Y-83256952D01*
X78430253Y-83165046D01*
X78414153Y-83159711D01*
X78264073Y-83109979D01*
X78264066Y-83109978D01*
X78161502Y-83099500D01*
X76758506Y-83099500D01*
X76758490Y-83099501D01*
X76655926Y-83109979D01*
X76489749Y-83165045D01*
X76489744Y-83165047D01*
X76340742Y-83256953D01*
X76216953Y-83380742D01*
X76125047Y-83529744D01*
X76125045Y-83529749D01*
X76069979Y-83695926D01*
X76069978Y-83695933D01*
X76059500Y-83798491D01*
X76059500Y-85201493D01*
X75694198Y-85201493D01*
X75686664Y-85120186D01*
X75685115Y-85103464D01*
X75685114Y-85103462D01*
X75682568Y-85094515D01*
X75624229Y-84889472D01*
X75624224Y-84889461D01*
X75525061Y-84690316D01*
X75525056Y-84690308D01*
X75390979Y-84512761D01*
X75226562Y-84362876D01*
X75226560Y-84362874D01*
X75037404Y-84245754D01*
X75037398Y-84245752D01*
X74829940Y-84165382D01*
X74611243Y-84124500D01*
X74388757Y-84124500D01*
X74170060Y-84165382D01*
X74054013Y-84210339D01*
X73962601Y-84245752D01*
X73962595Y-84245754D01*
X73773439Y-84362874D01*
X73773437Y-84362876D01*
X73609020Y-84512761D01*
X73474943Y-84690308D01*
X73474938Y-84690316D01*
X73375775Y-84889461D01*
X73375769Y-84889476D01*
X73314885Y-85103462D01*
X73314884Y-85103464D01*
X73294357Y-85324999D01*
X73294357Y-85325000D01*
X68971447Y-85325000D01*
X68421568Y-84775121D01*
X68538458Y-84724349D01*
X68655739Y-84628934D01*
X68742928Y-84505415D01*
X68773354Y-84419802D01*
X69473434Y-85119882D01*
X69573731Y-84966369D01*
X69673587Y-84738717D01*
X69734612Y-84497738D01*
X69734614Y-84497729D01*
X69755141Y-84250005D01*
X69755141Y-84249994D01*
X69734614Y-84002270D01*
X69734612Y-84002261D01*
X69673587Y-83761282D01*
X69573731Y-83533630D01*
X69473434Y-83380116D01*
X68775929Y-84077622D01*
X68773116Y-84064085D01*
X68703558Y-83929844D01*
X68600362Y-83819348D01*
X68471181Y-83740791D01*
X68419997Y-83726450D01*
X69120057Y-83026390D01*
X69120056Y-83026389D01*
X69073229Y-82989943D01*
X68854614Y-82871635D01*
X68854603Y-82871630D01*
X68619493Y-82790916D01*
X68374293Y-82750000D01*
X68125707Y-82750000D01*
X67880506Y-82790916D01*
X67645396Y-82871630D01*
X67645390Y-82871632D01*
X67426761Y-82989949D01*
X67379942Y-83026388D01*
X67379942Y-83026390D01*
X68078431Y-83724878D01*
X67961542Y-83775651D01*
X67844261Y-83871066D01*
X67757072Y-83994585D01*
X67726645Y-84080197D01*
X67026564Y-83380116D01*
X66926267Y-83533632D01*
X66826412Y-83761282D01*
X66765387Y-84002261D01*
X66765385Y-84002270D01*
X66744859Y-84249994D01*
X66744859Y-84250005D01*
X63255141Y-84250005D01*
X63255141Y-84249994D01*
X63234614Y-84002270D01*
X63234612Y-84002261D01*
X63173587Y-83761282D01*
X63073731Y-83533630D01*
X62973434Y-83380116D01*
X62275929Y-84077622D01*
X62273116Y-84064085D01*
X62203558Y-83929844D01*
X62100362Y-83819348D01*
X61971181Y-83740791D01*
X61919997Y-83726450D01*
X62620057Y-83026390D01*
X62620056Y-83026389D01*
X62573229Y-82989943D01*
X62354614Y-82871635D01*
X62354603Y-82871630D01*
X62119493Y-82790916D01*
X61874293Y-82750000D01*
X61625707Y-82750000D01*
X61380506Y-82790916D01*
X61145396Y-82871630D01*
X61145390Y-82871632D01*
X60926761Y-82989949D01*
X60879942Y-83026388D01*
X60879942Y-83026390D01*
X61578431Y-83724878D01*
X61461542Y-83775651D01*
X61344261Y-83871066D01*
X61257072Y-83994585D01*
X61226645Y-84080197D01*
X60526564Y-83380116D01*
X60426267Y-83533632D01*
X60326412Y-83761282D01*
X60265387Y-84002261D01*
X60265385Y-84002270D01*
X60244859Y-84249994D01*
X60244859Y-84250005D01*
X57012282Y-84250005D01*
X57008487Y-84172761D01*
X57000566Y-84001423D01*
X57000500Y-83998560D01*
X57000500Y-81850004D01*
X88324816Y-81850004D01*
X88343524Y-82099663D01*
X88343525Y-82099668D01*
X88399236Y-82343755D01*
X88399238Y-82343764D01*
X88399240Y-82343769D01*
X88490711Y-82576835D01*
X88615898Y-82793665D01*
X88700443Y-82899681D01*
X88772006Y-82989418D01*
X88931819Y-83137702D01*
X88955540Y-83159712D01*
X89162408Y-83300752D01*
X89162413Y-83300754D01*
X89162414Y-83300755D01*
X89162415Y-83300756D01*
X89282016Y-83358352D01*
X89387983Y-83409383D01*
X89387984Y-83409383D01*
X89387987Y-83409385D01*
X89627236Y-83483184D01*
X89627237Y-83483184D01*
X89627240Y-83483185D01*
X89874805Y-83520499D01*
X89874810Y-83520499D01*
X89874813Y-83520500D01*
X89874814Y-83520500D01*
X90125186Y-83520500D01*
X90125187Y-83520500D01*
X90125194Y-83520499D01*
X90372759Y-83483185D01*
X90372760Y-83483184D01*
X90372764Y-83483184D01*
X90612013Y-83409385D01*
X90837592Y-83300752D01*
X91044460Y-83159712D01*
X91211362Y-83004849D01*
X91227993Y-82989418D01*
X91227993Y-82989416D01*
X91227997Y-82989414D01*
X91384102Y-82793665D01*
X91509289Y-82576835D01*
X91600760Y-82343769D01*
X91656474Y-82099673D01*
X91658295Y-82075373D01*
X92745723Y-82075373D01*
X92775881Y-82375160D01*
X92775882Y-82375162D01*
X92845728Y-82668252D01*
X92845733Y-82668266D01*
X92954020Y-82949427D01*
X92954024Y-82949436D01*
X93098825Y-83213665D01*
X93098829Y-83213671D01*
X93240990Y-83406613D01*
X93277554Y-83456238D01*
X93487020Y-83672824D01*
X93521434Y-83700000D01*
X93723478Y-83859553D01*
X93723480Y-83859554D01*
X93723485Y-83859558D01*
X93982730Y-84013109D01*
X94260128Y-84130736D01*
X94550729Y-84210340D01*
X94849347Y-84250500D01*
X94849351Y-84250500D01*
X95075252Y-84250500D01*
X95239164Y-84239526D01*
X95300634Y-84235412D01*
X95595903Y-84175396D01*
X95880537Y-84076560D01*
X96149459Y-83940668D01*
X96397869Y-83770144D01*
X96621333Y-83568032D01*
X96815865Y-83337939D01*
X96977993Y-83083970D01*
X97104823Y-82810658D01*
X97194093Y-82522879D01*
X97244209Y-82225770D01*
X97254277Y-81924631D01*
X97224118Y-81624838D01*
X97154269Y-81331739D01*
X97045977Y-81050566D01*
X96901175Y-80786335D01*
X96722446Y-80543762D01*
X96512980Y-80327176D01*
X96276521Y-80140446D01*
X96276517Y-80140443D01*
X96276515Y-80140442D01*
X96017270Y-79986891D01*
X95739872Y-79869264D01*
X95739863Y-79869261D01*
X95449272Y-79789660D01*
X95374616Y-79779620D01*
X95150653Y-79749500D01*
X94924756Y-79749500D01*
X94924748Y-79749500D01*
X94699368Y-79764587D01*
X94699359Y-79764589D01*
X94404094Y-79824604D01*
X94119464Y-79923439D01*
X94119459Y-79923441D01*
X93850546Y-80059328D01*
X93602125Y-80229860D01*
X93378665Y-80431969D01*
X93184132Y-80662064D01*
X93022006Y-80916030D01*
X93022005Y-80916032D01*
X92925886Y-81123165D01*
X92895177Y-81189342D01*
X92895176Y-81189346D01*
X92805907Y-81477118D01*
X92755791Y-81774230D01*
X92745723Y-82075373D01*
X91658295Y-82075373D01*
X91675184Y-81850004D01*
X91675184Y-81849995D01*
X91656475Y-81600336D01*
X91656474Y-81600331D01*
X91656474Y-81600327D01*
X91600760Y-81356231D01*
X91509289Y-81123165D01*
X91384102Y-80906335D01*
X91227997Y-80710586D01*
X91227996Y-80710585D01*
X91227993Y-80710581D01*
X91044460Y-80540288D01*
X90969841Y-80489414D01*
X90837592Y-80399248D01*
X90837588Y-80399246D01*
X90837585Y-80399244D01*
X90837584Y-80399243D01*
X90612015Y-80290616D01*
X90612017Y-80290616D01*
X90372765Y-80216816D01*
X90372759Y-80216814D01*
X90125194Y-80179500D01*
X90125187Y-80179500D01*
X89874813Y-80179500D01*
X89874805Y-80179500D01*
X89627240Y-80216814D01*
X89627234Y-80216816D01*
X89387983Y-80290616D01*
X89162415Y-80399243D01*
X89162414Y-80399244D01*
X88955539Y-80540288D01*
X88772006Y-80710581D01*
X88615898Y-80906335D01*
X88490711Y-81123164D01*
X88399242Y-81356225D01*
X88399236Y-81356244D01*
X88343525Y-81600331D01*
X88343524Y-81600336D01*
X88324816Y-81849995D01*
X88324816Y-81850004D01*
X57000500Y-81850004D01*
X57000500Y-79750005D01*
X60244357Y-79750005D01*
X60264890Y-79997812D01*
X60264892Y-79997824D01*
X60325936Y-80238881D01*
X60425826Y-80466606D01*
X60561833Y-80674782D01*
X60561836Y-80674785D01*
X60730256Y-80857738D01*
X60926491Y-81010474D01*
X61145190Y-81128828D01*
X61380386Y-81209571D01*
X61625665Y-81250500D01*
X61874335Y-81250500D01*
X62119614Y-81209571D01*
X62354810Y-81128828D01*
X62573509Y-81010474D01*
X62769744Y-80857738D01*
X62938164Y-80674785D01*
X63074173Y-80466607D01*
X63174063Y-80238881D01*
X63235108Y-79997821D01*
X63236014Y-79986891D01*
X63255643Y-79750005D01*
X66744357Y-79750005D01*
X66764890Y-79997812D01*
X66764892Y-79997824D01*
X66825936Y-80238881D01*
X66925826Y-80466606D01*
X67061833Y-80674782D01*
X67061836Y-80674785D01*
X67230256Y-80857738D01*
X67426491Y-81010474D01*
X67645190Y-81128828D01*
X67880386Y-81209571D01*
X68125665Y-81250500D01*
X68374335Y-81250500D01*
X68619614Y-81209571D01*
X68854810Y-81128828D01*
X69073509Y-81010474D01*
X69269744Y-80857738D01*
X69438164Y-80674785D01*
X69574173Y-80466607D01*
X69669184Y-80250003D01*
X80944435Y-80250003D01*
X80964630Y-80429249D01*
X80964631Y-80429254D01*
X81024211Y-80599523D01*
X81071500Y-80674782D01*
X81120184Y-80752262D01*
X81247738Y-80879816D01*
X81400478Y-80975789D01*
X81421612Y-80983184D01*
X81570745Y-81035368D01*
X81570750Y-81035369D01*
X81749996Y-81055565D01*
X81750000Y-81055565D01*
X81750004Y-81055565D01*
X81929249Y-81035369D01*
X81929252Y-81035368D01*
X81929255Y-81035368D01*
X82099522Y-80975789D01*
X82252262Y-80879816D01*
X82379816Y-80752262D01*
X82475789Y-80599522D01*
X82535368Y-80429255D01*
X82538749Y-80399248D01*
X82555565Y-80250003D01*
X82555565Y-80249996D01*
X82535369Y-80070750D01*
X82535368Y-80070745D01*
X82509848Y-79997812D01*
X82475789Y-79900478D01*
X82440159Y-79843774D01*
X82390404Y-79764589D01*
X82379816Y-79747738D01*
X82252262Y-79620184D01*
X82219603Y-79599663D01*
X82099523Y-79524211D01*
X81929254Y-79464631D01*
X81929249Y-79464630D01*
X81750004Y-79444435D01*
X81749996Y-79444435D01*
X81570750Y-79464630D01*
X81570745Y-79464631D01*
X81400476Y-79524211D01*
X81247737Y-79620184D01*
X81120184Y-79747737D01*
X81024211Y-79900476D01*
X80964631Y-80070745D01*
X80964630Y-80070750D01*
X80944435Y-80249996D01*
X80944435Y-80250003D01*
X69669184Y-80250003D01*
X69674063Y-80238881D01*
X69735108Y-79997821D01*
X69736014Y-79986891D01*
X69755643Y-79750005D01*
X69755643Y-79749994D01*
X69735109Y-79502187D01*
X69735107Y-79502175D01*
X69696572Y-79350004D01*
X98324816Y-79350004D01*
X98343524Y-79599663D01*
X98343525Y-79599668D01*
X98399236Y-79843755D01*
X98399238Y-79843764D01*
X98399240Y-79843769D01*
X98490711Y-80076835D01*
X98615898Y-80293665D01*
X98700094Y-80399243D01*
X98772006Y-80489418D01*
X98945264Y-80650177D01*
X98955540Y-80659712D01*
X99162408Y-80800752D01*
X99162413Y-80800754D01*
X99162414Y-80800755D01*
X99162415Y-80800756D01*
X99280741Y-80857738D01*
X99387983Y-80909383D01*
X99387984Y-80909383D01*
X99387987Y-80909385D01*
X99627236Y-80983184D01*
X99627237Y-80983184D01*
X99627240Y-80983185D01*
X99874805Y-81020499D01*
X99874810Y-81020499D01*
X99874813Y-81020500D01*
X99874814Y-81020500D01*
X100125186Y-81020500D01*
X100125187Y-81020500D01*
X100125194Y-81020499D01*
X100372759Y-80983185D01*
X100372760Y-80983184D01*
X100372764Y-80983184D01*
X100612013Y-80909385D01*
X100837592Y-80800752D01*
X101044460Y-80659712D01*
X101227997Y-80489414D01*
X101384102Y-80293665D01*
X101509289Y-80076835D01*
X101600760Y-79843769D01*
X101656474Y-79599673D01*
X101662129Y-79524211D01*
X101675184Y-79350004D01*
X101675184Y-79349995D01*
X101656475Y-79100336D01*
X101656474Y-79100331D01*
X101656474Y-79100327D01*
X101600760Y-78856231D01*
X101509289Y-78623165D01*
X101384102Y-78406335D01*
X101227997Y-78210586D01*
X101227996Y-78210585D01*
X101227993Y-78210581D01*
X101044460Y-78040288D01*
X100837592Y-77899248D01*
X100837588Y-77899246D01*
X100837585Y-77899244D01*
X100837584Y-77899243D01*
X100612015Y-77790616D01*
X100612017Y-77790616D01*
X100372765Y-77716816D01*
X100372759Y-77716814D01*
X100125194Y-77679500D01*
X100125187Y-77679500D01*
X99874813Y-77679500D01*
X99874805Y-77679500D01*
X99627240Y-77716814D01*
X99627234Y-77716816D01*
X99387983Y-77790616D01*
X99162415Y-77899243D01*
X99162414Y-77899244D01*
X98955539Y-78040288D01*
X98772006Y-78210581D01*
X98615898Y-78406335D01*
X98490711Y-78623164D01*
X98399242Y-78856225D01*
X98399236Y-78856244D01*
X98343525Y-79100331D01*
X98343524Y-79100336D01*
X98324816Y-79349995D01*
X98324816Y-79350004D01*
X69696572Y-79350004D01*
X69674063Y-79261118D01*
X69574173Y-79033393D01*
X69438166Y-78825217D01*
X69416557Y-78801744D01*
X69269744Y-78642262D01*
X69073509Y-78489526D01*
X69073507Y-78489525D01*
X69073506Y-78489524D01*
X68854811Y-78371172D01*
X68854802Y-78371169D01*
X68619616Y-78290429D01*
X68374335Y-78249500D01*
X68125665Y-78249500D01*
X67880383Y-78290429D01*
X67645197Y-78371169D01*
X67645188Y-78371172D01*
X67426493Y-78489524D01*
X67230257Y-78642261D01*
X67061833Y-78825217D01*
X66925826Y-79033393D01*
X66825936Y-79261118D01*
X66764892Y-79502175D01*
X66764890Y-79502187D01*
X66744357Y-79749994D01*
X66744357Y-79750005D01*
X63255643Y-79750005D01*
X63255643Y-79749994D01*
X63235109Y-79502187D01*
X63235107Y-79502175D01*
X63174063Y-79261118D01*
X63074173Y-79033393D01*
X62938166Y-78825217D01*
X62916557Y-78801744D01*
X62769744Y-78642262D01*
X62573509Y-78489526D01*
X62573507Y-78489525D01*
X62573506Y-78489524D01*
X62354811Y-78371172D01*
X62354802Y-78371169D01*
X62119616Y-78290429D01*
X61874335Y-78249500D01*
X61625665Y-78249500D01*
X61380383Y-78290429D01*
X61145197Y-78371169D01*
X61145188Y-78371172D01*
X60926493Y-78489524D01*
X60730257Y-78642261D01*
X60561833Y-78825217D01*
X60425826Y-79033393D01*
X60325936Y-79261118D01*
X60264892Y-79502175D01*
X60264890Y-79502187D01*
X60244357Y-79749994D01*
X60244357Y-79750005D01*
X57000500Y-79750005D01*
X57000500Y-75325007D01*
X75244671Y-75325007D01*
X75263964Y-75619363D01*
X75263965Y-75619373D01*
X75263966Y-75619380D01*
X75263968Y-75619390D01*
X75321518Y-75908716D01*
X75321521Y-75908730D01*
X75416349Y-76188080D01*
X75546825Y-76452660D01*
X75546829Y-76452667D01*
X75710725Y-76697955D01*
X75905241Y-76919758D01*
X76127044Y-77114274D01*
X76229125Y-77182482D01*
X76372335Y-77278172D01*
X76636923Y-77408652D01*
X76916278Y-77503481D01*
X77205620Y-77561034D01*
X77233888Y-77562886D01*
X77499993Y-77580329D01*
X77500000Y-77580329D01*
X77500007Y-77580329D01*
X77735675Y-77564881D01*
X77794380Y-77561034D01*
X78083722Y-77503481D01*
X78363077Y-77408652D01*
X78627665Y-77278172D01*
X78860091Y-77122870D01*
X80249500Y-77122870D01*
X80249501Y-77122876D01*
X80255908Y-77182483D01*
X80306202Y-77317328D01*
X80306206Y-77317335D01*
X80392452Y-77432544D01*
X80392455Y-77432547D01*
X80507664Y-77518793D01*
X80507671Y-77518797D01*
X80642517Y-77569091D01*
X80642516Y-77569091D01*
X80649444Y-77569835D01*
X80702127Y-77575500D01*
X84297872Y-77575499D01*
X84357483Y-77569091D01*
X84492331Y-77518796D01*
X84607546Y-77432546D01*
X84693796Y-77317331D01*
X84744091Y-77182483D01*
X84750500Y-77122873D01*
X84750499Y-73527128D01*
X84745299Y-73478757D01*
X84744091Y-73467516D01*
X84693797Y-73332671D01*
X84693793Y-73332664D01*
X84607547Y-73217455D01*
X84607544Y-73217452D01*
X84492335Y-73131206D01*
X84492328Y-73131202D01*
X84357482Y-73080908D01*
X84357483Y-73080908D01*
X84297883Y-73074501D01*
X84297881Y-73074500D01*
X84297873Y-73074500D01*
X84297864Y-73074500D01*
X80702129Y-73074500D01*
X80702123Y-73074501D01*
X80642516Y-73080908D01*
X80507671Y-73131202D01*
X80507664Y-73131206D01*
X80392455Y-73217452D01*
X80392452Y-73217455D01*
X80306206Y-73332664D01*
X80306202Y-73332671D01*
X80255908Y-73467517D01*
X80255794Y-73468582D01*
X80249501Y-73527123D01*
X80249500Y-73527135D01*
X80249500Y-77122870D01*
X78860091Y-77122870D01*
X78872957Y-77114273D01*
X79094758Y-76919758D01*
X79289273Y-76697957D01*
X79453172Y-76452665D01*
X79583652Y-76188077D01*
X79678481Y-75908722D01*
X79736034Y-75619380D01*
X79755329Y-75325000D01*
X79755329Y-75324992D01*
X79736035Y-75030636D01*
X79736034Y-75030620D01*
X79678481Y-74741278D01*
X79583652Y-74461923D01*
X79453172Y-74197336D01*
X79289273Y-73952043D01*
X79200221Y-73850499D01*
X79094758Y-73730241D01*
X78872955Y-73535725D01*
X78627667Y-73371829D01*
X78627660Y-73371825D01*
X78363080Y-73241349D01*
X78083730Y-73146521D01*
X78083724Y-73146519D01*
X78083722Y-73146519D01*
X77794380Y-73088966D01*
X77794373Y-73088965D01*
X77794363Y-73088964D01*
X77500007Y-73069671D01*
X77499993Y-73069671D01*
X77205636Y-73088964D01*
X77205624Y-73088965D01*
X77205620Y-73088966D01*
X77205612Y-73088967D01*
X77205609Y-73088968D01*
X76916283Y-73146518D01*
X76916269Y-73146521D01*
X76636919Y-73241349D01*
X76372334Y-73371828D01*
X76127041Y-73535728D01*
X75905241Y-73730241D01*
X75710728Y-73952041D01*
X75546828Y-74197334D01*
X75416349Y-74461919D01*
X75321521Y-74741269D01*
X75321518Y-74741283D01*
X75263968Y-75030609D01*
X75263964Y-75030636D01*
X75244671Y-75324992D01*
X75244671Y-75325007D01*
X57000500Y-75325007D01*
X57000500Y-72067763D01*
X59145787Y-72067763D01*
X59175413Y-72337013D01*
X59175415Y-72337024D01*
X59243926Y-72599082D01*
X59243928Y-72599088D01*
X59349870Y-72848390D01*
X59421998Y-72966575D01*
X59490979Y-73079605D01*
X59490986Y-73079615D01*
X59664253Y-73287819D01*
X59664259Y-73287824D01*
X59714312Y-73332671D01*
X59865998Y-73468582D01*
X60091910Y-73618044D01*
X60337176Y-73733020D01*
X60337183Y-73733022D01*
X60337185Y-73733023D01*
X60596557Y-73811057D01*
X60596564Y-73811058D01*
X60596569Y-73811060D01*
X60864561Y-73850500D01*
X60864566Y-73850500D01*
X61067636Y-73850500D01*
X61119133Y-73846730D01*
X61270156Y-73835677D01*
X61382758Y-73810593D01*
X61534546Y-73776782D01*
X61534548Y-73776781D01*
X61534553Y-73776780D01*
X61787558Y-73680014D01*
X62023777Y-73547441D01*
X62238177Y-73381888D01*
X62426186Y-73186881D01*
X62583799Y-72966579D01*
X62657787Y-72822669D01*
X62707649Y-72725690D01*
X62707651Y-72725684D01*
X62707656Y-72725675D01*
X62795118Y-72469305D01*
X62844319Y-72202933D01*
X62849259Y-72067763D01*
X97145787Y-72067763D01*
X97175413Y-72337013D01*
X97175415Y-72337024D01*
X97243926Y-72599082D01*
X97243928Y-72599088D01*
X97349870Y-72848390D01*
X97421998Y-72966575D01*
X97490979Y-73079605D01*
X97490986Y-73079615D01*
X97664253Y-73287819D01*
X97664259Y-73287824D01*
X97714312Y-73332671D01*
X97865998Y-73468582D01*
X98091910Y-73618044D01*
X98337176Y-73733020D01*
X98337183Y-73733022D01*
X98337185Y-73733023D01*
X98596557Y-73811057D01*
X98596564Y-73811058D01*
X98596569Y-73811060D01*
X98864561Y-73850500D01*
X98864566Y-73850500D01*
X99067636Y-73850500D01*
X99119133Y-73846730D01*
X99270156Y-73835677D01*
X99382758Y-73810593D01*
X99534546Y-73776782D01*
X99534548Y-73776781D01*
X99534553Y-73776780D01*
X99787558Y-73680014D01*
X100023777Y-73547441D01*
X100238177Y-73381888D01*
X100426186Y-73186881D01*
X100583799Y-72966579D01*
X100657787Y-72822669D01*
X100707649Y-72725690D01*
X100707651Y-72725684D01*
X100707656Y-72725675D01*
X100795118Y-72469305D01*
X100844319Y-72202933D01*
X100854212Y-71932235D01*
X100824586Y-71662982D01*
X100756072Y-71400912D01*
X100650130Y-71151610D01*
X100509018Y-70920390D01*
X100419747Y-70813119D01*
X100335746Y-70712180D01*
X100335740Y-70712175D01*
X100134002Y-70531418D01*
X99908092Y-70381957D01*
X99908090Y-70381956D01*
X99662824Y-70266980D01*
X99662819Y-70266978D01*
X99662814Y-70266976D01*
X99403442Y-70188942D01*
X99403428Y-70188939D01*
X99287791Y-70171921D01*
X99135439Y-70149500D01*
X98932369Y-70149500D01*
X98932364Y-70149500D01*
X98729844Y-70164323D01*
X98729831Y-70164325D01*
X98465453Y-70223217D01*
X98465446Y-70223220D01*
X98212439Y-70319987D01*
X97976226Y-70452557D01*
X97976224Y-70452558D01*
X97976223Y-70452559D01*
X97941303Y-70479523D01*
X97761822Y-70618112D01*
X97573822Y-70813109D01*
X97573816Y-70813116D01*
X97416202Y-71033419D01*
X97416199Y-71033424D01*
X97292350Y-71274309D01*
X97292343Y-71274327D01*
X97204884Y-71530685D01*
X97204881Y-71530699D01*
X97155681Y-71797068D01*
X97155680Y-71797075D01*
X97145787Y-72067763D01*
X62849259Y-72067763D01*
X62854212Y-71932235D01*
X62824586Y-71662982D01*
X62756072Y-71400912D01*
X62650130Y-71151610D01*
X62509018Y-70920390D01*
X62419747Y-70813119D01*
X62335746Y-70712180D01*
X62335740Y-70712175D01*
X62134002Y-70531418D01*
X61908092Y-70381957D01*
X61908090Y-70381956D01*
X61662824Y-70266980D01*
X61662819Y-70266978D01*
X61662814Y-70266976D01*
X61403442Y-70188942D01*
X61403428Y-70188939D01*
X61287791Y-70171921D01*
X61135439Y-70149500D01*
X60932369Y-70149500D01*
X60932364Y-70149500D01*
X60729844Y-70164323D01*
X60729831Y-70164325D01*
X60465453Y-70223217D01*
X60465446Y-70223220D01*
X60212439Y-70319987D01*
X59976226Y-70452557D01*
X59976224Y-70452558D01*
X59976223Y-70452559D01*
X59941303Y-70479523D01*
X59761822Y-70618112D01*
X59573822Y-70813109D01*
X59573816Y-70813116D01*
X59416202Y-71033419D01*
X59416199Y-71033424D01*
X59292350Y-71274309D01*
X59292343Y-71274327D01*
X59204884Y-71530685D01*
X59204881Y-71530699D01*
X59155681Y-71797068D01*
X59155680Y-71797075D01*
X59145787Y-72067763D01*
X57000500Y-72067763D01*
X57000500Y-70130003D01*
X69034435Y-70130003D01*
X69054630Y-70309249D01*
X69054631Y-70309254D01*
X69114211Y-70479523D01*
X69196047Y-70609763D01*
X69210184Y-70632262D01*
X69337738Y-70759816D01*
X69490478Y-70855789D01*
X69660745Y-70915368D01*
X69660750Y-70915369D01*
X69839996Y-70935565D01*
X69840000Y-70935565D01*
X69840004Y-70935565D01*
X70019249Y-70915369D01*
X70019252Y-70915368D01*
X70019255Y-70915368D01*
X70189522Y-70855789D01*
X70342262Y-70759816D01*
X70469816Y-70632262D01*
X70483416Y-70610616D01*
X70535746Y-70564327D01*
X70604800Y-70553677D01*
X70668649Y-70582050D01*
X70673292Y-70586197D01*
X70726371Y-70636040D01*
X70735864Y-70644955D01*
X70735865Y-70644955D01*
X70735868Y-70644958D01*
X70875678Y-70721818D01*
X70875682Y-70721820D01*
X71030223Y-70761500D01*
X71030226Y-70761500D01*
X71149728Y-70761500D01*
X71149730Y-70761500D01*
X71149735Y-70761499D01*
X71149739Y-70761499D01*
X71163068Y-70759815D01*
X71268296Y-70746522D01*
X71416645Y-70687786D01*
X71545727Y-70594002D01*
X71647431Y-70471064D01*
X71715366Y-70326695D01*
X71745263Y-70169967D01*
X71740234Y-70090033D01*
X88254737Y-70090033D01*
X88264756Y-70249273D01*
X88314061Y-70401020D01*
X88399553Y-70535732D01*
X88515864Y-70644955D01*
X88515868Y-70644958D01*
X88655678Y-70721818D01*
X88655682Y-70721820D01*
X88810223Y-70761500D01*
X88810226Y-70761500D01*
X88929728Y-70761500D01*
X88929730Y-70761500D01*
X88929735Y-70761499D01*
X88929739Y-70761499D01*
X88943068Y-70759815D01*
X89048296Y-70746522D01*
X89196645Y-70687786D01*
X89325727Y-70594002D01*
X89325730Y-70593997D01*
X89329427Y-70590527D01*
X89391772Y-70558985D01*
X89461272Y-70566156D01*
X89515863Y-70609763D01*
X89519285Y-70614916D01*
X89530184Y-70632262D01*
X89657738Y-70759816D01*
X89810478Y-70855789D01*
X89980745Y-70915368D01*
X89980750Y-70915369D01*
X90159996Y-70935565D01*
X90160000Y-70935565D01*
X90160004Y-70935565D01*
X90339249Y-70915369D01*
X90339252Y-70915368D01*
X90339255Y-70915368D01*
X90509522Y-70855789D01*
X90662262Y-70759816D01*
X90789816Y-70632262D01*
X90885789Y-70479522D01*
X90945368Y-70309255D01*
X90945369Y-70309249D01*
X90965565Y-70130003D01*
X90965565Y-70129996D01*
X90945369Y-69950750D01*
X90945368Y-69950745D01*
X90888749Y-69788938D01*
X90885789Y-69780478D01*
X90789816Y-69627738D01*
X90662262Y-69500184D01*
X90659582Y-69498500D01*
X90509523Y-69404211D01*
X90339254Y-69344631D01*
X90339249Y-69344630D01*
X90160004Y-69324435D01*
X90159996Y-69324435D01*
X89980750Y-69344630D01*
X89980745Y-69344631D01*
X89810476Y-69404211D01*
X89657737Y-69500184D01*
X89530184Y-69627737D01*
X89530182Y-69627740D01*
X89516583Y-69649383D01*
X89464248Y-69695674D01*
X89395194Y-69706321D01*
X89331346Y-69677945D01*
X89326707Y-69673802D01*
X89264139Y-69615048D01*
X89264131Y-69615041D01*
X89124321Y-69538181D01*
X89124313Y-69538178D01*
X88969779Y-69498500D01*
X88969777Y-69498500D01*
X88850270Y-69498500D01*
X88850260Y-69498500D01*
X88731704Y-69513478D01*
X88731702Y-69513478D01*
X88583356Y-69572213D01*
X88583351Y-69572216D01*
X88506930Y-69627740D01*
X88477142Y-69649383D01*
X88454272Y-69665999D01*
X88352567Y-69788938D01*
X88284634Y-69933304D01*
X88284634Y-69933305D01*
X88254737Y-70090030D01*
X88254737Y-70090033D01*
X71740234Y-70090033D01*
X71735244Y-70010728D01*
X71685940Y-69858983D01*
X71685938Y-69858980D01*
X71685938Y-69858979D01*
X71600446Y-69724267D01*
X71484135Y-69615044D01*
X71484131Y-69615041D01*
X71344321Y-69538181D01*
X71344313Y-69538178D01*
X71189779Y-69498500D01*
X71189777Y-69498500D01*
X71070270Y-69498500D01*
X71070260Y-69498500D01*
X70951704Y-69513478D01*
X70951702Y-69513478D01*
X70803356Y-69572213D01*
X70803351Y-69572216D01*
X70674270Y-69666000D01*
X70670568Y-69669477D01*
X70608221Y-69701016D01*
X70538721Y-69693841D01*
X70484133Y-69650230D01*
X70480696Y-69645053D01*
X70469817Y-69627739D01*
X70342262Y-69500184D01*
X70189523Y-69404211D01*
X70019254Y-69344631D01*
X70019249Y-69344630D01*
X69840004Y-69324435D01*
X69839996Y-69324435D01*
X69660750Y-69344630D01*
X69660745Y-69344631D01*
X69490476Y-69404211D01*
X69337737Y-69500184D01*
X69210184Y-69627737D01*
X69114211Y-69780476D01*
X69054631Y-69950745D01*
X69054630Y-69950750D01*
X69034435Y-70129996D01*
X69034435Y-70130003D01*
X57000500Y-70130003D01*
X57000500Y-67590003D01*
X69034435Y-67590003D01*
X69054630Y-67769249D01*
X69054631Y-67769254D01*
X69114211Y-67939523D01*
X69153633Y-68002262D01*
X69210184Y-68092262D01*
X69337738Y-68219816D01*
X69347244Y-68225789D01*
X69474206Y-68305565D01*
X69490478Y-68315789D01*
X69660745Y-68375368D01*
X69660750Y-68375369D01*
X69839996Y-68395565D01*
X69840000Y-68395565D01*
X69840004Y-68395565D01*
X70019249Y-68375369D01*
X70019252Y-68375368D01*
X70019255Y-68375368D01*
X70189522Y-68315789D01*
X70342262Y-68219816D01*
X70469816Y-68092262D01*
X70565789Y-67939522D01*
X70625368Y-67769255D01*
X70625369Y-67769249D01*
X70645565Y-67590003D01*
X70645565Y-67589996D01*
X70635425Y-67500003D01*
X83694435Y-67500003D01*
X83714630Y-67679249D01*
X83714631Y-67679254D01*
X83774211Y-67849523D01*
X83830762Y-67939522D01*
X83870184Y-68002262D01*
X83997738Y-68129816D01*
X84150478Y-68225789D01*
X84320745Y-68285368D01*
X84320750Y-68285369D01*
X84499996Y-68305565D01*
X84500000Y-68305565D01*
X84500004Y-68305565D01*
X84679249Y-68285369D01*
X84679252Y-68285368D01*
X84679255Y-68285368D01*
X84849522Y-68225789D01*
X85002262Y-68129816D01*
X85129816Y-68002262D01*
X85225789Y-67849522D01*
X85285368Y-67679255D01*
X85285369Y-67679249D01*
X85295425Y-67590003D01*
X89354435Y-67590003D01*
X89374630Y-67769249D01*
X89374631Y-67769254D01*
X89434211Y-67939523D01*
X89473633Y-68002262D01*
X89530184Y-68092262D01*
X89657738Y-68219816D01*
X89667244Y-68225789D01*
X89794206Y-68305565D01*
X89810478Y-68315789D01*
X89980745Y-68375368D01*
X89980750Y-68375369D01*
X90159996Y-68395565D01*
X90160000Y-68395565D01*
X90160004Y-68395565D01*
X90339249Y-68375369D01*
X90339252Y-68375368D01*
X90339255Y-68375368D01*
X90509522Y-68315789D01*
X90662262Y-68219816D01*
X90789816Y-68092262D01*
X90885789Y-67939522D01*
X90945368Y-67769255D01*
X90945369Y-67769249D01*
X90965565Y-67590003D01*
X90965565Y-67589996D01*
X90955425Y-67500003D01*
X92694435Y-67500003D01*
X92714630Y-67679249D01*
X92714631Y-67679254D01*
X92774211Y-67849523D01*
X92830762Y-67939522D01*
X92870184Y-68002262D01*
X92997738Y-68129816D01*
X93150478Y-68225789D01*
X93320745Y-68285368D01*
X93320750Y-68285369D01*
X93499996Y-68305565D01*
X93500000Y-68305565D01*
X93500004Y-68305565D01*
X93679249Y-68285369D01*
X93679252Y-68285368D01*
X93679255Y-68285368D01*
X93849522Y-68225789D01*
X94002262Y-68129816D01*
X94129816Y-68002262D01*
X94225789Y-67849522D01*
X94285368Y-67679255D01*
X94285369Y-67679249D01*
X94305565Y-67500003D01*
X94305565Y-67499996D01*
X94285369Y-67320750D01*
X94285368Y-67320745D01*
X94225788Y-67150476D01*
X94129815Y-66997737D01*
X94002262Y-66870184D01*
X93849523Y-66774211D01*
X93679254Y-66714631D01*
X93679249Y-66714630D01*
X93500004Y-66694435D01*
X93499996Y-66694435D01*
X93320750Y-66714630D01*
X93320745Y-66714631D01*
X93150476Y-66774211D01*
X92997737Y-66870184D01*
X92870184Y-66997737D01*
X92774211Y-67150476D01*
X92714631Y-67320745D01*
X92714630Y-67320750D01*
X92694435Y-67499996D01*
X92694435Y-67500003D01*
X90955425Y-67500003D01*
X90945369Y-67410750D01*
X90945368Y-67410745D01*
X90913877Y-67320750D01*
X90885789Y-67240478D01*
X90789816Y-67087738D01*
X90662262Y-66960184D01*
X90509523Y-66864211D01*
X90339254Y-66804631D01*
X90339249Y-66804630D01*
X90160004Y-66784435D01*
X90159996Y-66784435D01*
X89980750Y-66804630D01*
X89980745Y-66804631D01*
X89810476Y-66864211D01*
X89657737Y-66960184D01*
X89530184Y-67087737D01*
X89434211Y-67240476D01*
X89374631Y-67410745D01*
X89374630Y-67410750D01*
X89354435Y-67589996D01*
X89354435Y-67590003D01*
X85295425Y-67590003D01*
X85305565Y-67500003D01*
X85305565Y-67499996D01*
X85285369Y-67320750D01*
X85285368Y-67320745D01*
X85225788Y-67150476D01*
X85129815Y-66997737D01*
X85002262Y-66870184D01*
X84849523Y-66774211D01*
X84679254Y-66714631D01*
X84679249Y-66714630D01*
X84500004Y-66694435D01*
X84499996Y-66694435D01*
X84320750Y-66714630D01*
X84320745Y-66714631D01*
X84150476Y-66774211D01*
X83997737Y-66870184D01*
X83870184Y-66997737D01*
X83774211Y-67150476D01*
X83714631Y-67320745D01*
X83714630Y-67320750D01*
X83694435Y-67499996D01*
X83694435Y-67500003D01*
X70635425Y-67500003D01*
X70625369Y-67410750D01*
X70625368Y-67410745D01*
X70593877Y-67320750D01*
X70565789Y-67240478D01*
X70469816Y-67087738D01*
X70342262Y-66960184D01*
X70189523Y-66864211D01*
X70019254Y-66804631D01*
X70019249Y-66804630D01*
X69840004Y-66784435D01*
X69839996Y-66784435D01*
X69660750Y-66804630D01*
X69660745Y-66804631D01*
X69490476Y-66864211D01*
X69337737Y-66960184D01*
X69210184Y-67087737D01*
X69114211Y-67240476D01*
X69054631Y-67410745D01*
X69054630Y-67410750D01*
X69034435Y-67589996D01*
X69034435Y-67590003D01*
X57000500Y-67590003D01*
X57000500Y-66040000D01*
X59405001Y-66040000D01*
X59405001Y-66209986D01*
X59415494Y-66312697D01*
X59470641Y-66479119D01*
X59470643Y-66479124D01*
X59562684Y-66628345D01*
X59686654Y-66752315D01*
X59835875Y-66844356D01*
X59835880Y-66844358D01*
X60002302Y-66899505D01*
X60002309Y-66899506D01*
X60105019Y-66909999D01*
X60499999Y-66909999D01*
X60500000Y-66909998D01*
X60500000Y-66040000D01*
X59405001Y-66040000D01*
X57000500Y-66040000D01*
X57000500Y-62941624D01*
X59400784Y-62941624D01*
X59410685Y-63174700D01*
X59410686Y-63174709D01*
X59459836Y-63402766D01*
X59459837Y-63402769D01*
X59546819Y-63619231D01*
X59546821Y-63619235D01*
X59669138Y-63817891D01*
X59749083Y-63908726D01*
X59823269Y-63993018D01*
X59863727Y-64025686D01*
X59903519Y-64083117D01*
X59905945Y-64152945D01*
X59870235Y-64212999D01*
X59838235Y-64234543D01*
X59835880Y-64235641D01*
X59686654Y-64327684D01*
X59562684Y-64451654D01*
X59470643Y-64600875D01*
X59470641Y-64600880D01*
X59415494Y-64767302D01*
X59415493Y-64767309D01*
X59405000Y-64870013D01*
X59405000Y-65040000D01*
X60674219Y-65040000D01*
X60575641Y-65115641D01*
X60480269Y-65239933D01*
X60420315Y-65384674D01*
X60399866Y-65540000D01*
X60420315Y-65695326D01*
X60480269Y-65840067D01*
X60575641Y-65964359D01*
X60699933Y-66059731D01*
X60844674Y-66119685D01*
X60961003Y-66135000D01*
X61038997Y-66135000D01*
X61155326Y-66119685D01*
X61300067Y-66059731D01*
X61325781Y-66040000D01*
X61500000Y-66040000D01*
X61500000Y-66909999D01*
X61894972Y-66909999D01*
X61894986Y-66909998D01*
X61997697Y-66899505D01*
X62164119Y-66844358D01*
X62164124Y-66844356D01*
X62313345Y-66752315D01*
X62437315Y-66628345D01*
X62529356Y-66479124D01*
X62529358Y-66479119D01*
X62584505Y-66312697D01*
X62584506Y-66312690D01*
X62594999Y-66209986D01*
X62595000Y-66209973D01*
X62595000Y-66040000D01*
X61500000Y-66040000D01*
X61325781Y-66040000D01*
X61424359Y-65964359D01*
X61519731Y-65840067D01*
X61579685Y-65695326D01*
X61600134Y-65540000D01*
X61592449Y-65481624D01*
X97400784Y-65481624D01*
X97410685Y-65714700D01*
X97410686Y-65714709D01*
X97459836Y-65942766D01*
X97459837Y-65942769D01*
X97546819Y-66159231D01*
X97546821Y-66159235D01*
X97669138Y-66357891D01*
X97823269Y-66533018D01*
X97823270Y-66533019D01*
X97823273Y-66533022D01*
X98004773Y-66679573D01*
X98004779Y-66679578D01*
X98208445Y-66793353D01*
X98208448Y-66793354D01*
X98428416Y-66871073D01*
X98556725Y-66893074D01*
X98658344Y-66910499D01*
X98658353Y-66910500D01*
X99283221Y-66910500D01*
X99457446Y-66895671D01*
X99457446Y-66895670D01*
X99457453Y-66895670D01*
X99683219Y-66836885D01*
X99895802Y-66740792D01*
X100089088Y-66610153D01*
X100257516Y-66448728D01*
X100396240Y-66261161D01*
X100501270Y-66052847D01*
X100569583Y-65829780D01*
X100599216Y-65598376D01*
X100589314Y-65365293D01*
X100540164Y-65137235D01*
X100453179Y-64920765D01*
X100330862Y-64722109D01*
X100176731Y-64546982D01*
X100176729Y-64546980D01*
X100176726Y-64546977D01*
X99995226Y-64400426D01*
X99995215Y-64400419D01*
X99954897Y-64377895D01*
X99905971Y-64328015D01*
X99891779Y-64259602D01*
X99916827Y-64194376D01*
X99945931Y-64166910D01*
X100089088Y-64070153D01*
X100257516Y-63908728D01*
X100396240Y-63721161D01*
X100501270Y-63512847D01*
X100569583Y-63289780D01*
X100599216Y-63058376D01*
X100589314Y-62825293D01*
X100540164Y-62597235D01*
X100453179Y-62380765D01*
X100330862Y-62182109D01*
X100176731Y-62006982D01*
X100176725Y-62006977D01*
X100136272Y-61974313D01*
X100096479Y-61916881D01*
X100094054Y-61847054D01*
X100129765Y-61787000D01*
X100161779Y-61765449D01*
X100164127Y-61764354D01*
X100313345Y-61672315D01*
X100437315Y-61548345D01*
X100529356Y-61399124D01*
X100529358Y-61399119D01*
X100584505Y-61232697D01*
X100584506Y-61232690D01*
X100594999Y-61129986D01*
X100595000Y-61129973D01*
X100595000Y-60960000D01*
X99325781Y-60960000D01*
X99424359Y-60884359D01*
X99519731Y-60760067D01*
X99579685Y-60615326D01*
X99600134Y-60460000D01*
X99579685Y-60304674D01*
X99519731Y-60159933D01*
X99424359Y-60035641D01*
X99300067Y-59940269D01*
X99155326Y-59880315D01*
X99038997Y-59865000D01*
X98961003Y-59865000D01*
X98844674Y-59880315D01*
X98699933Y-59940269D01*
X98575641Y-60035641D01*
X98480269Y-60159933D01*
X98420315Y-60304674D01*
X98399866Y-60460000D01*
X98420315Y-60615326D01*
X98480269Y-60760067D01*
X98575641Y-60884359D01*
X98674219Y-60960000D01*
X97405001Y-60960000D01*
X97405001Y-61129986D01*
X97415494Y-61232697D01*
X97470641Y-61399119D01*
X97470643Y-61399124D01*
X97562684Y-61548345D01*
X97686654Y-61672315D01*
X97835881Y-61764359D01*
X97838323Y-61765498D01*
X97839717Y-61766725D01*
X97842025Y-61768149D01*
X97841781Y-61768543D01*
X97890764Y-61811668D01*
X97909919Y-61878861D01*
X97889706Y-61945743D01*
X97871724Y-61967404D01*
X97742483Y-62091272D01*
X97742482Y-62091273D01*
X97603762Y-62278834D01*
X97498733Y-62487147D01*
X97498730Y-62487153D01*
X97430416Y-62710223D01*
X97400784Y-62941624D01*
X97410685Y-63174700D01*
X97410686Y-63174709D01*
X97459836Y-63402766D01*
X97459837Y-63402769D01*
X97546819Y-63619231D01*
X97546821Y-63619235D01*
X97669138Y-63817891D01*
X97749083Y-63908726D01*
X97823270Y-63993019D01*
X97823273Y-63993022D01*
X98004773Y-64139573D01*
X98004775Y-64139574D01*
X98004780Y-64139578D01*
X98045102Y-64162103D01*
X98094028Y-64211983D01*
X98108220Y-64280396D01*
X98083172Y-64345622D01*
X98054065Y-64373092D01*
X97910907Y-64469850D01*
X97742483Y-64631272D01*
X97742482Y-64631273D01*
X97603762Y-64818834D01*
X97498733Y-65027147D01*
X97498730Y-65027153D01*
X97430416Y-65250223D01*
X97400784Y-65481624D01*
X61592449Y-65481624D01*
X61579685Y-65384674D01*
X61519731Y-65239933D01*
X61424359Y-65115641D01*
X61325781Y-65040000D01*
X62594999Y-65040000D01*
X62594999Y-64870028D01*
X62594998Y-64870013D01*
X62584505Y-64767302D01*
X62529358Y-64600880D01*
X62529356Y-64600875D01*
X62437315Y-64451654D01*
X62313345Y-64327684D01*
X62164121Y-64235642D01*
X62161674Y-64234501D01*
X62160276Y-64233270D01*
X62157975Y-64231851D01*
X62158217Y-64231457D01*
X62109233Y-64188330D01*
X62090079Y-64121137D01*
X62110292Y-64054256D01*
X62128269Y-64032600D01*
X62257516Y-63908728D01*
X62396240Y-63721161D01*
X62501270Y-63512847D01*
X62569583Y-63289780D01*
X62599216Y-63058376D01*
X62589314Y-62825293D01*
X62540164Y-62597235D01*
X62505111Y-62510003D01*
X69034435Y-62510003D01*
X69054630Y-62689245D01*
X69054631Y-62689254D01*
X69114211Y-62859523D01*
X69165799Y-62941624D01*
X69210184Y-63012262D01*
X69337738Y-63139816D01*
X69490478Y-63235789D01*
X69644764Y-63289776D01*
X69660745Y-63295368D01*
X69660750Y-63295369D01*
X69839996Y-63315565D01*
X69840000Y-63315565D01*
X69840004Y-63315565D01*
X70019249Y-63295369D01*
X70019252Y-63295368D01*
X70019255Y-63295368D01*
X70189522Y-63235789D01*
X70342262Y-63139816D01*
X70469816Y-63012262D01*
X70565789Y-62859522D01*
X70625368Y-62689255D01*
X70625368Y-62689252D01*
X70625370Y-62689245D01*
X70645565Y-62510003D01*
X70645565Y-62509996D01*
X70625369Y-62330750D01*
X70625368Y-62330745D01*
X70607205Y-62278839D01*
X70565789Y-62160478D01*
X70469816Y-62007738D01*
X70342262Y-61880184D01*
X70340156Y-61878861D01*
X70189523Y-61784211D01*
X70019254Y-61724631D01*
X70019249Y-61724630D01*
X69840004Y-61704435D01*
X69839996Y-61704435D01*
X69660750Y-61724630D01*
X69660745Y-61724631D01*
X69490476Y-61784211D01*
X69337737Y-61880184D01*
X69210184Y-62007737D01*
X69114211Y-62160476D01*
X69054631Y-62330745D01*
X69054630Y-62330750D01*
X69034435Y-62509996D01*
X69034435Y-62510003D01*
X62505111Y-62510003D01*
X62453179Y-62380765D01*
X62330862Y-62182109D01*
X62176731Y-62006982D01*
X62176729Y-62006980D01*
X62176726Y-62006977D01*
X61995226Y-61860426D01*
X61995215Y-61860419D01*
X61954897Y-61837895D01*
X61905971Y-61788015D01*
X61891779Y-61719602D01*
X61916827Y-61654376D01*
X61945931Y-61626910D01*
X62089088Y-61530153D01*
X62257516Y-61368728D01*
X62396240Y-61181161D01*
X62501270Y-60972847D01*
X62569583Y-60749780D01*
X62599216Y-60518376D01*
X62589314Y-60285293D01*
X62540164Y-60057235D01*
X62501092Y-59960000D01*
X97405000Y-59960000D01*
X98500000Y-59960000D01*
X98500000Y-59090000D01*
X99500000Y-59090000D01*
X99500000Y-59960000D01*
X100594999Y-59960000D01*
X100594999Y-59790028D01*
X100594998Y-59790013D01*
X100584505Y-59687302D01*
X100529358Y-59520880D01*
X100529356Y-59520875D01*
X100437315Y-59371654D01*
X100313345Y-59247684D01*
X100164124Y-59155643D01*
X100164119Y-59155641D01*
X99997697Y-59100494D01*
X99997690Y-59100493D01*
X99894986Y-59090000D01*
X99500000Y-59090000D01*
X98500000Y-59090000D01*
X98105028Y-59090000D01*
X98105012Y-59090001D01*
X98002302Y-59100494D01*
X97835880Y-59155641D01*
X97835875Y-59155643D01*
X97686654Y-59247684D01*
X97562684Y-59371654D01*
X97470643Y-59520875D01*
X97470641Y-59520880D01*
X97415494Y-59687302D01*
X97415493Y-59687309D01*
X97405000Y-59790013D01*
X97405000Y-59960000D01*
X62501092Y-59960000D01*
X62453179Y-59840765D01*
X62330862Y-59642109D01*
X62176731Y-59466982D01*
X62176729Y-59466980D01*
X62176726Y-59466977D01*
X61995226Y-59320426D01*
X61995220Y-59320421D01*
X61791554Y-59206646D01*
X61571591Y-59128929D01*
X61571586Y-59128927D01*
X61571584Y-59128927D01*
X61571580Y-59128926D01*
X61571579Y-59128926D01*
X61341655Y-59089500D01*
X61341647Y-59089500D01*
X60716784Y-59089500D01*
X60716779Y-59089500D01*
X60542553Y-59104328D01*
X60542551Y-59104329D01*
X60316781Y-59163114D01*
X60104197Y-59259208D01*
X59910911Y-59389847D01*
X59910909Y-59389849D01*
X59742483Y-59551272D01*
X59742482Y-59551273D01*
X59603762Y-59738834D01*
X59498733Y-59947147D01*
X59498730Y-59947153D01*
X59430416Y-60170223D01*
X59400784Y-60401624D01*
X59410685Y-60634700D01*
X59410686Y-60634709D01*
X59459836Y-60862766D01*
X59459837Y-60862769D01*
X59546819Y-61079231D01*
X59546821Y-61079235D01*
X59669138Y-61277891D01*
X59823269Y-61453018D01*
X59823270Y-61453019D01*
X59823273Y-61453022D01*
X60004773Y-61599573D01*
X60004775Y-61599574D01*
X60004780Y-61599578D01*
X60045102Y-61622103D01*
X60094028Y-61671983D01*
X60108220Y-61740396D01*
X60083172Y-61805622D01*
X60054065Y-61833092D01*
X59910907Y-61929850D01*
X59742483Y-62091272D01*
X59742482Y-62091273D01*
X59603762Y-62278834D01*
X59498733Y-62487147D01*
X59498730Y-62487153D01*
X59430416Y-62710223D01*
X59400784Y-62941624D01*
X57000500Y-62941624D01*
X57000500Y-56040000D01*
X59405001Y-56040000D01*
X59405001Y-56209986D01*
X59415494Y-56312697D01*
X59470641Y-56479119D01*
X59470643Y-56479124D01*
X59562684Y-56628345D01*
X59686654Y-56752315D01*
X59835875Y-56844356D01*
X59835880Y-56844358D01*
X60002302Y-56899505D01*
X60002309Y-56899506D01*
X60105019Y-56909999D01*
X60499999Y-56909999D01*
X60500000Y-56909998D01*
X60500000Y-56040000D01*
X59405001Y-56040000D01*
X57000500Y-56040000D01*
X57000500Y-52941624D01*
X59400784Y-52941624D01*
X59410685Y-53174700D01*
X59410686Y-53174709D01*
X59459836Y-53402766D01*
X59459837Y-53402769D01*
X59528658Y-53574035D01*
X59546821Y-53619235D01*
X59669138Y-53817891D01*
X59749083Y-53908726D01*
X59823269Y-53993018D01*
X59863727Y-54025686D01*
X59903519Y-54083117D01*
X59905945Y-54152945D01*
X59870235Y-54212999D01*
X59838235Y-54234543D01*
X59835880Y-54235641D01*
X59686654Y-54327684D01*
X59562684Y-54451654D01*
X59470643Y-54600875D01*
X59470641Y-54600880D01*
X59415494Y-54767302D01*
X59415493Y-54767309D01*
X59405000Y-54870013D01*
X59405000Y-55040000D01*
X60674219Y-55040000D01*
X60575641Y-55115641D01*
X60480269Y-55239933D01*
X60420315Y-55384674D01*
X60399866Y-55540000D01*
X60420315Y-55695326D01*
X60480269Y-55840067D01*
X60575641Y-55964359D01*
X60699933Y-56059731D01*
X60844674Y-56119685D01*
X60961003Y-56135000D01*
X61038997Y-56135000D01*
X61155326Y-56119685D01*
X61300067Y-56059731D01*
X61325781Y-56040000D01*
X61500000Y-56040000D01*
X61500000Y-56909999D01*
X61894972Y-56909999D01*
X61894986Y-56909998D01*
X61997697Y-56899505D01*
X62164119Y-56844358D01*
X62164124Y-56844356D01*
X62313345Y-56752315D01*
X62437315Y-56628345D01*
X62529356Y-56479124D01*
X62529358Y-56479119D01*
X62584505Y-56312697D01*
X62584506Y-56312690D01*
X62594999Y-56209986D01*
X62595000Y-56209973D01*
X62595000Y-56040000D01*
X61500000Y-56040000D01*
X61325781Y-56040000D01*
X61424359Y-55964359D01*
X61519731Y-55840067D01*
X61579685Y-55695326D01*
X61600134Y-55540000D01*
X61592449Y-55481624D01*
X97380784Y-55481624D01*
X97390685Y-55714700D01*
X97390686Y-55714709D01*
X97439836Y-55942766D01*
X97439837Y-55942769D01*
X97526819Y-56159231D01*
X97526821Y-56159235D01*
X97649138Y-56357891D01*
X97803269Y-56533018D01*
X97803270Y-56533019D01*
X97803273Y-56533022D01*
X97984773Y-56679573D01*
X97984779Y-56679578D01*
X98188445Y-56793353D01*
X98188448Y-56793354D01*
X98408416Y-56871073D01*
X98536725Y-56893074D01*
X98638344Y-56910499D01*
X98638353Y-56910500D01*
X99263221Y-56910500D01*
X99437446Y-56895671D01*
X99437446Y-56895670D01*
X99437453Y-56895670D01*
X99663219Y-56836885D01*
X99875802Y-56740792D01*
X100069088Y-56610153D01*
X100237516Y-56448728D01*
X100376240Y-56261161D01*
X100481270Y-56052847D01*
X100549583Y-55829780D01*
X100579216Y-55598376D01*
X100569314Y-55365293D01*
X100520164Y-55137235D01*
X100433179Y-54920765D01*
X100310862Y-54722109D01*
X100156731Y-54546982D01*
X100156729Y-54546980D01*
X100156726Y-54546977D01*
X99975226Y-54400426D01*
X99975215Y-54400419D01*
X99934897Y-54377895D01*
X99885971Y-54328015D01*
X99871779Y-54259602D01*
X99896827Y-54194376D01*
X99925931Y-54166910D01*
X100069088Y-54070153D01*
X100237516Y-53908728D01*
X100376240Y-53721161D01*
X100481270Y-53512847D01*
X100549583Y-53289780D01*
X100579216Y-53058376D01*
X100569314Y-52825293D01*
X100520164Y-52597235D01*
X100433179Y-52380765D01*
X100310862Y-52182109D01*
X100156731Y-52006982D01*
X100156725Y-52006977D01*
X100116272Y-51974313D01*
X100076479Y-51916881D01*
X100074054Y-51847054D01*
X100109765Y-51787000D01*
X100141779Y-51765449D01*
X100144127Y-51764354D01*
X100293345Y-51672315D01*
X100417315Y-51548345D01*
X100509356Y-51399124D01*
X100509358Y-51399119D01*
X100564505Y-51232697D01*
X100564506Y-51232690D01*
X100574999Y-51129986D01*
X100575000Y-51129973D01*
X100575000Y-50960000D01*
X99305781Y-50960000D01*
X99404359Y-50884359D01*
X99499731Y-50760067D01*
X99559685Y-50615326D01*
X99580134Y-50460000D01*
X99559685Y-50304674D01*
X99499731Y-50159933D01*
X99404359Y-50035641D01*
X99280067Y-49940269D01*
X99135326Y-49880315D01*
X99018997Y-49865000D01*
X98941003Y-49865000D01*
X98824674Y-49880315D01*
X98679933Y-49940269D01*
X98555641Y-50035641D01*
X98460269Y-50159933D01*
X98400315Y-50304674D01*
X98379866Y-50460000D01*
X98400315Y-50615326D01*
X98460269Y-50760067D01*
X98555641Y-50884359D01*
X98654219Y-50960000D01*
X97385001Y-50960000D01*
X97385001Y-51129986D01*
X97395494Y-51232697D01*
X97450641Y-51399119D01*
X97450643Y-51399124D01*
X97542684Y-51548345D01*
X97666654Y-51672315D01*
X97815881Y-51764359D01*
X97818323Y-51765498D01*
X97819717Y-51766725D01*
X97822025Y-51768149D01*
X97821781Y-51768543D01*
X97870764Y-51811668D01*
X97889919Y-51878861D01*
X97869706Y-51945743D01*
X97851724Y-51967404D01*
X97722483Y-52091272D01*
X97722482Y-52091273D01*
X97583762Y-52278834D01*
X97478733Y-52487147D01*
X97478730Y-52487153D01*
X97410416Y-52710223D01*
X97380784Y-52941624D01*
X97390685Y-53174700D01*
X97390686Y-53174709D01*
X97439836Y-53402766D01*
X97439837Y-53402769D01*
X97508658Y-53574035D01*
X97526821Y-53619235D01*
X97649138Y-53817891D01*
X97729083Y-53908726D01*
X97803270Y-53993019D01*
X97803273Y-53993022D01*
X97984773Y-54139573D01*
X97984775Y-54139574D01*
X97984780Y-54139578D01*
X98025102Y-54162103D01*
X98074028Y-54211983D01*
X98088220Y-54280396D01*
X98063172Y-54345622D01*
X98034065Y-54373092D01*
X97890907Y-54469850D01*
X97722483Y-54631272D01*
X97722482Y-54631273D01*
X97583762Y-54818834D01*
X97478733Y-55027147D01*
X97478730Y-55027153D01*
X97410416Y-55250223D01*
X97380784Y-55481624D01*
X61592449Y-55481624D01*
X61579685Y-55384674D01*
X61519731Y-55239933D01*
X61424359Y-55115641D01*
X61325781Y-55040000D01*
X62594999Y-55040000D01*
X62594999Y-54870028D01*
X62594998Y-54870013D01*
X62584505Y-54767302D01*
X62529358Y-54600880D01*
X62529356Y-54600875D01*
X62437315Y-54451654D01*
X62313345Y-54327684D01*
X62164121Y-54235642D01*
X62161674Y-54234501D01*
X62160276Y-54233270D01*
X62157975Y-54231851D01*
X62158217Y-54231457D01*
X62109233Y-54188330D01*
X62090079Y-54121137D01*
X62110292Y-54054256D01*
X62128269Y-54032600D01*
X62257516Y-53908728D01*
X62396240Y-53721161D01*
X62501270Y-53512847D01*
X62569583Y-53289780D01*
X62599216Y-53058376D01*
X62589314Y-52825293D01*
X62540164Y-52597235D01*
X62460908Y-52400000D01*
X71659341Y-52400000D01*
X71679936Y-52635403D01*
X71679938Y-52635413D01*
X71741094Y-52863655D01*
X71741096Y-52863659D01*
X71741097Y-52863663D01*
X71745000Y-52872032D01*
X71840965Y-53077830D01*
X71840967Y-53077834D01*
X71908794Y-53174700D01*
X71976505Y-53271401D01*
X72143599Y-53438495D01*
X72240384Y-53506265D01*
X72337165Y-53574032D01*
X72337167Y-53574033D01*
X72337170Y-53574035D01*
X72551337Y-53673903D01*
X72779592Y-53735063D01*
X72967918Y-53751539D01*
X73014999Y-53755659D01*
X73015000Y-53755659D01*
X73015001Y-53755659D01*
X73054234Y-53752226D01*
X73250408Y-53735063D01*
X73478663Y-53673903D01*
X73692830Y-53574035D01*
X73886401Y-53438495D01*
X74053495Y-53271401D01*
X74183425Y-53085842D01*
X74238002Y-53042217D01*
X74307500Y-53035023D01*
X74369855Y-53066546D01*
X74386575Y-53085842D01*
X74516500Y-53271395D01*
X74516505Y-53271401D01*
X74683599Y-53438495D01*
X74780384Y-53506265D01*
X74877165Y-53574032D01*
X74877167Y-53574033D01*
X74877170Y-53574035D01*
X75091337Y-53673903D01*
X75319592Y-53735063D01*
X75507918Y-53751539D01*
X75554999Y-53755659D01*
X75555000Y-53755659D01*
X75555001Y-53755659D01*
X75594234Y-53752226D01*
X75790408Y-53735063D01*
X76018663Y-53673903D01*
X76232830Y-53574035D01*
X76426401Y-53438495D01*
X76593495Y-53271401D01*
X76729035Y-53077830D01*
X76828903Y-52863663D01*
X76890063Y-52635408D01*
X76910659Y-52400000D01*
X83089341Y-52400000D01*
X83109936Y-52635403D01*
X83109938Y-52635413D01*
X83171094Y-52863655D01*
X83171096Y-52863659D01*
X83171097Y-52863663D01*
X83175000Y-52872032D01*
X83270965Y-53077830D01*
X83270967Y-53077834D01*
X83338794Y-53174700D01*
X83406505Y-53271401D01*
X83573599Y-53438495D01*
X83670384Y-53506265D01*
X83767165Y-53574032D01*
X83767167Y-53574033D01*
X83767170Y-53574035D01*
X83981337Y-53673903D01*
X84209592Y-53735063D01*
X84397918Y-53751539D01*
X84444999Y-53755659D01*
X84445000Y-53755659D01*
X84445001Y-53755659D01*
X84484234Y-53752226D01*
X84680408Y-53735063D01*
X84908663Y-53673903D01*
X85122830Y-53574035D01*
X85316401Y-53438495D01*
X85483495Y-53271401D01*
X85613425Y-53085842D01*
X85668002Y-53042217D01*
X85737500Y-53035023D01*
X85799855Y-53066546D01*
X85816575Y-53085842D01*
X85946500Y-53271395D01*
X85946505Y-53271401D01*
X86113599Y-53438495D01*
X86210384Y-53506265D01*
X86307165Y-53574032D01*
X86307167Y-53574033D01*
X86307170Y-53574035D01*
X86521337Y-53673903D01*
X86749592Y-53735063D01*
X86937918Y-53751539D01*
X86984999Y-53755659D01*
X86985000Y-53755659D01*
X86985001Y-53755659D01*
X87024234Y-53752226D01*
X87220408Y-53735063D01*
X87448663Y-53673903D01*
X87662830Y-53574035D01*
X87856401Y-53438495D01*
X88023495Y-53271401D01*
X88159035Y-53077830D01*
X88258903Y-52863663D01*
X88320063Y-52635408D01*
X88340659Y-52400000D01*
X88320063Y-52164592D01*
X88258903Y-51936337D01*
X88159035Y-51722171D01*
X88157237Y-51719602D01*
X88023494Y-51528597D01*
X87856402Y-51361506D01*
X87856395Y-51361501D01*
X87662834Y-51225967D01*
X87662830Y-51225965D01*
X87566756Y-51181165D01*
X87448663Y-51126097D01*
X87448659Y-51126096D01*
X87448655Y-51126094D01*
X87220413Y-51064938D01*
X87220403Y-51064936D01*
X86985001Y-51044341D01*
X86984999Y-51044341D01*
X86749596Y-51064936D01*
X86749586Y-51064938D01*
X86521344Y-51126094D01*
X86521335Y-51126098D01*
X86307171Y-51225964D01*
X86307169Y-51225965D01*
X86113597Y-51361505D01*
X85946505Y-51528597D01*
X85816575Y-51714158D01*
X85761998Y-51757783D01*
X85692500Y-51764977D01*
X85630145Y-51733454D01*
X85613425Y-51714158D01*
X85483494Y-51528597D01*
X85316402Y-51361506D01*
X85316395Y-51361501D01*
X85122834Y-51225967D01*
X85122830Y-51225965D01*
X85026756Y-51181165D01*
X84908663Y-51126097D01*
X84908659Y-51126096D01*
X84908655Y-51126094D01*
X84680413Y-51064938D01*
X84680403Y-51064936D01*
X84445001Y-51044341D01*
X84444999Y-51044341D01*
X84209596Y-51064936D01*
X84209586Y-51064938D01*
X83981344Y-51126094D01*
X83981335Y-51126098D01*
X83767171Y-51225964D01*
X83767169Y-51225965D01*
X83573597Y-51361505D01*
X83406505Y-51528597D01*
X83270965Y-51722169D01*
X83270964Y-51722171D01*
X83171098Y-51936335D01*
X83171094Y-51936344D01*
X83109938Y-52164586D01*
X83109936Y-52164596D01*
X83089341Y-52399999D01*
X83089341Y-52400000D01*
X76910659Y-52400000D01*
X76890063Y-52164592D01*
X76828903Y-51936337D01*
X76729035Y-51722171D01*
X76727237Y-51719602D01*
X76593494Y-51528597D01*
X76426402Y-51361506D01*
X76426395Y-51361501D01*
X76232834Y-51225967D01*
X76232830Y-51225965D01*
X76136756Y-51181165D01*
X76018663Y-51126097D01*
X76018659Y-51126096D01*
X76018655Y-51126094D01*
X75790413Y-51064938D01*
X75790403Y-51064936D01*
X75555001Y-51044341D01*
X75554999Y-51044341D01*
X75319596Y-51064936D01*
X75319586Y-51064938D01*
X75091344Y-51126094D01*
X75091335Y-51126098D01*
X74877171Y-51225964D01*
X74877169Y-51225965D01*
X74683597Y-51361505D01*
X74516505Y-51528597D01*
X74386575Y-51714158D01*
X74331998Y-51757783D01*
X74262500Y-51764977D01*
X74200145Y-51733454D01*
X74183425Y-51714158D01*
X74053494Y-51528597D01*
X73886402Y-51361506D01*
X73886395Y-51361501D01*
X73692834Y-51225967D01*
X73692830Y-51225965D01*
X73596756Y-51181165D01*
X73478663Y-51126097D01*
X73478659Y-51126096D01*
X73478655Y-51126094D01*
X73250413Y-51064938D01*
X73250403Y-51064936D01*
X73015001Y-51044341D01*
X73014999Y-51044341D01*
X72779596Y-51064936D01*
X72779586Y-51064938D01*
X72551344Y-51126094D01*
X72551335Y-51126098D01*
X72337171Y-51225964D01*
X72337169Y-51225965D01*
X72143597Y-51361505D01*
X71976505Y-51528597D01*
X71840965Y-51722169D01*
X71840964Y-51722171D01*
X71741098Y-51936335D01*
X71741094Y-51936344D01*
X71679938Y-52164586D01*
X71679936Y-52164596D01*
X71659341Y-52399999D01*
X71659341Y-52400000D01*
X62460908Y-52400000D01*
X62453179Y-52380765D01*
X62330862Y-52182109D01*
X62176731Y-52006982D01*
X62176729Y-52006980D01*
X62176726Y-52006977D01*
X61995226Y-51860426D01*
X61995215Y-51860419D01*
X61954897Y-51837895D01*
X61905971Y-51788015D01*
X61891779Y-51719602D01*
X61916827Y-51654376D01*
X61945931Y-51626910D01*
X62089088Y-51530153D01*
X62257516Y-51368728D01*
X62396240Y-51181161D01*
X62501270Y-50972847D01*
X62569583Y-50749780D01*
X62599216Y-50518376D01*
X62589314Y-50285293D01*
X62540164Y-50057235D01*
X62501092Y-49960000D01*
X97385000Y-49960000D01*
X98480000Y-49960000D01*
X98480000Y-49090000D01*
X99480000Y-49090000D01*
X99480000Y-49960000D01*
X100574999Y-49960000D01*
X100574999Y-49790028D01*
X100574998Y-49790013D01*
X100564505Y-49687302D01*
X100509358Y-49520880D01*
X100509356Y-49520875D01*
X100417315Y-49371654D01*
X100293345Y-49247684D01*
X100144124Y-49155643D01*
X100144119Y-49155641D01*
X99977697Y-49100494D01*
X99977690Y-49100493D01*
X99874986Y-49090000D01*
X99480000Y-49090000D01*
X98480000Y-49090000D01*
X98085028Y-49090000D01*
X98085012Y-49090001D01*
X97982302Y-49100494D01*
X97815880Y-49155641D01*
X97815875Y-49155643D01*
X97666654Y-49247684D01*
X97542684Y-49371654D01*
X97450643Y-49520875D01*
X97450641Y-49520880D01*
X97395494Y-49687302D01*
X97395493Y-49687309D01*
X97385000Y-49790013D01*
X97385000Y-49960000D01*
X62501092Y-49960000D01*
X62453179Y-49840765D01*
X62330862Y-49642109D01*
X62176731Y-49466982D01*
X62176729Y-49466980D01*
X62176726Y-49466977D01*
X61995226Y-49320426D01*
X61995220Y-49320421D01*
X61791554Y-49206646D01*
X61571591Y-49128929D01*
X61571586Y-49128927D01*
X61571584Y-49128927D01*
X61571580Y-49128926D01*
X61571579Y-49128926D01*
X61341655Y-49089500D01*
X61341647Y-49089500D01*
X60716784Y-49089500D01*
X60716779Y-49089500D01*
X60542553Y-49104328D01*
X60542551Y-49104329D01*
X60316781Y-49163114D01*
X60104197Y-49259208D01*
X59910911Y-49389847D01*
X59910909Y-49389849D01*
X59742483Y-49551272D01*
X59742482Y-49551273D01*
X59603762Y-49738834D01*
X59498733Y-49947147D01*
X59498730Y-49947153D01*
X59430416Y-50170223D01*
X59400784Y-50401624D01*
X59410685Y-50634700D01*
X59410686Y-50634709D01*
X59459836Y-50862766D01*
X59459837Y-50862769D01*
X59541076Y-51064938D01*
X59546821Y-51079235D01*
X59669138Y-51277891D01*
X59823269Y-51453018D01*
X59823270Y-51453019D01*
X59823273Y-51453022D01*
X60004773Y-51599573D01*
X60004775Y-51599574D01*
X60004780Y-51599578D01*
X60045102Y-51622103D01*
X60094028Y-51671983D01*
X60108220Y-51740396D01*
X60083172Y-51805622D01*
X60054065Y-51833092D01*
X59910907Y-51929850D01*
X59742483Y-52091272D01*
X59742482Y-52091273D01*
X59603762Y-52278834D01*
X59498733Y-52487147D01*
X59498730Y-52487153D01*
X59430416Y-52710223D01*
X59400784Y-52941624D01*
X57000500Y-52941624D01*
X57000500Y-46040000D01*
X59405001Y-46040000D01*
X59405001Y-46209986D01*
X59415494Y-46312697D01*
X59470641Y-46479119D01*
X59470643Y-46479124D01*
X59562684Y-46628345D01*
X59686654Y-46752315D01*
X59835875Y-46844356D01*
X59835880Y-46844358D01*
X60002302Y-46899505D01*
X60002309Y-46899506D01*
X60105019Y-46909999D01*
X60499999Y-46909999D01*
X60500000Y-46909998D01*
X60500000Y-46040000D01*
X59405001Y-46040000D01*
X57000500Y-46040000D01*
X57000500Y-42941624D01*
X59400784Y-42941624D01*
X59410685Y-43174700D01*
X59410686Y-43174709D01*
X59459836Y-43402766D01*
X59459837Y-43402769D01*
X59546819Y-43619231D01*
X59546821Y-43619235D01*
X59669138Y-43817891D01*
X59749083Y-43908726D01*
X59823269Y-43993018D01*
X59863727Y-44025686D01*
X59903519Y-44083117D01*
X59905945Y-44152945D01*
X59870235Y-44212999D01*
X59838235Y-44234543D01*
X59835880Y-44235641D01*
X59686654Y-44327684D01*
X59562684Y-44451654D01*
X59470643Y-44600875D01*
X59470641Y-44600880D01*
X59415494Y-44767302D01*
X59415493Y-44767309D01*
X59405000Y-44870013D01*
X59405000Y-45040000D01*
X60674219Y-45040000D01*
X60575641Y-45115641D01*
X60480269Y-45239933D01*
X60420315Y-45384674D01*
X60399866Y-45540000D01*
X60420315Y-45695326D01*
X60480269Y-45840067D01*
X60575641Y-45964359D01*
X60699933Y-46059731D01*
X60844674Y-46119685D01*
X60961003Y-46135000D01*
X61038997Y-46135000D01*
X61155326Y-46119685D01*
X61300067Y-46059731D01*
X61325781Y-46040000D01*
X61500000Y-46040000D01*
X61500000Y-46909999D01*
X61894972Y-46909999D01*
X61894986Y-46909998D01*
X61997697Y-46899505D01*
X62164119Y-46844358D01*
X62164124Y-46844356D01*
X62313345Y-46752315D01*
X62437315Y-46628345D01*
X62529356Y-46479124D01*
X62529358Y-46479119D01*
X62584505Y-46312697D01*
X62584506Y-46312690D01*
X62594999Y-46209986D01*
X62595000Y-46209973D01*
X62595000Y-46040000D01*
X61500000Y-46040000D01*
X61325781Y-46040000D01*
X61424359Y-45964359D01*
X61519731Y-45840067D01*
X61579685Y-45695326D01*
X61600134Y-45540000D01*
X61592449Y-45481624D01*
X97400784Y-45481624D01*
X97410685Y-45714700D01*
X97410686Y-45714709D01*
X97459836Y-45942766D01*
X97459837Y-45942769D01*
X97546819Y-46159231D01*
X97546821Y-46159235D01*
X97669138Y-46357891D01*
X97823269Y-46533018D01*
X97823270Y-46533019D01*
X97823273Y-46533022D01*
X98004773Y-46679573D01*
X98004779Y-46679578D01*
X98208445Y-46793353D01*
X98208448Y-46793354D01*
X98428416Y-46871073D01*
X98556725Y-46893074D01*
X98658344Y-46910499D01*
X98658353Y-46910500D01*
X99283221Y-46910500D01*
X99457446Y-46895671D01*
X99457446Y-46895670D01*
X99457453Y-46895670D01*
X99683219Y-46836885D01*
X99895802Y-46740792D01*
X100089088Y-46610153D01*
X100257516Y-46448728D01*
X100396240Y-46261161D01*
X100501270Y-46052847D01*
X100569583Y-45829780D01*
X100599216Y-45598376D01*
X100589314Y-45365293D01*
X100540164Y-45137235D01*
X100453179Y-44920765D01*
X100330862Y-44722109D01*
X100176731Y-44546982D01*
X100176729Y-44546980D01*
X100176726Y-44546977D01*
X99995226Y-44400426D01*
X99995215Y-44400419D01*
X99954897Y-44377895D01*
X99905971Y-44328015D01*
X99891779Y-44259602D01*
X99916827Y-44194376D01*
X99945931Y-44166910D01*
X100089088Y-44070153D01*
X100257516Y-43908728D01*
X100396240Y-43721161D01*
X100501270Y-43512847D01*
X100569583Y-43289780D01*
X100599216Y-43058376D01*
X100589314Y-42825293D01*
X100540164Y-42597235D01*
X100453179Y-42380765D01*
X100330862Y-42182109D01*
X100176731Y-42006982D01*
X100176725Y-42006977D01*
X100136272Y-41974313D01*
X100096479Y-41916881D01*
X100094054Y-41847054D01*
X100129765Y-41787000D01*
X100161779Y-41765449D01*
X100164127Y-41764354D01*
X100313345Y-41672315D01*
X100437315Y-41548345D01*
X100529356Y-41399124D01*
X100529358Y-41399119D01*
X100584505Y-41232697D01*
X100584506Y-41232690D01*
X100594999Y-41129986D01*
X100595000Y-41129973D01*
X100595000Y-40960000D01*
X99325781Y-40960000D01*
X99424359Y-40884359D01*
X99519731Y-40760067D01*
X99579685Y-40615326D01*
X99600134Y-40460000D01*
X99579685Y-40304674D01*
X99519731Y-40159933D01*
X99424359Y-40035641D01*
X99300067Y-39940269D01*
X99155326Y-39880315D01*
X99038997Y-39865000D01*
X98961003Y-39865000D01*
X98844674Y-39880315D01*
X98699933Y-39940269D01*
X98575641Y-40035641D01*
X98480269Y-40159933D01*
X98420315Y-40304674D01*
X98399866Y-40460000D01*
X98420315Y-40615326D01*
X98480269Y-40760067D01*
X98575641Y-40884359D01*
X98674219Y-40960000D01*
X97405001Y-40960000D01*
X97405001Y-41129986D01*
X97415494Y-41232697D01*
X97470641Y-41399119D01*
X97470643Y-41399124D01*
X97562684Y-41548345D01*
X97686654Y-41672315D01*
X97835881Y-41764359D01*
X97838323Y-41765498D01*
X97839717Y-41766725D01*
X97842025Y-41768149D01*
X97841781Y-41768543D01*
X97890764Y-41811668D01*
X97909919Y-41878861D01*
X97889706Y-41945743D01*
X97871724Y-41967404D01*
X97742483Y-42091272D01*
X97742482Y-42091273D01*
X97603762Y-42278834D01*
X97498733Y-42487147D01*
X97498730Y-42487153D01*
X97430416Y-42710223D01*
X97400784Y-42941624D01*
X97410685Y-43174700D01*
X97410686Y-43174709D01*
X97459836Y-43402766D01*
X97459837Y-43402769D01*
X97546819Y-43619231D01*
X97546821Y-43619235D01*
X97669138Y-43817891D01*
X97749083Y-43908726D01*
X97823270Y-43993019D01*
X97823273Y-43993022D01*
X98004773Y-44139573D01*
X98004775Y-44139574D01*
X98004780Y-44139578D01*
X98045102Y-44162103D01*
X98094028Y-44211983D01*
X98108220Y-44280396D01*
X98083172Y-44345622D01*
X98054065Y-44373092D01*
X97910907Y-44469850D01*
X97742483Y-44631272D01*
X97742482Y-44631273D01*
X97603762Y-44818834D01*
X97498733Y-45027147D01*
X97498730Y-45027153D01*
X97430416Y-45250223D01*
X97400784Y-45481624D01*
X61592449Y-45481624D01*
X61579685Y-45384674D01*
X61519731Y-45239933D01*
X61424359Y-45115641D01*
X61325781Y-45040000D01*
X62594999Y-45040000D01*
X62594999Y-44870028D01*
X62594998Y-44870013D01*
X62584505Y-44767302D01*
X62529358Y-44600880D01*
X62529356Y-44600875D01*
X62437315Y-44451654D01*
X62313345Y-44327684D01*
X62164121Y-44235642D01*
X62161674Y-44234501D01*
X62160276Y-44233270D01*
X62157975Y-44231851D01*
X62158217Y-44231457D01*
X62109233Y-44188330D01*
X62090079Y-44121137D01*
X62110292Y-44054256D01*
X62128269Y-44032600D01*
X62257516Y-43908728D01*
X62396240Y-43721161D01*
X62501270Y-43512847D01*
X62569583Y-43289780D01*
X62599216Y-43058376D01*
X62589314Y-42825293D01*
X62540164Y-42597235D01*
X62453179Y-42380765D01*
X62330862Y-42182109D01*
X62176731Y-42006982D01*
X62176729Y-42006980D01*
X62176726Y-42006977D01*
X61995226Y-41860426D01*
X61995215Y-41860419D01*
X61954897Y-41837895D01*
X61905971Y-41788015D01*
X61891779Y-41719602D01*
X61916827Y-41654376D01*
X61945931Y-41626910D01*
X62089088Y-41530153D01*
X62257516Y-41368728D01*
X62396240Y-41181161D01*
X62501270Y-40972847D01*
X62569583Y-40749780D01*
X62599216Y-40518376D01*
X62589314Y-40285293D01*
X62540164Y-40057235D01*
X62501092Y-39960000D01*
X97405000Y-39960000D01*
X98500000Y-39960000D01*
X98500000Y-39090000D01*
X99500000Y-39090000D01*
X99500000Y-39960000D01*
X100594999Y-39960000D01*
X100594999Y-39790028D01*
X100594998Y-39790013D01*
X100584505Y-39687302D01*
X100529358Y-39520880D01*
X100529356Y-39520875D01*
X100437315Y-39371654D01*
X100313345Y-39247684D01*
X100164124Y-39155643D01*
X100164119Y-39155641D01*
X99997697Y-39100494D01*
X99997690Y-39100493D01*
X99894986Y-39090000D01*
X99500000Y-39090000D01*
X98500000Y-39090000D01*
X98105028Y-39090000D01*
X98105012Y-39090001D01*
X98002302Y-39100494D01*
X97835880Y-39155641D01*
X97835875Y-39155643D01*
X97686654Y-39247684D01*
X97562684Y-39371654D01*
X97470643Y-39520875D01*
X97470641Y-39520880D01*
X97415494Y-39687302D01*
X97415493Y-39687309D01*
X97405000Y-39790013D01*
X97405000Y-39960000D01*
X62501092Y-39960000D01*
X62453179Y-39840765D01*
X62330862Y-39642109D01*
X62176731Y-39466982D01*
X62176729Y-39466980D01*
X62176726Y-39466977D01*
X61995226Y-39320426D01*
X61995220Y-39320421D01*
X61791554Y-39206646D01*
X61571591Y-39128929D01*
X61571586Y-39128927D01*
X61571584Y-39128927D01*
X61571580Y-39128926D01*
X61571579Y-39128926D01*
X61341655Y-39089500D01*
X61341647Y-39089500D01*
X60716784Y-39089500D01*
X60716779Y-39089500D01*
X60542553Y-39104328D01*
X60542551Y-39104329D01*
X60316781Y-39163114D01*
X60104197Y-39259208D01*
X59910911Y-39389847D01*
X59910909Y-39389849D01*
X59742483Y-39551272D01*
X59742482Y-39551273D01*
X59603762Y-39738834D01*
X59498733Y-39947147D01*
X59498730Y-39947153D01*
X59430416Y-40170223D01*
X59400784Y-40401624D01*
X59410685Y-40634700D01*
X59410686Y-40634709D01*
X59459836Y-40862766D01*
X59459837Y-40862769D01*
X59546819Y-41079231D01*
X59546821Y-41079235D01*
X59669138Y-41277891D01*
X59823269Y-41453018D01*
X59823270Y-41453019D01*
X59823273Y-41453022D01*
X60004773Y-41599573D01*
X60004775Y-41599574D01*
X60004780Y-41599578D01*
X60045102Y-41622103D01*
X60094028Y-41671983D01*
X60108220Y-41740396D01*
X60083172Y-41805622D01*
X60054065Y-41833092D01*
X59910907Y-41929850D01*
X59742483Y-42091272D01*
X59742482Y-42091273D01*
X59603762Y-42278834D01*
X59498733Y-42487147D01*
X59498730Y-42487153D01*
X59430416Y-42710223D01*
X59400784Y-42941624D01*
X57000500Y-42941624D01*
X57000500Y-36040000D01*
X59405001Y-36040000D01*
X59405001Y-36209986D01*
X59415494Y-36312697D01*
X59470641Y-36479119D01*
X59470643Y-36479124D01*
X59562684Y-36628345D01*
X59686654Y-36752315D01*
X59835875Y-36844356D01*
X59835880Y-36844358D01*
X60002302Y-36899505D01*
X60002309Y-36899506D01*
X60105019Y-36909999D01*
X60499999Y-36909999D01*
X60500000Y-36909998D01*
X60500000Y-36040000D01*
X59405001Y-36040000D01*
X57000500Y-36040000D01*
X57000500Y-32941624D01*
X59400784Y-32941624D01*
X59410685Y-33174700D01*
X59410686Y-33174709D01*
X59459836Y-33402766D01*
X59459837Y-33402769D01*
X59546819Y-33619231D01*
X59546821Y-33619235D01*
X59669138Y-33817891D01*
X59749083Y-33908726D01*
X59823269Y-33993018D01*
X59863727Y-34025686D01*
X59903519Y-34083117D01*
X59905945Y-34152945D01*
X59870235Y-34212999D01*
X59838235Y-34234543D01*
X59835880Y-34235641D01*
X59686654Y-34327684D01*
X59562684Y-34451654D01*
X59470643Y-34600875D01*
X59470641Y-34600880D01*
X59415494Y-34767302D01*
X59415493Y-34767309D01*
X59405000Y-34870013D01*
X59405000Y-35040000D01*
X60674219Y-35040000D01*
X60575641Y-35115641D01*
X60480269Y-35239933D01*
X60420315Y-35384674D01*
X60399866Y-35540000D01*
X60420315Y-35695326D01*
X60480269Y-35840067D01*
X60575641Y-35964359D01*
X60699933Y-36059731D01*
X60844674Y-36119685D01*
X60961003Y-36135000D01*
X61038997Y-36135000D01*
X61155326Y-36119685D01*
X61300067Y-36059731D01*
X61325781Y-36040000D01*
X61500000Y-36040000D01*
X61500000Y-36909999D01*
X61894972Y-36909999D01*
X61894986Y-36909998D01*
X61997697Y-36899505D01*
X62164119Y-36844358D01*
X62164124Y-36844356D01*
X62313345Y-36752315D01*
X62437315Y-36628345D01*
X62529356Y-36479124D01*
X62529358Y-36479119D01*
X62584505Y-36312697D01*
X62584506Y-36312690D01*
X62594999Y-36209986D01*
X62595000Y-36209973D01*
X62595000Y-36040000D01*
X61500000Y-36040000D01*
X61325781Y-36040000D01*
X61424359Y-35964359D01*
X61519731Y-35840067D01*
X61579685Y-35695326D01*
X61600134Y-35540000D01*
X61592449Y-35481624D01*
X97400784Y-35481624D01*
X97410685Y-35714700D01*
X97410686Y-35714709D01*
X97459836Y-35942766D01*
X97459837Y-35942769D01*
X97546819Y-36159231D01*
X97546821Y-36159235D01*
X97669138Y-36357891D01*
X97823269Y-36533018D01*
X97823270Y-36533019D01*
X97823273Y-36533022D01*
X98004773Y-36679573D01*
X98004779Y-36679578D01*
X98208445Y-36793353D01*
X98208448Y-36793354D01*
X98428416Y-36871073D01*
X98556725Y-36893074D01*
X98658344Y-36910499D01*
X98658353Y-36910500D01*
X99283221Y-36910500D01*
X99457446Y-36895671D01*
X99457446Y-36895670D01*
X99457453Y-36895670D01*
X99683219Y-36836885D01*
X99895802Y-36740792D01*
X100089088Y-36610153D01*
X100257516Y-36448728D01*
X100396240Y-36261161D01*
X100501270Y-36052847D01*
X100569583Y-35829780D01*
X100599216Y-35598376D01*
X100589314Y-35365293D01*
X100540164Y-35137235D01*
X100453179Y-34920765D01*
X100330862Y-34722109D01*
X100176731Y-34546982D01*
X100176729Y-34546980D01*
X100176726Y-34546977D01*
X99995226Y-34400426D01*
X99995215Y-34400419D01*
X99954897Y-34377895D01*
X99905971Y-34328015D01*
X99891779Y-34259602D01*
X99916827Y-34194376D01*
X99945931Y-34166910D01*
X100089088Y-34070153D01*
X100257516Y-33908728D01*
X100396240Y-33721161D01*
X100501270Y-33512847D01*
X100569583Y-33289780D01*
X100599216Y-33058376D01*
X100589314Y-32825293D01*
X100540164Y-32597235D01*
X100453179Y-32380765D01*
X100330862Y-32182109D01*
X100176731Y-32006982D01*
X100176725Y-32006977D01*
X100136272Y-31974313D01*
X100096479Y-31916881D01*
X100094054Y-31847054D01*
X100129765Y-31787000D01*
X100161779Y-31765449D01*
X100164127Y-31764354D01*
X100313345Y-31672315D01*
X100437315Y-31548345D01*
X100529356Y-31399124D01*
X100529358Y-31399119D01*
X100584505Y-31232697D01*
X100584506Y-31232690D01*
X100594999Y-31129986D01*
X100595000Y-31129973D01*
X100595000Y-30960000D01*
X99325781Y-30960000D01*
X99424359Y-30884359D01*
X99519731Y-30760067D01*
X99579685Y-30615326D01*
X99600134Y-30460000D01*
X99579685Y-30304674D01*
X99519731Y-30159933D01*
X99424359Y-30035641D01*
X99300067Y-29940269D01*
X99155326Y-29880315D01*
X99038997Y-29865000D01*
X98961003Y-29865000D01*
X98844674Y-29880315D01*
X98699933Y-29940269D01*
X98575641Y-30035641D01*
X98480269Y-30159933D01*
X98420315Y-30304674D01*
X98399866Y-30460000D01*
X98420315Y-30615326D01*
X98480269Y-30760067D01*
X98575641Y-30884359D01*
X98674219Y-30960000D01*
X97405001Y-30960000D01*
X97405001Y-31129986D01*
X97415494Y-31232697D01*
X97470641Y-31399119D01*
X97470643Y-31399124D01*
X97562684Y-31548345D01*
X97686654Y-31672315D01*
X97835881Y-31764359D01*
X97838323Y-31765498D01*
X97839717Y-31766725D01*
X97842025Y-31768149D01*
X97841781Y-31768543D01*
X97890764Y-31811668D01*
X97909919Y-31878861D01*
X97889706Y-31945743D01*
X97871724Y-31967404D01*
X97742483Y-32091272D01*
X97742482Y-32091273D01*
X97603762Y-32278834D01*
X97498733Y-32487147D01*
X97498730Y-32487153D01*
X97430416Y-32710223D01*
X97400784Y-32941624D01*
X97410685Y-33174700D01*
X97410686Y-33174709D01*
X97459836Y-33402766D01*
X97459837Y-33402769D01*
X97546819Y-33619231D01*
X97546821Y-33619235D01*
X97669138Y-33817891D01*
X97749083Y-33908726D01*
X97823270Y-33993019D01*
X97823273Y-33993022D01*
X98004773Y-34139573D01*
X98004775Y-34139574D01*
X98004780Y-34139578D01*
X98045102Y-34162103D01*
X98094028Y-34211983D01*
X98108220Y-34280396D01*
X98083172Y-34345622D01*
X98054065Y-34373092D01*
X97910907Y-34469850D01*
X97742483Y-34631272D01*
X97742482Y-34631273D01*
X97603762Y-34818834D01*
X97498733Y-35027147D01*
X97498730Y-35027153D01*
X97430416Y-35250223D01*
X97400784Y-35481624D01*
X61592449Y-35481624D01*
X61579685Y-35384674D01*
X61519731Y-35239933D01*
X61424359Y-35115641D01*
X61325781Y-35040000D01*
X62594999Y-35040000D01*
X62594999Y-34870028D01*
X62594998Y-34870013D01*
X62584505Y-34767302D01*
X62529358Y-34600880D01*
X62529356Y-34600875D01*
X62437315Y-34451654D01*
X62313345Y-34327684D01*
X62164121Y-34235642D01*
X62161674Y-34234501D01*
X62160276Y-34233270D01*
X62157975Y-34231851D01*
X62158217Y-34231457D01*
X62109233Y-34188330D01*
X62090079Y-34121137D01*
X62110292Y-34054256D01*
X62128269Y-34032600D01*
X62257516Y-33908728D01*
X62396240Y-33721161D01*
X62501270Y-33512847D01*
X62569583Y-33289780D01*
X62599216Y-33058376D01*
X62589314Y-32825293D01*
X62540164Y-32597235D01*
X62453179Y-32380765D01*
X62330862Y-32182109D01*
X62176731Y-32006982D01*
X62176729Y-32006980D01*
X62176726Y-32006977D01*
X61995226Y-31860426D01*
X61995215Y-31860419D01*
X61954897Y-31837895D01*
X61905971Y-31788015D01*
X61891779Y-31719602D01*
X61916827Y-31654376D01*
X61945931Y-31626910D01*
X62089088Y-31530153D01*
X62257516Y-31368728D01*
X62396240Y-31181161D01*
X62501270Y-30972847D01*
X62569583Y-30749780D01*
X62599216Y-30518376D01*
X62589314Y-30285293D01*
X62540164Y-30057235D01*
X62501092Y-29960000D01*
X97405000Y-29960000D01*
X98500000Y-29960000D01*
X98500000Y-29090000D01*
X99500000Y-29090000D01*
X99500000Y-29960000D01*
X100594999Y-29960000D01*
X100594999Y-29790028D01*
X100594998Y-29790013D01*
X100584505Y-29687302D01*
X100529358Y-29520880D01*
X100529356Y-29520875D01*
X100437315Y-29371654D01*
X100313345Y-29247684D01*
X100164124Y-29155643D01*
X100164119Y-29155641D01*
X99997697Y-29100494D01*
X99997690Y-29100493D01*
X99894986Y-29090000D01*
X99500000Y-29090000D01*
X98500000Y-29090000D01*
X98105028Y-29090000D01*
X98105012Y-29090001D01*
X98002302Y-29100494D01*
X97835880Y-29155641D01*
X97835875Y-29155643D01*
X97686654Y-29247684D01*
X97562684Y-29371654D01*
X97470643Y-29520875D01*
X97470641Y-29520880D01*
X97415494Y-29687302D01*
X97415493Y-29687309D01*
X97405000Y-29790013D01*
X97405000Y-29960000D01*
X62501092Y-29960000D01*
X62453179Y-29840765D01*
X62330862Y-29642109D01*
X62176731Y-29466982D01*
X62176729Y-29466980D01*
X62176726Y-29466977D01*
X61995226Y-29320426D01*
X61995220Y-29320421D01*
X61791554Y-29206646D01*
X61571591Y-29128929D01*
X61571586Y-29128927D01*
X61571584Y-29128927D01*
X61571580Y-29128926D01*
X61571579Y-29128926D01*
X61341655Y-29089500D01*
X61341647Y-29089500D01*
X60716784Y-29089500D01*
X60716779Y-29089500D01*
X60542553Y-29104328D01*
X60542551Y-29104329D01*
X60316781Y-29163114D01*
X60104197Y-29259208D01*
X59910911Y-29389847D01*
X59910909Y-29389849D01*
X59742483Y-29551272D01*
X59742482Y-29551273D01*
X59603762Y-29738834D01*
X59498733Y-29947147D01*
X59498730Y-29947153D01*
X59430416Y-30170223D01*
X59400784Y-30401624D01*
X59410685Y-30634700D01*
X59410686Y-30634709D01*
X59459836Y-30862766D01*
X59459837Y-30862769D01*
X59546819Y-31079231D01*
X59546821Y-31079235D01*
X59669138Y-31277891D01*
X59823269Y-31453018D01*
X59823270Y-31453019D01*
X59823273Y-31453022D01*
X60004773Y-31599573D01*
X60004775Y-31599574D01*
X60004780Y-31599578D01*
X60045102Y-31622103D01*
X60094028Y-31671983D01*
X60108220Y-31740396D01*
X60083172Y-31805622D01*
X60054065Y-31833092D01*
X59910907Y-31929850D01*
X59742483Y-32091272D01*
X59742482Y-32091273D01*
X59603762Y-32278834D01*
X59498733Y-32487147D01*
X59498730Y-32487153D01*
X59430416Y-32710223D01*
X59400784Y-32941624D01*
X57000500Y-32941624D01*
X57000500Y-27000000D01*
X71659341Y-27000000D01*
X71679936Y-27235403D01*
X71679938Y-27235413D01*
X71741094Y-27463655D01*
X71741096Y-27463659D01*
X71741097Y-27463663D01*
X71820597Y-27634151D01*
X71840965Y-27677830D01*
X71840967Y-27677834D01*
X71899462Y-27761373D01*
X71976505Y-27871401D01*
X72143599Y-28038495D01*
X72240384Y-28106265D01*
X72337165Y-28174032D01*
X72337167Y-28174033D01*
X72337170Y-28174035D01*
X72551337Y-28273903D01*
X72779592Y-28335063D01*
X72967918Y-28351539D01*
X73014999Y-28355659D01*
X73015000Y-28355659D01*
X73015001Y-28355659D01*
X73054234Y-28352226D01*
X73250408Y-28335063D01*
X73478663Y-28273903D01*
X73692830Y-28174035D01*
X73886401Y-28038495D01*
X74053495Y-27871401D01*
X74183425Y-27685842D01*
X74238002Y-27642217D01*
X74307500Y-27635023D01*
X74369855Y-27666546D01*
X74386575Y-27685842D01*
X74516500Y-27871395D01*
X74516505Y-27871401D01*
X74683599Y-28038495D01*
X74780384Y-28106265D01*
X74877165Y-28174032D01*
X74877167Y-28174033D01*
X74877170Y-28174035D01*
X75091337Y-28273903D01*
X75319592Y-28335063D01*
X75507918Y-28351539D01*
X75554999Y-28355659D01*
X75555000Y-28355659D01*
X75555001Y-28355659D01*
X75594234Y-28352226D01*
X75790408Y-28335063D01*
X76018663Y-28273903D01*
X76232830Y-28174035D01*
X76426401Y-28038495D01*
X76593495Y-27871401D01*
X76729035Y-27677830D01*
X76828903Y-27463663D01*
X76890063Y-27235408D01*
X76910659Y-27000001D01*
X83089843Y-27000001D01*
X83110430Y-27235315D01*
X83110432Y-27235326D01*
X83171566Y-27463483D01*
X83171570Y-27463492D01*
X83271400Y-27677579D01*
X83271402Y-27677583D01*
X83330072Y-27761373D01*
X83330073Y-27761373D01*
X83961923Y-27129523D01*
X83985507Y-27209844D01*
X84063239Y-27330798D01*
X84171900Y-27424952D01*
X84302685Y-27484680D01*
X84312466Y-27486086D01*
X83683625Y-28114925D01*
X83767421Y-28173599D01*
X83981507Y-28273429D01*
X83981516Y-28273433D01*
X84209673Y-28334567D01*
X84209684Y-28334569D01*
X84444998Y-28355157D01*
X84445002Y-28355157D01*
X84680315Y-28334569D01*
X84680326Y-28334567D01*
X84908483Y-28273433D01*
X84908492Y-28273429D01*
X85122578Y-28173600D01*
X85122582Y-28173598D01*
X85206373Y-28114926D01*
X85206373Y-28114925D01*
X84577533Y-27486086D01*
X84587315Y-27484680D01*
X84718100Y-27424952D01*
X84826761Y-27330798D01*
X84904493Y-27209844D01*
X84928076Y-27129524D01*
X85559925Y-27761373D01*
X85613425Y-27684968D01*
X85668002Y-27641344D01*
X85737501Y-27634151D01*
X85799855Y-27665673D01*
X85816576Y-27684969D01*
X85870073Y-27761372D01*
X86501922Y-27129523D01*
X86525507Y-27209844D01*
X86603239Y-27330798D01*
X86711900Y-27424952D01*
X86842685Y-27484680D01*
X86852466Y-27486086D01*
X86223625Y-28114925D01*
X86307421Y-28173599D01*
X86521507Y-28273429D01*
X86521516Y-28273433D01*
X86749673Y-28334567D01*
X86749684Y-28334569D01*
X86984998Y-28355157D01*
X86985002Y-28355157D01*
X87220315Y-28334569D01*
X87220326Y-28334567D01*
X87448483Y-28273433D01*
X87448492Y-28273429D01*
X87662578Y-28173600D01*
X87662582Y-28173598D01*
X87746373Y-28114926D01*
X87746373Y-28114925D01*
X87117533Y-27486086D01*
X87127315Y-27484680D01*
X87258100Y-27424952D01*
X87366761Y-27330798D01*
X87444493Y-27209844D01*
X87468076Y-27129524D01*
X88099925Y-27761373D01*
X88099926Y-27761373D01*
X88158598Y-27677582D01*
X88158600Y-27677578D01*
X88258429Y-27463492D01*
X88258433Y-27463483D01*
X88319567Y-27235326D01*
X88319569Y-27235315D01*
X88340157Y-27000001D01*
X88340157Y-26999998D01*
X88319569Y-26764684D01*
X88319567Y-26764673D01*
X88258433Y-26536516D01*
X88258429Y-26536507D01*
X88158600Y-26322423D01*
X88158599Y-26322421D01*
X88099925Y-26238626D01*
X88099925Y-26238625D01*
X87468076Y-26870475D01*
X87444493Y-26790156D01*
X87366761Y-26669202D01*
X87258100Y-26575048D01*
X87127315Y-26515320D01*
X87117533Y-26513913D01*
X87746373Y-25885073D01*
X87746373Y-25885072D01*
X87662583Y-25826402D01*
X87662579Y-25826400D01*
X87448492Y-25726570D01*
X87448483Y-25726566D01*
X87220326Y-25665432D01*
X87220315Y-25665430D01*
X86985002Y-25644843D01*
X86984998Y-25644843D01*
X86749684Y-25665430D01*
X86749673Y-25665432D01*
X86521516Y-25726566D01*
X86521507Y-25726570D01*
X86307419Y-25826401D01*
X86223625Y-25885072D01*
X86852466Y-26513913D01*
X86842685Y-26515320D01*
X86711900Y-26575048D01*
X86603239Y-26669202D01*
X86525507Y-26790156D01*
X86501923Y-26870476D01*
X85870072Y-26238625D01*
X85870072Y-26238626D01*
X85816574Y-26315030D01*
X85761998Y-26358655D01*
X85692499Y-26365849D01*
X85630144Y-26334326D01*
X85613424Y-26315030D01*
X85559925Y-26238626D01*
X85559925Y-26238625D01*
X84928076Y-26870475D01*
X84904493Y-26790156D01*
X84826761Y-26669202D01*
X84718100Y-26575048D01*
X84587315Y-26515320D01*
X84577533Y-26513913D01*
X85206373Y-25885073D01*
X85206373Y-25885072D01*
X85122583Y-25826402D01*
X85122579Y-25826400D01*
X84908492Y-25726570D01*
X84908483Y-25726566D01*
X84680326Y-25665432D01*
X84680315Y-25665430D01*
X84445002Y-25644843D01*
X84444998Y-25644843D01*
X84209684Y-25665430D01*
X84209673Y-25665432D01*
X83981516Y-25726566D01*
X83981507Y-25726570D01*
X83767419Y-25826401D01*
X83683625Y-25885072D01*
X84312466Y-26513913D01*
X84302685Y-26515320D01*
X84171900Y-26575048D01*
X84063239Y-26669202D01*
X83985507Y-26790156D01*
X83961923Y-26870476D01*
X83330072Y-26238625D01*
X83271401Y-26322419D01*
X83171570Y-26536507D01*
X83171566Y-26536516D01*
X83110432Y-26764673D01*
X83110430Y-26764684D01*
X83089843Y-26999998D01*
X83089843Y-27000001D01*
X76910659Y-27000001D01*
X76910659Y-27000000D01*
X76890063Y-26764592D01*
X76828903Y-26536337D01*
X76729035Y-26322171D01*
X76723425Y-26314158D01*
X76593494Y-26128597D01*
X76426402Y-25961506D01*
X76426395Y-25961501D01*
X76232834Y-25825967D01*
X76232830Y-25825965D01*
X76200860Y-25811057D01*
X76018663Y-25726097D01*
X76018659Y-25726096D01*
X76018655Y-25726094D01*
X75790413Y-25664938D01*
X75790403Y-25664936D01*
X75555001Y-25644341D01*
X75554999Y-25644341D01*
X75319596Y-25664936D01*
X75319586Y-25664938D01*
X75091344Y-25726094D01*
X75091335Y-25726098D01*
X74877171Y-25825964D01*
X74877169Y-25825965D01*
X74683597Y-25961505D01*
X74516505Y-26128597D01*
X74386575Y-26314158D01*
X74331998Y-26357783D01*
X74262500Y-26364977D01*
X74200145Y-26333454D01*
X74183425Y-26314158D01*
X74053494Y-26128597D01*
X73886402Y-25961506D01*
X73886395Y-25961501D01*
X73692834Y-25825967D01*
X73692830Y-25825965D01*
X73660860Y-25811057D01*
X73478663Y-25726097D01*
X73478659Y-25726096D01*
X73478655Y-25726094D01*
X73250413Y-25664938D01*
X73250403Y-25664936D01*
X73015001Y-25644341D01*
X73014999Y-25644341D01*
X72779596Y-25664936D01*
X72779586Y-25664938D01*
X72551344Y-25726094D01*
X72551335Y-25726098D01*
X72337171Y-25825964D01*
X72337169Y-25825965D01*
X72143597Y-25961505D01*
X71976505Y-26128597D01*
X71840965Y-26322169D01*
X71840964Y-26322171D01*
X71741098Y-26536335D01*
X71741094Y-26536344D01*
X71679938Y-26764586D01*
X71679936Y-26764596D01*
X71659341Y-26999999D01*
X71659341Y-27000000D01*
X57000500Y-27000000D01*
X57000500Y-24067763D01*
X59145787Y-24067763D01*
X59175413Y-24337013D01*
X59175415Y-24337024D01*
X59243926Y-24599082D01*
X59243928Y-24599088D01*
X59349870Y-24848390D01*
X59421998Y-24966575D01*
X59490979Y-25079605D01*
X59490986Y-25079615D01*
X59664253Y-25287819D01*
X59664259Y-25287824D01*
X59865998Y-25468582D01*
X60091910Y-25618044D01*
X60337176Y-25733020D01*
X60337183Y-25733022D01*
X60337185Y-25733023D01*
X60596557Y-25811057D01*
X60596564Y-25811058D01*
X60596569Y-25811060D01*
X60864561Y-25850500D01*
X60864566Y-25850500D01*
X61067636Y-25850500D01*
X61119133Y-25846730D01*
X61270156Y-25835677D01*
X61382758Y-25810593D01*
X61534546Y-25776782D01*
X61534548Y-25776781D01*
X61534553Y-25776780D01*
X61787558Y-25680014D01*
X62023777Y-25547441D01*
X62238177Y-25381888D01*
X62426186Y-25186881D01*
X62583799Y-24966579D01*
X62657787Y-24822669D01*
X62707649Y-24725690D01*
X62707651Y-24725684D01*
X62707656Y-24725675D01*
X62795118Y-24469305D01*
X62844319Y-24202933D01*
X62854212Y-23932235D01*
X62845164Y-23850003D01*
X66644435Y-23850003D01*
X66664630Y-24029249D01*
X66664631Y-24029254D01*
X66724211Y-24199523D01*
X66810609Y-24337024D01*
X66820184Y-24352262D01*
X66947738Y-24479816D01*
X67100478Y-24575789D01*
X67167046Y-24599082D01*
X67270745Y-24635368D01*
X67270750Y-24635369D01*
X67449996Y-24655565D01*
X67450000Y-24655565D01*
X67450004Y-24655565D01*
X67629249Y-24635369D01*
X67629252Y-24635368D01*
X67629255Y-24635368D01*
X67799522Y-24575789D01*
X67952262Y-24479816D01*
X68079816Y-24352262D01*
X68175789Y-24199522D01*
X68221893Y-24067763D01*
X97145787Y-24067763D01*
X97175413Y-24337013D01*
X97175415Y-24337024D01*
X97243926Y-24599082D01*
X97243928Y-24599088D01*
X97349870Y-24848390D01*
X97421998Y-24966575D01*
X97490979Y-25079605D01*
X97490986Y-25079615D01*
X97664253Y-25287819D01*
X97664259Y-25287824D01*
X97865998Y-25468582D01*
X98091910Y-25618044D01*
X98337176Y-25733020D01*
X98337183Y-25733022D01*
X98337185Y-25733023D01*
X98596557Y-25811057D01*
X98596564Y-25811058D01*
X98596569Y-25811060D01*
X98864561Y-25850500D01*
X98864566Y-25850500D01*
X99067636Y-25850500D01*
X99119133Y-25846730D01*
X99270156Y-25835677D01*
X99382758Y-25810593D01*
X99534546Y-25776782D01*
X99534548Y-25776781D01*
X99534553Y-25776780D01*
X99787558Y-25680014D01*
X100023777Y-25547441D01*
X100238177Y-25381888D01*
X100426186Y-25186881D01*
X100583799Y-24966579D01*
X100657787Y-24822669D01*
X100707649Y-24725690D01*
X100707651Y-24725684D01*
X100707656Y-24725675D01*
X100795118Y-24469305D01*
X100844319Y-24202933D01*
X100854212Y-23932235D01*
X100824586Y-23662982D01*
X100756072Y-23400912D01*
X100650130Y-23151610D01*
X100509018Y-22920390D01*
X100471388Y-22875173D01*
X100335746Y-22712180D01*
X100335740Y-22712175D01*
X100134002Y-22531418D01*
X99908092Y-22381957D01*
X99908090Y-22381956D01*
X99662824Y-22266980D01*
X99662819Y-22266978D01*
X99662814Y-22266976D01*
X99403442Y-22188942D01*
X99403428Y-22188939D01*
X99287791Y-22171921D01*
X99135439Y-22149500D01*
X98932369Y-22149500D01*
X98932364Y-22149500D01*
X98729844Y-22164323D01*
X98729831Y-22164325D01*
X98465453Y-22223217D01*
X98465446Y-22223220D01*
X98212439Y-22319987D01*
X97976226Y-22452557D01*
X97976224Y-22452558D01*
X97976223Y-22452559D01*
X97932239Y-22486522D01*
X97761822Y-22618112D01*
X97573822Y-22813109D01*
X97573816Y-22813116D01*
X97416202Y-23033419D01*
X97416199Y-23033424D01*
X97292350Y-23274309D01*
X97292343Y-23274327D01*
X97204884Y-23530685D01*
X97204881Y-23530699D01*
X97155681Y-23797068D01*
X97155680Y-23797075D01*
X97145787Y-24067763D01*
X68221893Y-24067763D01*
X68235368Y-24029255D01*
X68238608Y-24000500D01*
X68255565Y-23850003D01*
X68255565Y-23849996D01*
X68235369Y-23670750D01*
X68235368Y-23670745D01*
X68221451Y-23630973D01*
X68175789Y-23500478D01*
X68079816Y-23347738D01*
X67952262Y-23220184D01*
X67799523Y-23124211D01*
X67629254Y-23064631D01*
X67629249Y-23064630D01*
X67450004Y-23044435D01*
X67449996Y-23044435D01*
X67270750Y-23064630D01*
X67270745Y-23064631D01*
X67100476Y-23124211D01*
X66947737Y-23220184D01*
X66820184Y-23347737D01*
X66724211Y-23500476D01*
X66664631Y-23670745D01*
X66664630Y-23670750D01*
X66644435Y-23849996D01*
X66644435Y-23850003D01*
X62845164Y-23850003D01*
X62824586Y-23662982D01*
X62756072Y-23400912D01*
X62650130Y-23151610D01*
X62509018Y-22920390D01*
X62471388Y-22875173D01*
X62335746Y-22712180D01*
X62335740Y-22712175D01*
X62134002Y-22531418D01*
X61908092Y-22381957D01*
X61908090Y-22381956D01*
X61662824Y-22266980D01*
X61662819Y-22266978D01*
X61662814Y-22266976D01*
X61403442Y-22188942D01*
X61403428Y-22188939D01*
X61287791Y-22171921D01*
X61135439Y-22149500D01*
X60932369Y-22149500D01*
X60932364Y-22149500D01*
X60729844Y-22164323D01*
X60729831Y-22164325D01*
X60465453Y-22223217D01*
X60465446Y-22223220D01*
X60212439Y-22319987D01*
X59976226Y-22452557D01*
X59976224Y-22452558D01*
X59976223Y-22452559D01*
X59932239Y-22486522D01*
X59761822Y-22618112D01*
X59573822Y-22813109D01*
X59573816Y-22813116D01*
X59416202Y-23033419D01*
X59416199Y-23033424D01*
X59292350Y-23274309D01*
X59292343Y-23274327D01*
X59204884Y-23530685D01*
X59204881Y-23530699D01*
X59155681Y-23797068D01*
X59155680Y-23797075D01*
X59145787Y-24067763D01*
X57000500Y-24067763D01*
X57000500Y-24001439D01*
X57000566Y-23998576D01*
X57008487Y-23827238D01*
X57009969Y-23797068D01*
X57018302Y-23627446D01*
X57018818Y-23621955D01*
X57044670Y-23436633D01*
X57072331Y-23250162D01*
X57073292Y-23245137D01*
X57116689Y-23060626D01*
X57161993Y-22879764D01*
X57163323Y-22875216D01*
X57223915Y-22694431D01*
X57286457Y-22519641D01*
X57288100Y-22515527D01*
X57365368Y-22340530D01*
X57444615Y-22172977D01*
X57446444Y-22169423D01*
X57539781Y-22001852D01*
X57634990Y-21843005D01*
X57636979Y-21839904D01*
X57643741Y-21830033D01*
X70474737Y-21830033D01*
X70484756Y-21989273D01*
X70534061Y-22141020D01*
X70619553Y-22275732D01*
X70735864Y-22384955D01*
X70735868Y-22384958D01*
X70858836Y-22452559D01*
X70875682Y-22461820D01*
X71030223Y-22501500D01*
X71030226Y-22501500D01*
X71149728Y-22501500D01*
X71149730Y-22501500D01*
X71149735Y-22501499D01*
X71149739Y-22501499D01*
X71162590Y-22499875D01*
X71268296Y-22486522D01*
X71416645Y-22427786D01*
X71545727Y-22334002D01*
X71647431Y-22211064D01*
X71715366Y-22066695D01*
X71745263Y-21909967D01*
X71740234Y-21830033D01*
X88254737Y-21830033D01*
X88264756Y-21989273D01*
X88314061Y-22141020D01*
X88399553Y-22275732D01*
X88515864Y-22384955D01*
X88515868Y-22384958D01*
X88638836Y-22452559D01*
X88655682Y-22461820D01*
X88810223Y-22501500D01*
X88810226Y-22501500D01*
X88929728Y-22501500D01*
X88929730Y-22501500D01*
X88929735Y-22501499D01*
X88929739Y-22501499D01*
X88942590Y-22499875D01*
X89048296Y-22486522D01*
X89196645Y-22427786D01*
X89325727Y-22334002D01*
X89427431Y-22211064D01*
X89495366Y-22066695D01*
X89525263Y-21909967D01*
X89515244Y-21750728D01*
X89465940Y-21598983D01*
X89465938Y-21598980D01*
X89465938Y-21598979D01*
X89380446Y-21464267D01*
X89264135Y-21355044D01*
X89264131Y-21355041D01*
X89124321Y-21278181D01*
X89124313Y-21278178D01*
X88969779Y-21238500D01*
X88969777Y-21238500D01*
X88850270Y-21238500D01*
X88850260Y-21238500D01*
X88731704Y-21253478D01*
X88731702Y-21253478D01*
X88583356Y-21312213D01*
X88583351Y-21312216D01*
X88454272Y-21405999D01*
X88352567Y-21528938D01*
X88284634Y-21673304D01*
X88284634Y-21673305D01*
X88254737Y-21830030D01*
X88254737Y-21830033D01*
X71740234Y-21830033D01*
X71735244Y-21750728D01*
X71685940Y-21598983D01*
X71685938Y-21598980D01*
X71685938Y-21598979D01*
X71600446Y-21464267D01*
X71484135Y-21355044D01*
X71484131Y-21355041D01*
X71344321Y-21278181D01*
X71344313Y-21278178D01*
X71189779Y-21238500D01*
X71189777Y-21238500D01*
X71070270Y-21238500D01*
X71070260Y-21238500D01*
X70951704Y-21253478D01*
X70951702Y-21253478D01*
X70803356Y-21312213D01*
X70803351Y-21312216D01*
X70674272Y-21405999D01*
X70572567Y-21528938D01*
X70504634Y-21673304D01*
X70504634Y-21673305D01*
X70474737Y-21830030D01*
X70474737Y-21830033D01*
X57643741Y-21830033D01*
X57745570Y-21681381D01*
X57855924Y-21532586D01*
X57857928Y-21530033D01*
X57980875Y-21381973D01*
X58105351Y-21244636D01*
X58107361Y-21242526D01*
X58242526Y-21107361D01*
X58244636Y-21105351D01*
X58381973Y-20980875D01*
X58530033Y-20857928D01*
X58532586Y-20855924D01*
X58681381Y-20745570D01*
X58839904Y-20636979D01*
X58843005Y-20634990D01*
X59001858Y-20539778D01*
X59169423Y-20446444D01*
X59172977Y-20444615D01*
X59340530Y-20365368D01*
X59515538Y-20288095D01*
X59519641Y-20286457D01*
X59694431Y-20223915D01*
X59875216Y-20163323D01*
X59879764Y-20161993D01*
X60060626Y-20116689D01*
X60245137Y-20073292D01*
X60250162Y-20072331D01*
X60436651Y-20044667D01*
X60621955Y-20018818D01*
X60627446Y-20018302D01*
X60826958Y-20008500D01*
X60968945Y-20001935D01*
X60998577Y-20000566D01*
X61001440Y-20000500D01*
X98998560Y-20000500D01*
X99001423Y-20000566D01*
G37*
%TD.AperFunction*%
%TD*%
M02*
